<svg width="217" height="18" viewBox="0 0 217 18" fill="none" xmlns="http://www.w3.org/2000/svg">
<path d="M14.4609 2.40625C14.4297 2.51042 14.388 2.58594 14.3359 2.63281C14.2891 2.67969 14.237 2.72396 14.1797 2.76562C14.1224 2.80729 14.0651 2.86198 14.0078 2.92969C13.9557 2.9974 13.9115 3.10156 13.875 3.24219C13.7865 3.53906 13.6927 3.90104 13.5938 4.32812C13.5 4.75 13.4062 5.20312 13.3125 5.6875C13.2188 6.17188 13.1276 6.66667 13.0391 7.17188C12.9557 7.67188 12.8828 8.14844 12.8203 8.60156C12.7578 9.04948 12.7057 9.45312 12.6641 9.8125C12.6276 10.1667 12.6094 10.4401 12.6094 10.6328C12.6094 10.7682 12.6224 10.9062 12.6484 11.0469C12.6797 11.1823 12.7135 11.3203 12.75 11.4609C12.7865 11.6016 12.8177 11.7474 12.8438 11.8984C12.875 12.0495 12.8906 12.2057 12.8906 12.3672C12.8906 12.513 12.875 12.6641 12.8438 12.8203C12.8177 12.9714 12.7656 13.1328 12.6875 13.3047C12.6719 13.3359 12.638 13.362 12.5859 13.3828C12.5391 13.4036 12.4792 13.4193 12.4062 13.4297C12.3333 13.4401 12.2552 13.4479 12.1719 13.4531C12.0938 13.4583 12.0156 13.4609 11.9375 13.4609C11.6406 13.4609 11.4323 13.3385 11.3125 13.0938C11.1927 12.8542 11.1328 12.5234 11.1328 12.1016C11.1328 11.6276 11.1667 11.1172 11.2344 10.5703C11.3021 10.0234 11.388 9.44792 11.4922 8.84375C11.5964 8.23438 11.7109 7.60417 11.8359 6.95312C11.9661 6.29688 12.0911 5.625 12.2109 4.9375C11.9922 5.20833 11.7604 5.48958 11.5156 5.78125C11.2708 6.07292 11.0234 6.35938 10.7734 6.64062C10.5234 6.92188 10.2786 7.19271 10.0391 7.45312C9.80469 7.71354 9.58594 7.95052 9.38281 8.16406C9.17969 8.3776 8.9974 8.5599 8.83594 8.71094C8.67969 8.86198 8.5599 8.96875 8.47656 9.03125C8.3151 9.16146 8.17969 9.29688 8.07031 9.4375C7.96094 9.57812 7.86719 9.71875 7.78906 9.85938C7.71094 9.99479 7.64062 10.125 7.57812 10.25C7.51562 10.375 7.45052 10.4844 7.38281 10.5781C7.3151 10.6719 7.23698 10.7474 7.14844 10.8047C7.0651 10.862 6.95833 10.8906 6.82812 10.8906C6.79167 10.8906 6.73177 10.8906 6.64844 10.8906C6.5651 10.8854 6.47656 10.8776 6.38281 10.8672C6.29427 10.8516 6.21354 10.8307 6.14062 10.8047C6.06771 10.7734 6.02604 10.7318 6.01562 10.6797C5.95312 10.3776 5.86198 10.0286 5.74219 9.63281C5.6276 9.23698 5.49479 8.82552 5.34375 8.39844C5.19792 7.96615 5.04427 7.53385 4.88281 7.10156C4.72656 6.66927 4.57812 6.26823 4.4375 5.89844C4.29688 5.52344 4.16927 5.19531 4.05469 4.91406C3.94531 4.63281 3.86719 4.42708 3.82031 4.29688C3.65885 4.89583 3.49479 5.53385 3.32812 6.21094C3.16146 6.88802 3.01042 7.55729 2.875 8.21875C2.73958 8.88021 2.6276 9.51302 2.53906 10.1172C2.45573 10.7161 2.41406 11.2422 2.41406 11.6953V11.8516C2.41406 11.9557 2.38542 12.0885 2.32812 12.25C2.27604 12.4115 2.21094 12.5703 2.13281 12.7266C2.05469 12.8776 1.97396 13.0078 1.89062 13.1172C1.8125 13.2318 1.7474 13.2891 1.69531 13.2891C1.6224 13.2943 1.53646 13.2865 1.4375 13.2656C1.34375 13.25 1.2474 13.2214 1.14844 13.1797C1.10156 13.1589 1.04948 13.1198 0.992188 13.0625C0.934896 13.0052 0.877604 12.9375 0.820312 12.8594C0.768229 12.7812 0.723958 12.6979 0.6875 12.6094C0.651042 12.5208 0.632812 12.4349 0.632812 12.3516C0.632812 12.3047 0.640625 12.2604 0.65625 12.2188C0.822917 11.7969 0.96875 11.3203 1.09375 10.7891C1.21875 10.2578 1.33854 9.70052 1.45312 9.11719C1.57292 8.52865 1.69792 7.92969 1.82812 7.32031C1.96354 6.71094 2.1224 6.11979 2.30469 5.54688C2.38802 5.30729 2.46354 5.05469 2.53125 4.78906C2.59896 4.52344 2.65885 4.26823 2.71094 4.02344C2.76302 3.77865 2.80729 3.55208 2.84375 3.34375C2.88021 3.13021 2.90885 2.95833 2.92969 2.82812C2.94531 2.74479 2.96354 2.63281 2.98438 2.49219C3.00521 2.35156 3.03385 2.21354 3.07031 2.07812C3.11198 1.94271 3.16667 1.82552 3.23438 1.72656C3.30729 1.6276 3.40365 1.57812 3.52344 1.57812C3.59635 1.57812 3.69792 1.60156 3.82812 1.64844C3.95833 1.69531 4.09115 1.75521 4.22656 1.82812C4.36198 1.89583 4.48438 1.97135 4.59375 2.05469C4.70312 2.13802 4.77604 2.21875 4.8125 2.29688C4.83854 2.34896 4.86719 2.42188 4.89844 2.51562C4.9349 2.60938 4.96875 2.71094 5 2.82031C5.03125 2.92448 5.05729 3.03125 5.07812 3.14062C5.10417 3.24479 5.11719 3.33594 5.11719 3.41406C5.11719 3.46615 5.14323 3.59635 5.19531 3.80469C5.2474 4.00781 5.31771 4.26042 5.40625 4.5625C5.49479 4.85938 5.59896 5.1875 5.71875 5.54688C5.83854 5.90625 5.96354 6.26823 6.09375 6.63281C6.22396 6.9974 6.35677 7.34896 6.49219 7.6875C6.63281 8.02604 6.76823 8.32031 6.89844 8.57031C6.9401 8.64844 6.9974 8.6875 7.07031 8.6875C7.10677 8.6875 7.14062 8.67969 7.17188 8.66406C7.20833 8.64323 7.23438 8.6224 7.25 8.60156C7.64062 8.17969 8.0599 7.75 8.50781 7.3125C8.96094 6.86979 9.40885 6.41927 9.85156 5.96094C10.2943 5.4974 10.7188 5.02083 11.125 4.53125C11.5312 4.04167 11.888 3.53125 12.1953 3C12.263 2.86458 12.3203 2.70573 12.3672 2.52344C12.4193 2.33594 12.5052 2.13802 12.625 1.92969C12.7865 1.66406 12.9427 1.46094 13.0938 1.32031C13.2448 1.17448 13.3828 1.10156 13.5078 1.10156C13.5599 1.10156 13.6406 1.14062 13.75 1.21875C13.8594 1.29167 13.9688 1.38542 14.0781 1.5C14.1875 1.61458 14.2812 1.73958 14.3594 1.875C14.4427 2.01042 14.4844 2.14062 14.4844 2.26562C14.4844 2.3125 14.4766 2.35938 14.4609 2.40625ZM28.2266 10.0547C28.2266 10.1797 28.1979 10.3047 28.1406 10.4297C28.0833 10.5547 28.013 10.6615 27.9297 10.75C27.1536 11.5885 26.4479 12.224 25.8125 12.6562C25.1771 13.0833 24.6016 13.2969 24.0859 13.2969C23.8672 13.2969 23.6615 13.2578 23.4688 13.1797C23.2812 13.1016 23.1172 12.9792 22.9766 12.8125C22.8359 12.6458 22.7266 12.4297 22.6484 12.1641C22.5703 11.8984 22.5312 11.5807 22.5312 11.2109C22.5312 11.0495 22.5417 10.8646 22.5625 10.6562C22.5833 10.4479 22.6068 10.2318 22.6328 10.0078C22.6641 9.78385 22.6979 9.5625 22.7344 9.34375C22.7708 9.11979 22.8021 8.91667 22.8281 8.73438C22.8594 8.54688 22.8854 8.38802 22.9062 8.25781C22.9271 8.1224 22.9375 8.03125 22.9375 7.98438C22.9375 7.9375 22.9271 7.90885 22.9062 7.89844C22.8906 7.88802 22.862 7.88281 22.8203 7.88281C22.7995 7.88281 22.7604 7.89583 22.7031 7.92188C22.651 7.94271 22.5859 7.96875 22.5078 8C22.4349 8.03125 22.3542 8.0651 22.2656 8.10156C22.1771 8.13802 22.0911 8.16927 22.0078 8.19531C21.9036 8.22656 21.7917 8.25781 21.6719 8.28906C21.5521 8.32031 21.4297 8.34896 21.3047 8.375C21.1849 8.39583 21.0703 8.41667 20.9609 8.4375C20.8568 8.45312 20.7682 8.46354 20.6953 8.46875C20.8724 8.59896 21.0208 8.79167 21.1406 9.04688C21.2656 9.29688 21.3281 9.57292 21.3281 9.875C21.3281 10.2083 21.2786 10.5286 21.1797 10.8359C21.0859 11.1432 20.9557 11.4323 20.7891 11.7031C20.6224 11.974 20.4245 12.2214 20.1953 12.4453C19.9714 12.6693 19.7318 12.8594 19.4766 13.0156C19.2214 13.1771 18.9557 13.3021 18.6797 13.3906C18.4036 13.4792 18.1328 13.5234 17.8672 13.5234C17.6797 13.5234 17.4948 13.4766 17.3125 13.3828C17.1354 13.2891 16.9792 13.151 16.8438 12.9688C16.7083 12.7812 16.599 12.5521 16.5156 12.2812C16.4323 12.0052 16.3906 11.6901 16.3906 11.3359C16.3906 11.0234 16.4167 10.6979 16.4688 10.3594C16.526 10.0208 16.599 9.65625 16.6875 9.26562C16.776 8.86979 16.8802 8.4349 17 7.96094C17.1198 7.48698 17.2474 6.95573 17.3828 6.36719C17.3932 6.3099 17.4089 6.23177 17.4297 6.13281C17.4557 6.03385 17.4818 5.93229 17.5078 5.82812C17.5339 5.71875 17.5599 5.61458 17.5859 5.51562C17.6172 5.41146 17.6432 5.33073 17.6641 5.27344C17.6849 5.21094 17.7266 5.14844 17.7891 5.08594C17.8516 5.02344 17.9193 4.96875 17.9922 4.92188C18.0651 4.86979 18.138 4.82812 18.2109 4.79688C18.2891 4.76562 18.3542 4.75 18.4062 4.75C18.4531 4.75 18.5052 4.76562 18.5625 4.79688C18.625 4.82812 18.6823 4.86979 18.7344 4.92188C18.7865 4.97396 18.8307 5.03385 18.8672 5.10156C18.9036 5.16927 18.9219 5.23958 18.9219 5.3125C18.9219 5.45312 18.8854 5.63281 18.8125 5.85156C18.7396 6.07031 18.6589 6.29688 18.5703 6.53125C18.487 6.76042 18.4089 6.98177 18.3359 7.19531C18.2682 7.40365 18.2344 7.56771 18.2344 7.6875C18.2344 7.71875 18.2396 7.75 18.25 7.78125C18.2604 7.80729 18.276 7.82031 18.2969 7.82031C18.5156 7.82031 18.7891 7.8099 19.1172 7.78906C19.4453 7.76823 19.776 7.73958 20.1094 7.70312C20.4479 7.66667 20.7656 7.625 21.0625 7.57812C21.3646 7.53125 21.6016 7.47917 21.7734 7.42188C22.1016 7.31771 22.388 7.1875 22.6328 7.03125C22.8828 6.875 23.0677 6.69792 23.1875 6.5C23.2969 6.31771 23.3854 6.1224 23.4531 5.91406C23.5208 5.70052 23.5781 5.5026 23.625 5.32031C23.6354 5.28385 23.6562 5.24479 23.6875 5.20312C23.724 5.16146 23.7682 5.1224 23.8203 5.08594C23.8724 5.04948 23.9297 5.01823 23.9922 4.99219C24.0599 4.96615 24.1302 4.95312 24.2031 4.95312C24.2552 4.95312 24.3203 4.96354 24.3984 4.98438C24.4766 5.00521 24.5495 5.03385 24.6172 5.07031C24.6849 5.10677 24.7422 5.15104 24.7891 5.20312C24.8411 5.25 24.8672 5.29948 24.8672 5.35156C24.8672 5.42969 24.8516 5.52083 24.8203 5.625C24.7943 5.72396 24.7552 5.84375 24.7031 5.98438C24.6562 6.125 24.6016 6.28906 24.5391 6.47656C24.4766 6.66406 24.4141 6.88281 24.3516 7.13281C24.2786 7.41406 24.2031 7.73438 24.125 8.09375C24.0469 8.44792 23.9766 8.80208 23.9141 9.15625C23.8516 9.51042 23.7995 9.84635 23.7578 10.1641C23.7214 10.4766 23.7031 10.7318 23.7031 10.9297C23.7031 11.362 23.776 11.6693 23.9219 11.8516C24.0729 12.0339 24.2656 12.125 24.5 12.125C24.8802 12.125 25.3125 11.9505 25.7969 11.6016C26.2865 11.2474 26.8464 10.7604 27.4766 10.1406C27.5755 10.0417 27.6693 9.95573 27.7578 9.88281C27.8464 9.8099 27.9349 9.77344 28.0234 9.77344C28.0599 9.77344 28.099 9.80208 28.1406 9.85938C28.1875 9.91146 28.2161 9.97656 28.2266 10.0547ZM18.0391 8.50781C18.0078 8.6276 17.974 8.77083 17.9375 8.9375C17.901 9.09896 17.862 9.27344 17.8203 9.46094C17.7839 9.64323 17.7474 9.83333 17.7109 10.0312C17.6745 10.224 17.6406 10.4089 17.6094 10.5859C17.5833 10.763 17.5599 10.9271 17.5391 11.0781C17.5234 11.224 17.5156 11.3464 17.5156 11.4453C17.5156 11.7995 17.5729 12.0677 17.6875 12.25C17.8073 12.4323 17.974 12.5234 18.1875 12.5234C18.4271 12.5234 18.6719 12.4557 18.9219 12.3203C19.1771 12.1797 19.4089 12 19.6172 11.7812C19.8255 11.5625 19.9948 11.3151 20.125 11.0391C20.2552 10.763 20.3203 10.487 20.3203 10.2109C20.3203 9.94531 20.2891 9.71354 20.2266 9.51562C20.1641 9.31771 20.0833 9.15365 19.9844 9.02344C19.8854 8.88802 19.7734 8.78646 19.6484 8.71875C19.5286 8.65104 19.4089 8.61719 19.2891 8.61719C19.1693 8.61719 19.0469 8.6276 18.9219 8.64844C18.7969 8.66406 18.6901 8.67448 18.6016 8.67969C18.5286 8.67969 18.4714 8.66667 18.4297 8.64062C18.388 8.60938 18.3542 8.57552 18.3281 8.53906C18.3021 8.5026 18.2786 8.47135 18.2578 8.44531C18.237 8.41406 18.2135 8.39844 18.1875 8.39844C18.1458 8.40365 18.112 8.41406 18.0859 8.42969C18.0651 8.4401 18.0495 8.46615 18.0391 8.50781ZM46.8672 11.1562C46.513 11.4219 46.1224 11.6823 45.6953 11.9375C45.2682 12.1875 44.8177 12.4271 44.3438 12.6562C43.8698 12.8802 43.3776 13.0859 42.8672 13.2734C42.362 13.4609 41.8516 13.6224 41.3359 13.7578C40.8255 13.8984 40.3177 14.0052 39.8125 14.0781C39.3125 14.1562 38.8307 14.1953 38.3672 14.1953C37.9245 14.1953 37.5365 14.1484 37.2031 14.0547C36.8698 13.9661 36.5807 13.8438 36.3359 13.6875C36.0911 13.5312 35.8854 13.349 35.7188 13.1406C35.5573 12.9323 35.4271 12.7083 35.3281 12.4688C35.2292 12.2292 35.1589 11.9818 35.1172 11.7266C35.0755 11.4714 35.0547 11.2214 35.0547 10.9766C35.0547 10.6224 35.125 10.2161 35.2656 9.75781C35.4115 9.29427 35.6094 8.80469 35.8594 8.28906C36.1094 7.77344 36.4062 7.2474 36.75 6.71094C37.0938 6.16927 37.4661 5.64583 37.8672 5.14062C38.2682 4.63021 38.6901 4.15104 39.1328 3.70312C39.5755 3.25 40.0208 2.85417 40.4688 2.51562C40.9167 2.17708 41.3594 1.91146 41.7969 1.71875C42.2396 1.52083 42.6589 1.42188 43.0547 1.42188C43.5339 1.42188 43.9271 1.50521 44.2344 1.67188C44.5469 1.83333 44.7917 2.03125 44.9688 2.26562C45.1458 2.49479 45.2682 2.73438 45.3359 2.98438C45.4036 3.23438 45.4375 3.44792 45.4375 3.625C45.4375 3.66667 45.4271 3.7474 45.4062 3.86719C45.3906 3.98698 45.362 4.1276 45.3203 4.28906C45.2786 4.44531 45.224 4.61198 45.1562 4.78906C45.0938 4.96094 45.0156 5.11979 44.9219 5.26562C44.8333 5.41146 44.7266 5.53125 44.6016 5.625C44.4818 5.71875 44.3464 5.76562 44.1953 5.76562C44.1589 5.76562 44.1094 5.74479 44.0469 5.70312C43.9844 5.66146 43.9219 5.60938 43.8594 5.54688C43.7969 5.47917 43.7422 5.40625 43.6953 5.32812C43.6536 5.24479 43.6328 5.16406 43.6328 5.08594C43.6328 5.02865 43.6562 4.96094 43.7031 4.88281C43.75 4.79948 43.7995 4.69792 43.8516 4.57812C43.9089 4.45312 43.9609 4.30729 44.0078 4.14062C44.0547 3.96875 44.0781 3.76823 44.0781 3.53906C44.0781 3.33073 43.9792 3.16406 43.7812 3.03906C43.5885 2.90885 43.3307 2.84375 43.0078 2.84375C42.737 2.84375 42.4349 2.92448 42.1016 3.08594C41.7734 3.2474 41.4297 3.46875 41.0703 3.75C40.7161 4.02604 40.3542 4.35156 39.9844 4.72656C39.6146 5.10156 39.2578 5.50521 38.9141 5.9375C38.5755 6.36458 38.2552 6.80729 37.9531 7.26562C37.651 7.72396 37.388 8.17708 37.1641 8.625C36.9453 9.06771 36.7708 9.49479 36.6406 9.90625C36.5104 10.3177 36.4453 10.6901 36.4453 11.0234C36.4453 11.4714 36.5286 11.8203 36.6953 12.0703C36.8672 12.3203 37.0807 12.5078 37.3359 12.6328C37.5911 12.7526 37.8672 12.8255 38.1641 12.8516C38.4609 12.8776 38.737 12.8906 38.9922 12.8906C39.5234 12.8906 40.0625 12.8333 40.6094 12.7188C41.1562 12.6042 41.6849 12.4609 42.1953 12.2891C42.7057 12.1172 43.1823 11.9323 43.625 11.7344C44.0729 11.5312 44.4635 11.3385 44.7969 11.1562C45.1146 10.9844 45.3776 10.8255 45.5859 10.6797C45.7995 10.5339 45.9844 10.4089 46.1406 10.3047C46.3021 10.2005 46.4531 10.1198 46.5938 10.0625C46.7396 10.0052 46.9036 9.97656 47.0859 9.97656C47.1328 9.97656 47.1667 10.0026 47.1875 10.0547C47.2083 10.1016 47.2188 10.1641 47.2188 10.2422C47.2188 10.3151 47.2083 10.3984 47.1875 10.4922C47.1719 10.5807 47.1484 10.6693 47.1172 10.7578C47.0859 10.8411 47.0495 10.9193 47.0078 10.9922C46.9661 11.0651 46.9193 11.1198 46.8672 11.1562ZM58.4922 7.46875C58.4922 7.61979 58.4479 7.77083 58.3594 7.92188C58.276 8.07292 58.1667 8.21354 58.0312 8.34375C57.9062 8.46354 57.7552 8.58073 57.5781 8.69531C57.401 8.8099 57.2057 8.91146 56.9922 9C56.7839 9.08333 56.5625 9.15104 56.3281 9.20312C56.099 9.25521 55.8646 9.28125 55.625 9.28125C55.349 9.28125 55.1068 9.25521 54.8984 9.20312C54.6901 9.14583 54.513 9.08594 54.3672 9.02344C54.2214 8.96094 54.1042 8.90365 54.0156 8.85156C53.9323 8.79427 53.875 8.76562 53.8438 8.76562C53.776 8.76562 53.7318 8.78385 53.7109 8.82031C53.6901 8.85677 53.6771 8.88802 53.6719 8.91406C53.6562 9.03906 53.6406 9.17969 53.625 9.33594C53.6146 9.48698 53.5859 9.65104 53.5391 9.82812C53.4974 10 53.4323 10.1875 53.3438 10.3906C53.2552 10.5885 53.125 10.7969 52.9531 11.0156C52.8333 11.1771 52.6823 11.3385 52.5 11.5C52.3229 11.6615 52.1276 11.8203 51.9141 11.9766C51.7005 12.1276 51.474 12.2708 51.2344 12.4062C50.9948 12.5417 50.7526 12.6589 50.5078 12.7578C50.2682 12.8568 50.0312 12.9349 49.7969 12.9922C49.5677 13.0495 49.3516 13.0781 49.1484 13.0781C48.7995 13.0781 48.5104 13.0182 48.2812 12.8984C48.0521 12.7786 47.8698 12.6172 47.7344 12.4141C47.6042 12.2109 47.5104 11.974 47.4531 11.7031C47.401 11.4323 47.375 11.1432 47.375 10.8359C47.375 10.5234 47.4089 10.2109 47.4766 9.89844C47.5495 9.58073 47.6432 9.26823 47.7578 8.96094C47.8776 8.65365 48.0104 8.35417 48.1562 8.0625C48.3073 7.76562 48.4583 7.47917 48.6094 7.20312C49 6.48958 49.4427 5.94531 49.9375 5.57031C50.4375 5.1901 50.9635 5 51.5156 5C51.7969 5 52.0781 5.0625 52.3594 5.1875C52.6406 5.3125 52.8724 5.49219 53.0547 5.72656C53.1068 5.78906 53.1641 5.89583 53.2266 6.04688C53.2943 6.19792 53.3568 6.35156 53.4141 6.50781C53.4766 6.66406 53.5312 6.80729 53.5781 6.9375C53.6302 7.06771 53.6667 7.14583 53.6875 7.17188C53.8021 7.31771 53.9349 7.46094 54.0859 7.60156C54.237 7.73698 54.4062 7.85938 54.5938 7.96875C54.7812 8.07812 54.9818 8.16667 55.1953 8.23438C55.4141 8.29688 55.6432 8.32812 55.8828 8.32812C56.1953 8.32812 56.5234 8.2526 56.8672 8.10156C57.2161 7.95052 57.5339 7.74479 57.8203 7.48438C57.9089 7.40625 57.987 7.34115 58.0547 7.28906C58.1224 7.23177 58.1901 7.20312 58.2578 7.20312C58.2839 7.20312 58.3099 7.21354 58.3359 7.23438C58.362 7.25521 58.3854 7.28125 58.4062 7.3125C58.4323 7.33854 58.4531 7.36719 58.4688 7.39844C58.4844 7.42969 58.4922 7.45312 58.4922 7.46875ZM52.3672 7.90625C52.3672 7.69792 52.3516 7.54427 52.3203 7.44531C52.2891 7.34115 52.2474 7.25781 52.1953 7.19531C52.1432 7.13281 52.0833 7.07031 52.0156 7.00781C51.9479 6.94531 51.8776 6.84635 51.8047 6.71094C51.7266 6.5651 51.6562 6.45833 51.5938 6.39062C51.5365 6.32292 51.4349 6.28906 51.2891 6.28906C50.9245 6.28906 50.5755 6.47135 50.2422 6.83594C50.0755 7.01823 49.9167 7.22656 49.7656 7.46094C49.6146 7.6901 49.474 7.94531 49.3438 8.22656C49.2396 8.44531 49.138 8.6849 49.0391 8.94531C48.9401 9.20052 48.8516 9.46094 48.7734 9.72656C48.6953 9.99219 48.6302 10.2552 48.5781 10.5156C48.5312 10.7708 48.5078 11.0104 48.5078 11.2344C48.5078 11.3281 48.5286 11.4193 48.5703 11.5078C48.612 11.5964 48.6745 11.6745 48.7578 11.7422C48.8411 11.8099 48.9401 11.8646 49.0547 11.9062C49.1745 11.9479 49.3125 11.9688 49.4688 11.9688C49.5833 11.9688 49.7266 11.9349 49.8984 11.8672C50.0755 11.7995 50.2552 11.7161 50.4375 11.6172C50.6198 11.5182 50.7891 11.4141 50.9453 11.3047C51.1068 11.1901 51.2318 11.0885 51.3203 11C51.5703 10.7344 51.7656 10.4922 51.9062 10.2734C52.0469 10.0547 52.151 9.83333 52.2188 9.60938C52.2865 9.38021 52.3281 9.13281 52.3438 8.86719C52.3594 8.59635 52.3672 8.27604 52.3672 7.90625ZM67.8047 7.42188C67.8047 7.47396 67.7786 7.54427 67.7266 7.63281C67.6745 7.72135 67.6068 7.81771 67.5234 7.92188C67.4453 8.02604 67.3542 8.13542 67.25 8.25C67.1458 8.36458 67.0417 8.47396 66.9375 8.57812C66.6927 8.82292 66.4167 9.07031 66.1094 9.32031C65.8021 9.57031 65.474 9.81771 65.125 10.0625C64.7812 10.3021 64.4219 10.5391 64.0469 10.7734C63.6719 11.0078 63.2891 11.2344 62.8984 11.4531C62.8984 11.5521 62.8698 11.7057 62.8125 11.9141C62.7552 12.1224 62.6719 12.3568 62.5625 12.6172C62.4531 12.8724 62.3151 13.1406 62.1484 13.4219C61.987 13.7083 61.7969 13.9792 61.5781 14.2344C61.3802 14.4688 61.1589 14.6979 60.9141 14.9219C60.6693 15.1458 60.4089 15.3438 60.1328 15.5156C59.8568 15.6927 59.5651 15.8333 59.2578 15.9375C58.9505 16.0469 58.6328 16.1016 58.3047 16.1016C57.8724 16.1016 57.5469 15.9948 57.3281 15.7812C57.1146 15.5677 57.0078 15.2708 57.0078 14.8906C57.0078 14.7031 57.0339 14.526 57.0859 14.3594C57.138 14.1927 57.2083 14.0339 57.2969 13.8828C57.3854 13.7318 57.4896 13.5885 57.6094 13.4531C57.7292 13.3177 57.8568 13.1901 57.9922 13.0703C58.2474 12.8464 58.513 12.6458 58.7891 12.4688C59.0651 12.2865 59.3516 12.1146 59.6484 11.9531C59.9453 11.7917 60.25 11.6354 60.5625 11.4844C60.8802 11.3281 61.2005 11.1615 61.5234 10.9844C61.5703 10.9583 61.6146 10.9297 61.6562 10.8984C61.6979 10.8672 61.7188 10.8099 61.7188 10.7266C61.7188 10.5599 61.6875 10.3958 61.625 10.2344C61.5625 10.0677 61.4688 9.91927 61.3438 9.78906C61.224 9.65885 61.0729 9.55469 60.8906 9.47656C60.7083 9.39323 60.4974 9.35156 60.2578 9.35156C60.112 9.35156 59.9583 9.36458 59.7969 9.39062C59.6354 9.41667 59.487 9.45312 59.3516 9.5C59.2786 9.52604 59.1953 9.55729 59.1016 9.59375C59.0078 9.625 58.9115 9.65625 58.8125 9.6875C58.7188 9.71875 58.6276 9.74479 58.5391 9.76562C58.4557 9.78646 58.3828 9.79688 58.3203 9.79688C58.2682 9.79688 58.2083 9.79167 58.1406 9.78125C58.0729 9.76562 58.0078 9.74219 57.9453 9.71094C57.8828 9.67448 57.8281 9.6276 57.7812 9.57031C57.7396 9.51302 57.7188 9.4401 57.7188 9.35156C57.7188 9.29427 57.7292 9.23177 57.75 9.16406C57.776 9.09635 57.8151 9.03125 57.8672 8.96875C57.9193 8.90104 57.987 8.84115 58.0703 8.78906C58.1589 8.73698 58.2682 8.69792 58.3984 8.67188C58.5911 8.63542 58.7943 8.57552 59.0078 8.49219C59.2214 8.40885 59.4297 8.3099 59.6328 8.19531C59.8411 8.08073 60.0391 7.95052 60.2266 7.80469C60.4141 7.65885 60.5781 7.5026 60.7188 7.33594C60.8646 7.16406 60.9792 6.98438 61.0625 6.79688C61.1458 6.60938 61.1875 6.41667 61.1875 6.21875C61.1875 5.84896 61.112 5.58854 60.9609 5.4375C60.8151 5.28125 60.6328 5.20312 60.4141 5.20312C60.1172 5.20312 59.8438 5.27344 59.5938 5.41406C59.3438 5.54948 59.0781 5.75 58.7969 6.01562C58.7031 6.10417 58.6224 6.18229 58.5547 6.25C58.4922 6.3125 58.4089 6.34375 58.3047 6.34375C58.2318 6.34375 58.1693 6.32552 58.1172 6.28906C58.0651 6.2526 58.0208 6.20833 57.9844 6.15625C57.9479 6.09896 57.9219 6.03906 57.9062 5.97656C57.8906 5.91406 57.8828 5.85938 57.8828 5.8125C57.8828 5.68229 57.9297 5.54688 58.0234 5.40625C58.1224 5.26562 58.2344 5.14323 58.3594 5.03906C58.5 4.92448 58.6536 4.8125 58.8203 4.70312C58.987 4.59375 59.1667 4.4974 59.3594 4.41406C59.5573 4.33073 59.7656 4.26562 59.9844 4.21875C60.2083 4.16667 60.4453 4.14062 60.6953 4.14062C60.9766 4.14062 61.2214 4.19271 61.4297 4.29688C61.6432 4.40104 61.8203 4.53906 61.9609 4.71094C62.1016 4.88281 62.2057 5.08073 62.2734 5.30469C62.3411 5.52344 62.375 5.75 62.375 5.98438C62.375 6.42188 62.2396 6.85156 61.9688 7.27344C61.6979 7.69531 61.276 8.10938 60.7031 8.51562C61.0365 8.51562 61.3542 8.57812 61.6562 8.70312C61.9635 8.82292 62.2161 9.00781 62.4141 9.25781C62.5234 9.39323 62.625 9.5625 62.7188 9.76562C62.8125 9.96875 62.862 10.1667 62.8672 10.3594C63.5703 9.9375 64.1875 9.54688 64.7188 9.1875C65.25 8.82812 65.737 8.46354 66.1797 8.09375C66.3724 7.93229 66.5417 7.78385 66.6875 7.64844C66.8385 7.50781 66.9688 7.38802 67.0781 7.28906C67.1927 7.1901 67.2917 7.11458 67.375 7.0625C67.4635 7.00521 67.5417 6.97656 67.6094 6.97656C67.6354 6.97656 67.6589 6.99219 67.6797 7.02344C67.7057 7.05469 67.7266 7.09375 67.7422 7.14062C67.763 7.1875 67.7786 7.23698 67.7891 7.28906C67.7995 7.34115 67.8047 7.38542 67.8047 7.42188ZM60.6797 13.7422C60.9141 13.4661 61.1146 13.1693 61.2812 12.8516C61.4479 12.5339 61.5755 12.2318 61.6641 11.9453C60.9036 12.2839 60.2786 12.5938 59.7891 12.875C59.2995 13.1562 58.9141 13.4453 58.6328 13.7422C58.5755 13.8047 58.513 13.8698 58.4453 13.9375C58.3828 14.0104 58.3229 14.0885 58.2656 14.1719C58.2135 14.2552 58.1693 14.3464 58.1328 14.4453C58.0964 14.5495 58.0781 14.6615 58.0781 14.7812C58.0781 14.8125 58.0781 14.849 58.0781 14.8906C58.0833 14.9323 58.0964 14.9688 58.1172 15C58.138 15.0365 58.1667 15.0677 58.2031 15.0938C58.2448 15.1198 58.3047 15.1328 58.3828 15.1328C58.6016 15.1328 58.8151 15.0911 59.0234 15.0078C59.237 14.9297 59.4401 14.8255 59.6328 14.6953C59.8307 14.5651 60.0156 14.4167 60.1875 14.25C60.3646 14.0833 60.5286 13.9141 60.6797 13.7422ZM70.7578 4.73438C70.6484 3.86979 70.4115 3.21875 70.0469 2.78125C69.6875 2.33854 69.2448 2.11719 68.7188 2.11719C68.5625 2.11719 68.3984 2.14062 68.2266 2.1875C68.0599 2.23438 67.8906 2.29688 67.7188 2.375C67.5469 2.45312 67.3776 2.54167 67.2109 2.64062C67.0443 2.73438 66.8828 2.83073 66.7266 2.92969C66.5859 3.01823 66.4792 3.07292 66.4062 3.09375C66.3333 3.11458 66.2604 3.125 66.1875 3.125C66.1146 3.125 66.0469 3.09635 65.9844 3.03906C65.9219 2.98177 65.8906 2.89062 65.8906 2.76562C65.8906 2.70312 65.9062 2.63281 65.9375 2.55469C65.974 2.47135 66.0182 2.38802 66.0703 2.30469C66.1276 2.22135 66.1901 2.14062 66.2578 2.0625C66.3307 1.98438 66.401 1.91927 66.4688 1.86719C66.8646 1.57031 67.2812 1.33854 67.7188 1.17188C68.1615 1 68.5781 0.914062 68.9688 0.914062C69.4688 0.914062 69.9219 1.03646 70.3281 1.28125C70.7344 1.52083 71.0781 1.86458 71.3594 2.3125C71.6458 2.75521 71.8646 3.29427 72.0156 3.92969C72.1719 4.5599 72.25 5.26562 72.25 6.04688C72.25 6.29688 72.237 6.5651 72.2109 6.85156C72.1901 7.13802 72.1615 7.41927 72.125 7.69531C72.0885 7.96615 72.0469 8.22135 72 8.46094C71.9531 8.69531 71.9062 8.89323 71.8594 9.05469C71.7083 9.57552 71.5 10.0677 71.2344 10.5312C70.974 10.9948 70.6693 11.401 70.3203 11.75C69.9766 12.0938 69.5938 12.3672 69.1719 12.5703C68.75 12.7734 68.3047 12.875 67.8359 12.875C67.4922 12.875 67.1849 12.8073 66.9141 12.6719C66.6432 12.5312 66.4141 12.3359 66.2266 12.0859C66.0443 11.8307 65.9036 11.526 65.8047 11.1719C65.7057 10.8125 65.6562 10.4141 65.6562 9.97656C65.6562 9.6224 65.7083 9.26562 65.8125 8.90625C65.9219 8.54167 66.0781 8.1875 66.2812 7.84375C66.4844 7.49479 66.7318 7.16146 67.0234 6.84375C67.3203 6.52604 67.6589 6.23438 68.0391 5.96875C68.4193 5.69792 68.8359 5.45833 69.2891 5.25C69.7422 5.03646 70.2318 4.86458 70.7578 4.73438ZM68.0859 11.7344C68.2943 11.7344 68.5182 11.6693 68.7578 11.5391C68.9974 11.4036 69.2318 11.2083 69.4609 10.9531C69.6901 10.6927 69.9062 10.3724 70.1094 9.99219C70.3125 9.61198 70.4818 9.17708 70.6172 8.6875C70.6536 8.55729 70.6927 8.3724 70.7344 8.13281C70.7812 7.89323 70.8203 7.63281 70.8516 7.35156C70.8828 7.07031 70.9036 6.78906 70.9141 6.50781C70.9245 6.22656 70.9115 5.97917 70.875 5.76562C70.4531 5.88542 70.013 6.06771 69.5547 6.3125C69.1016 6.55729 68.6849 6.86198 68.3047 7.22656C67.9245 7.59115 67.612 8.01302 67.3672 8.49219C67.1224 8.96615 67 9.49479 67 10.0781C67 10.6562 67.0911 11.0781 67.2734 11.3438C67.4609 11.6042 67.7318 11.7344 68.0859 11.7344ZM78.4766 7.09375C78.4766 6.70312 78.4167 6.42188 78.2969 6.25C78.1823 6.07812 78.0495 5.99219 77.8984 5.99219C77.7682 5.99219 77.6354 6.01823 77.5 6.07031C77.3698 6.11719 77.2448 6.17969 77.125 6.25781C77.0052 6.33594 76.8958 6.42188 76.7969 6.51562C76.6979 6.60938 76.6172 6.70052 76.5547 6.78906C76.4297 6.95573 76.2969 7.14583 76.1562 7.35938C76.0208 7.57292 75.8828 7.79688 75.7422 8.03125C75.6068 8.26562 75.4766 8.50521 75.3516 8.75C75.2266 8.99479 75.1146 9.23438 75.0156 9.46875C74.9219 9.69792 74.8464 9.91927 74.7891 10.1328C74.7318 10.3411 74.7031 10.5286 74.7031 10.6953C74.7031 10.9401 74.75 11.138 74.8438 11.2891C74.9375 11.4349 75.1146 11.5078 75.375 11.5078C75.4635 11.5078 75.5938 11.4531 75.7656 11.3438C75.9375 11.2292 76.1198 11.0859 76.3125 10.9141C76.5104 10.7422 76.7031 10.5573 76.8906 10.3594C77.0781 10.1562 77.2318 9.96354 77.3516 9.78125C77.4818 9.58854 77.612 9.3776 77.7422 9.14844C77.8776 8.91927 78 8.6849 78.1094 8.44531C78.2188 8.20573 78.3073 7.97135 78.375 7.74219C78.4427 7.50781 78.4766 7.29167 78.4766 7.09375ZM83.2969 10.0156C83.2969 10.1354 83.2552 10.2786 83.1719 10.4453C83.0938 10.612 82.9688 10.8125 82.7969 11.0469C82.651 11.2448 82.4896 11.4349 82.3125 11.6172C82.1354 11.7995 81.9453 11.9609 81.7422 12.1016C81.5391 12.2422 81.3255 12.3542 81.1016 12.4375C80.8776 12.5208 80.6458 12.5625 80.4062 12.5625C80.0938 12.5625 79.8177 12.4948 79.5781 12.3594C79.3438 12.224 79.1406 12.0391 78.9688 11.8047C78.8021 11.5651 78.6693 11.2891 78.5703 10.9766C78.4714 10.6589 78.4036 10.3203 78.3672 9.96094C78.138 10.2943 77.8646 10.625 77.5469 10.9531C77.2344 11.2812 76.9089 11.5781 76.5703 11.8438C76.237 12.1042 75.9062 12.3177 75.5781 12.4844C75.2552 12.6458 74.9688 12.7266 74.7188 12.7266C74.5521 12.7266 74.3906 12.6849 74.2344 12.6016C74.0833 12.5182 73.9479 12.4062 73.8281 12.2656C73.7135 12.125 73.6224 11.9635 73.5547 11.7812C73.487 11.599 73.4531 11.4062 73.4531 11.2031C73.4531 11 73.4688 10.7865 73.5 10.5625C73.5365 10.3385 73.5938 10.099 73.6719 9.84375C73.7552 9.58333 73.8594 9.30208 73.9844 9C74.1146 8.69792 74.2734 8.36719 74.4609 8.00781C74.6693 7.60156 74.9167 7.21875 75.2031 6.85938C75.4896 6.49479 75.7812 6.17708 76.0781 5.90625C76.375 5.63021 76.6562 5.41406 76.9219 5.25781C77.1927 5.09635 77.4115 5.01562 77.5781 5.01562C77.625 5.01562 77.6771 5.02604 77.7344 5.04688C77.7969 5.06771 77.8594 5.09115 77.9219 5.11719C77.9896 5.13802 78.0521 5.15885 78.1094 5.17969C78.1719 5.19531 78.224 5.20312 78.2656 5.20312C78.3073 5.20312 78.349 5.19531 78.3906 5.17969C78.4323 5.15885 78.474 5.13802 78.5156 5.11719C78.5573 5.09115 78.599 5.06771 78.6406 5.04688C78.6823 5.02604 78.724 5.01562 78.7656 5.01562C78.8281 5.01562 78.8958 5.03646 78.9688 5.07812C79.0417 5.11979 79.112 5.17448 79.1797 5.24219C79.2474 5.30469 79.3073 5.3776 79.3594 5.46094C79.4115 5.54427 79.4479 5.625 79.4688 5.70312C79.4896 5.79688 79.5156 5.86719 79.5469 5.91406C79.5833 5.95573 79.6172 5.99479 79.6484 6.03125C79.6849 6.06771 79.7135 6.11198 79.7344 6.16406C79.7604 6.21094 79.7734 6.28646 79.7734 6.39062C79.7734 6.44271 79.7552 6.55208 79.7188 6.71875C79.6823 6.88542 79.6406 7.08073 79.5938 7.30469C79.5521 7.52344 79.513 7.7526 79.4766 7.99219C79.4401 8.23177 79.4219 8.45052 79.4219 8.64844C79.4219 9.20573 79.4505 9.66406 79.5078 10.0234C79.5703 10.3828 79.6536 10.6667 79.7578 10.875C79.862 11.0833 79.987 11.2292 80.1328 11.3125C80.2786 11.3958 80.4349 11.4375 80.6016 11.4375C80.7422 11.4375 80.8854 11.4115 81.0312 11.3594C81.1771 11.3021 81.3203 11.2266 81.4609 11.1328C81.6068 11.0391 81.7474 10.9297 81.8828 10.8047C82.0234 10.6797 82.1562 10.5495 82.2812 10.4141C82.4531 10.2266 82.6016 10.0755 82.7266 9.96094C82.8516 9.84115 82.9531 9.78125 83.0312 9.78125C83.1042 9.78125 83.1667 9.80469 83.2188 9.85156C83.2708 9.89844 83.2969 9.95312 83.2969 10.0156ZM90.1641 10.0547C90.1641 10.0911 90.1328 10.1562 90.0703 10.25C90.0078 10.3385 89.9427 10.4427 89.875 10.5625C89.651 10.8177 89.4115 11.0755 89.1562 11.3359C88.901 11.5964 88.6328 11.849 88.3516 12.0938C88.0755 12.3333 87.7865 12.5599 87.4844 12.7734C87.1875 12.9818 86.8828 13.1641 86.5703 13.3203C86.2578 13.4766 85.9427 13.599 85.625 13.6875C85.3125 13.776 85 13.8177 84.6875 13.8125C84.25 13.8125 83.875 13.7422 83.5625 13.6016C83.25 13.4609 82.9922 13.2604 82.7891 13C82.5859 12.7448 82.4375 12.4349 82.3438 12.0703C82.2448 11.7005 82.1953 11.2891 82.1953 10.8359C82.1953 10.4609 82.224 10.0755 82.2812 9.67969C82.3333 9.27865 82.4219 8.8776 82.5469 8.47656C82.6771 8.07031 82.8464 7.67188 83.0547 7.28125C83.2682 6.88542 83.5286 6.50521 83.8359 6.14062C84.1328 5.79688 84.4375 5.54427 84.75 5.38281C85.0625 5.22135 85.3672 5.14062 85.6641 5.14062C85.862 5.14062 86.0391 5.17188 86.1953 5.23438C86.3568 5.29167 86.4922 5.3724 86.6016 5.47656C86.7161 5.58073 86.8047 5.70573 86.8672 5.85156C86.9297 5.99219 86.9635 6.14844 86.9688 6.32031C86.9792 6.5651 86.9531 6.80208 86.8906 7.03125C86.8333 7.26042 86.7396 7.48958 86.6094 7.71875C86.4792 7.94271 86.3125 8.17448 86.1094 8.41406C85.9062 8.64844 85.6667 8.89323 85.3906 9.14844C85.2865 9.2474 85.1562 9.36979 85 9.51562C84.8438 9.65625 84.6745 9.80469 84.4922 9.96094C84.3151 10.1172 84.1302 10.2734 83.9375 10.4297C83.7448 10.5859 83.5599 10.7266 83.3828 10.8516C83.3828 11.0651 83.4089 11.2812 83.4609 11.5C83.5182 11.7135 83.6042 11.9089 83.7188 12.0859C83.8385 12.2578 83.9922 12.401 84.1797 12.5156C84.3672 12.625 84.5964 12.6797 84.8672 12.6797C85.2422 12.6797 85.6198 12.6146 86 12.4844C86.3802 12.349 86.7578 12.1641 87.1328 11.9297C87.5078 11.6953 87.8802 11.4167 88.25 11.0938C88.6198 10.7708 88.987 10.4193 89.3516 10.0391C89.3724 10.0182 89.401 9.99479 89.4375 9.96875C89.474 9.9375 89.5156 9.90885 89.5625 9.88281C89.6094 9.85156 89.6562 9.82552 89.7031 9.80469C89.7552 9.78385 89.8047 9.77344 89.8516 9.77344C89.8672 9.77344 89.8906 9.78385 89.9219 9.80469C89.9583 9.82552 89.9948 9.85156 90.0312 9.88281C90.0677 9.90885 90.099 9.9375 90.125 9.96875C90.151 10 90.1641 10.0286 90.1641 10.0547ZM85.8203 6.71875C85.8099 6.55729 85.7682 6.43229 85.6953 6.34375C85.6224 6.25521 85.526 6.21094 85.4062 6.21094C85.1979 6.21094 84.9583 6.34896 84.6875 6.625C84.4219 6.89583 84.1745 7.29167 83.9453 7.8125C83.8411 8.05208 83.7344 8.33594 83.625 8.66406C83.5156 8.99219 83.4427 9.33854 83.4062 9.70312C83.6771 9.5 83.9245 9.28646 84.1484 9.0625C84.3776 8.83854 84.5859 8.63281 84.7734 8.44531C84.8828 8.33594 85 8.20573 85.125 8.05469C85.25 7.89844 85.3646 7.73958 85.4688 7.57812C85.5781 7.41667 85.6641 7.26042 85.7266 7.10938C85.7943 6.95833 85.8255 6.82812 85.8203 6.71875ZM106.289 9.98438C106.289 10.1562 106.247 10.3125 106.164 10.4531C106.086 10.5938 106.01 10.7083 105.938 10.7969C105.646 11.1406 105.354 11.4531 105.062 11.7344C104.771 12.0104 104.49 12.2474 104.219 12.4453C103.948 12.638 103.688 12.7865 103.438 12.8906C103.193 12.9948 102.969 13.0469 102.766 13.0469C102.177 13.0469 101.747 12.8464 101.477 12.4453C101.211 12.0443 101.078 11.4896 101.078 10.7812C101.078 10.5885 101.086 10.3698 101.102 10.125C101.122 9.88021 101.148 9.63021 101.18 9.375C101.211 9.11458 101.247 8.85677 101.289 8.60156C101.331 8.34115 101.378 8.10156 101.43 7.88281C101.362 8.01823 101.289 8.15625 101.211 8.29688C101.138 8.43229 101.055 8.57812 100.961 8.73438C100.867 8.89062 100.76 9.05469 100.641 9.22656C100.521 9.39844 100.385 9.58594 100.234 9.78906C100.031 10.0547 99.8099 10.3359 99.5703 10.6328C99.3307 10.9297 99.0755 11.2005 98.8047 11.4453C98.5339 11.6901 98.2474 11.8932 97.9453 12.0547C97.6432 12.2161 97.3255 12.2969 96.9922 12.2969C96.8464 12.2969 96.6849 12.263 96.5078 12.1953C96.3359 12.1224 96.1719 12.0104 96.0156 11.8594C95.8646 11.7083 95.737 11.5104 95.6328 11.2656C95.5339 11.0208 95.4844 10.724 95.4844 10.375C95.4844 10.2083 95.4948 9.99479 95.5156 9.73438C95.5365 9.46875 95.5625 9.1849 95.5938 8.88281C95.6302 8.58073 95.6719 8.27083 95.7188 7.95312C95.7656 7.63542 95.8151 7.33594 95.8672 7.05469C95.7943 7.1276 95.7135 7.24219 95.625 7.39844C95.5417 7.54948 95.4531 7.72917 95.3594 7.9375C95.2656 8.14062 95.1667 8.36458 95.0625 8.60938C94.9635 8.84896 94.8568 9.09375 94.7422 9.34375C94.6328 9.59375 94.5182 9.84115 94.3984 10.0859C94.2839 10.3255 94.1667 10.5495 94.0469 10.7578C93.6302 11.4609 93.1667 11.9661 92.6562 12.2734C92.1458 12.5755 91.5885 12.7266 90.9844 12.7266C90.7552 12.7266 90.5339 12.6849 90.3203 12.6016C90.1068 12.513 89.9167 12.3828 89.75 12.2109C89.5885 12.0391 89.4583 11.8281 89.3594 11.5781C89.2552 11.3229 89.2031 11.0286 89.2031 10.6953C89.2031 10.6484 89.2083 10.5911 89.2188 10.5234C89.2292 10.4557 89.2422 10.3906 89.2578 10.3281C89.2734 10.2604 89.2943 10.1979 89.3203 10.1406C89.3411 10.0781 89.3646 10.026 89.3906 9.98438C89.4479 9.91146 89.5208 9.84635 89.6094 9.78906C89.6979 9.73177 89.8307 9.70312 90.0078 9.70312C90.2734 9.70312 90.4219 10.013 90.4531 10.6328C90.4583 10.7161 90.4792 10.8151 90.5156 10.9297C90.5521 11.0391 90.6068 11.1432 90.6797 11.2422C90.7578 11.3411 90.8542 11.4245 90.9688 11.4922C91.0833 11.5599 91.2214 11.5938 91.3828 11.5938C91.5703 11.5938 91.7682 11.5469 91.9766 11.4531C92.1849 11.3542 92.3932 11.2057 92.6016 11.0078C92.8151 10.8099 93.0234 10.5599 93.2266 10.2578C93.4297 9.95573 93.6224 9.59635 93.8047 9.17969C93.9505 8.84115 94.099 8.51042 94.25 8.1875C94.4062 7.85938 94.5521 7.55469 94.6875 7.27344C94.8281 6.99219 94.9557 6.74219 95.0703 6.52344C95.1849 6.30469 95.276 6.13542 95.3438 6.01562C95.3594 5.98438 95.3854 5.94271 95.4219 5.89062C95.4583 5.83333 95.5 5.77604 95.5469 5.71875C95.5938 5.65625 95.6406 5.59635 95.6875 5.53906C95.7344 5.47656 95.776 5.42708 95.8125 5.39062C95.8281 5.375 95.8698 5.35156 95.9375 5.32031C96.0052 5.28906 96.0781 5.25781 96.1562 5.22656C96.2344 5.19531 96.3099 5.16667 96.3828 5.14062C96.4557 5.11458 96.5026 5.10156 96.5234 5.10156H96.5391C96.5807 5.10156 96.6328 5.10677 96.6953 5.11719C96.7578 5.1224 96.8177 5.14062 96.875 5.17188C96.9375 5.20312 96.9896 5.25 97.0312 5.3125C97.0729 5.36979 97.0938 5.45052 97.0938 5.55469C97.0938 5.6901 97.0885 5.8099 97.0781 5.91406C97.0677 6.01302 97.0547 6.10938 97.0391 6.20312C97.0234 6.29167 97.0026 6.38542 96.9766 6.48438C96.9557 6.57812 96.9323 6.6849 96.9062 6.80469C96.8698 6.98177 96.8333 7.19792 96.7969 7.45312C96.7656 7.70833 96.737 7.96615 96.7109 8.22656C96.6901 8.48698 96.6719 8.73698 96.6562 8.97656C96.6406 9.21094 96.6328 9.39844 96.6328 9.53906C96.6328 10.0182 96.6875 10.388 96.7969 10.6484C96.9115 10.9036 97.0651 11.0312 97.2578 11.0312C97.3932 11.0312 97.5339 11 97.6797 10.9375C97.8255 10.8698 97.9609 10.7917 98.0859 10.7031C98.2109 10.6146 98.3229 10.526 98.4219 10.4375C98.5208 10.349 98.5911 10.2812 98.6328 10.2344C98.9297 9.92188 99.2135 9.59375 99.4844 9.25C99.7552 8.90625 100.008 8.5625 100.242 8.21875C100.477 7.86979 100.69 7.52865 100.883 7.19531C101.076 6.86198 101.242 6.54688 101.383 6.25C101.419 6.18229 101.464 6.11198 101.516 6.03906C101.568 5.96094 101.628 5.89062 101.695 5.82812C101.763 5.76562 101.833 5.71354 101.906 5.67188C101.984 5.63021 102.065 5.60938 102.148 5.60938C102.185 5.60938 102.24 5.625 102.312 5.65625C102.391 5.6875 102.469 5.72917 102.547 5.78125C102.625 5.82812 102.693 5.88542 102.75 5.95312C102.812 6.01562 102.844 6.08073 102.844 6.14844C102.844 6.3099 102.818 6.48438 102.766 6.67188C102.714 6.85938 102.659 7.07552 102.602 7.32031C102.555 7.51823 102.51 7.73958 102.469 7.98438C102.427 8.22917 102.388 8.48698 102.352 8.75781C102.315 9.02865 102.286 9.30469 102.266 9.58594C102.245 9.86198 102.234 10.1328 102.234 10.3984C102.234 10.8932 102.302 11.2682 102.438 11.5234C102.578 11.7786 102.797 11.9062 103.094 11.9062C103.25 11.9062 103.419 11.8646 103.602 11.7812C103.789 11.6979 103.984 11.5807 104.188 11.4297C104.396 11.2734 104.612 11.0885 104.836 10.875C105.06 10.6615 105.292 10.4219 105.531 10.1562C105.651 10.026 105.76 9.92708 105.859 9.85938C105.964 9.79167 106.036 9.75781 106.078 9.75781C106.135 9.75781 106.185 9.77865 106.227 9.82031C106.268 9.85677 106.289 9.91146 106.289 9.98438ZM114.273 3.79688C114.185 3.78646 114.096 3.77083 114.008 3.75C113.919 3.72917 113.839 3.69531 113.766 3.64844C113.698 3.60156 113.641 3.54167 113.594 3.46875C113.552 3.39583 113.531 3.30208 113.531 3.1875C113.531 2.95312 113.591 2.76302 113.711 2.61719C113.836 2.47135 113.997 2.39323 114.195 2.38281C114.451 2.3724 114.68 2.36458 114.883 2.35938C115.086 2.34896 115.276 2.34115 115.453 2.33594C115.63 2.33073 115.802 2.32552 115.969 2.32031C116.141 2.3099 116.318 2.30208 116.5 2.29688C116.682 2.29167 116.878 2.28906 117.086 2.28906C117.299 2.28385 117.542 2.28125 117.812 2.28125C117.839 2.28125 117.917 2.27865 118.047 2.27344C118.182 2.26823 118.341 2.26042 118.523 2.25C118.711 2.23958 118.911 2.22917 119.125 2.21875C119.339 2.20833 119.544 2.19792 119.742 2.1875C119.94 2.17708 120.117 2.16927 120.273 2.16406C120.435 2.15365 120.549 2.14583 120.617 2.14062C120.732 2.14062 120.867 2.1276 121.023 2.10156C121.18 2.07552 121.341 2.04688 121.508 2.01562C121.674 1.97917 121.839 1.94792 122 1.92188C122.167 1.89583 122.312 1.88281 122.438 1.88281C122.516 1.88281 122.573 1.88802 122.609 1.89844C122.651 1.90885 122.685 1.92188 122.711 1.9375C122.742 1.94792 122.773 1.95833 122.805 1.96875C122.841 1.97917 122.891 1.98438 122.953 1.98438C123.073 1.98438 123.18 1.97396 123.273 1.95312C123.372 1.93229 123.474 1.92188 123.578 1.92188C123.755 1.92188 123.904 1.96615 124.023 2.05469C124.148 2.13802 124.211 2.27865 124.211 2.47656C124.211 2.61198 124.188 2.73177 124.141 2.83594C124.094 2.9401 124.034 3.02865 123.961 3.10156C123.888 3.17448 123.805 3.23177 123.711 3.27344C123.622 3.3151 123.534 3.33854 123.445 3.34375C123.289 3.35417 123.167 3.40625 123.078 3.5C122.99 3.58854 122.924 3.70052 122.883 3.83594C122.789 4.14323 122.703 4.50521 122.625 4.92188C122.547 5.33333 122.474 5.78125 122.406 6.26562C122.344 6.74479 122.286 7.25 122.234 7.78125C122.188 8.3125 122.146 8.84896 122.109 9.39062C122.078 9.93229 122.052 10.4714 122.031 11.0078C122.016 11.5391 122.008 12.0495 122.008 12.5391V12.8203C122.008 12.8828 121.984 12.9453 121.938 13.0078C121.896 13.0703 121.844 13.1276 121.781 13.1797C121.719 13.2318 121.654 13.2734 121.586 13.3047C121.523 13.3411 121.471 13.362 121.43 13.3672C121.206 13.3672 121.036 13.2917 120.922 13.1406C120.807 12.9948 120.724 12.8203 120.672 12.6172C120.625 12.4141 120.599 12.2057 120.594 11.9922C120.589 11.7786 120.586 11.6068 120.586 11.4766C120.586 11.237 120.596 10.9479 120.617 10.6094C120.638 10.2708 120.667 9.90625 120.703 9.51562C120.74 9.11979 120.781 8.71094 120.828 8.28906C120.875 7.86198 120.922 7.44531 120.969 7.03906C121.021 6.6276 121.07 6.23438 121.117 5.85938C121.169 5.48438 121.214 5.15104 121.25 4.85938C121.292 4.56771 121.326 4.32812 121.352 4.14062C121.378 3.95312 121.393 3.84115 121.398 3.80469C121.419 3.67969 121.393 3.59115 121.32 3.53906C121.253 3.48177 121.104 3.44792 120.875 3.4375C120.682 3.43229 120.484 3.42969 120.281 3.42969C120.083 3.42448 119.888 3.42188 119.695 3.42188C119.503 3.41667 119.323 3.41406 119.156 3.41406C118.99 3.41406 118.846 3.41406 118.727 3.41406C118.544 3.41406 118.331 3.41667 118.086 3.42188C117.841 3.42708 117.599 3.44271 117.359 3.46875C117.12 3.48958 116.898 3.52604 116.695 3.57812C116.497 3.625 116.354 3.69271 116.266 3.78125C116.229 3.81771 116.188 3.90365 116.141 4.03906C116.099 4.16927 116.057 4.34375 116.016 4.5625C115.974 4.78125 115.932 5.03906 115.891 5.33594C115.849 5.6276 115.812 5.95312 115.781 6.3125C115.755 6.57812 115.716 6.8724 115.664 7.19531C115.617 7.51302 115.565 7.84375 115.508 8.1875C115.451 8.52604 115.391 8.86719 115.328 9.21094C115.271 9.55469 115.219 9.88542 115.172 10.2031C115.161 10.2917 115.143 10.4193 115.117 10.5859C115.096 10.7526 115.073 10.9349 115.047 11.1328C115.026 11.3307 115.008 11.5312 114.992 11.7344C114.977 11.9323 114.969 12.1042 114.969 12.25C114.969 12.3281 114.974 12.4115 114.984 12.5C114.995 12.5833 115 12.6641 115 12.7422C115 12.8307 114.99 12.9167 114.969 13C114.953 13.0833 114.922 13.1562 114.875 13.2188C114.828 13.2865 114.76 13.3385 114.672 13.375C114.583 13.4167 114.469 13.4401 114.328 13.4453C114.146 13.4453 114 13.4115 113.891 13.3438C113.786 13.2812 113.706 13.2005 113.648 13.1016C113.596 13.0026 113.562 12.8932 113.547 12.7734C113.531 12.6536 113.523 12.5417 113.523 12.4375C113.523 12.3698 113.526 12.2734 113.531 12.1484C113.542 12.0182 113.552 11.8828 113.562 11.7422C113.578 11.5964 113.594 11.4583 113.609 11.3281C113.625 11.1927 113.641 11.0885 113.656 11.0156C113.677 10.9167 113.701 10.7891 113.727 10.6328C113.758 10.4714 113.792 10.2995 113.828 10.1172C113.865 9.9349 113.898 9.7474 113.93 9.55469C113.966 9.35677 113.997 9.17188 114.023 9C114.086 8.59375 114.154 8.1875 114.227 7.78125C114.299 7.36979 114.367 6.96354 114.43 6.5625C114.492 6.16146 114.544 5.76562 114.586 5.375C114.628 4.98438 114.648 4.60677 114.648 4.24219C114.648 4.10156 114.622 3.9974 114.57 3.92969C114.523 3.85677 114.424 3.8125 114.273 3.79688ZM134.156 6.42969C134.156 6.99219 134.091 7.51562 133.961 8C133.831 8.48438 133.643 8.94271 133.398 9.375C133.154 9.80208 132.852 10.2109 132.492 10.6016C132.133 10.987 131.727 11.3698 131.273 11.75C131.102 11.8906 130.906 12.0286 130.688 12.1641C130.474 12.2995 130.25 12.4193 130.016 12.5234C129.781 12.6276 129.544 12.7135 129.305 12.7812C129.07 12.8438 128.849 12.875 128.641 12.875C128.49 12.875 128.359 12.8542 128.25 12.8125C128.146 12.7708 128.049 12.7135 127.961 12.6406C127.878 12.5677 127.797 12.4844 127.719 12.3906C127.646 12.2917 127.568 12.1901 127.484 12.0859C127.349 12.612 127.234 13.0729 127.141 13.4688C127.052 13.8698 126.977 14.2396 126.914 14.5781C126.852 14.9219 126.797 15.2552 126.75 15.5781C126.703 15.9062 126.654 16.263 126.602 16.6484C126.591 16.7318 126.565 16.8281 126.523 16.9375C126.487 17.0521 126.443 17.1589 126.391 17.2578C126.339 17.3568 126.279 17.4401 126.211 17.5078C126.148 17.5807 126.083 17.6172 126.016 17.6172C125.943 17.6172 125.854 17.5938 125.75 17.5469C125.651 17.5052 125.557 17.4505 125.469 17.3828C125.38 17.3203 125.305 17.2552 125.242 17.1875C125.18 17.1198 125.148 17.0625 125.148 17.0156C125.148 16.8333 125.169 16.651 125.211 16.4688C125.258 16.2865 125.297 16.112 125.328 15.9453C125.49 15.1224 125.656 14.3516 125.828 13.6328C126.005 12.9141 126.164 12.2005 126.305 11.4922C126.445 10.7839 126.56 10.0547 126.648 9.30469C126.742 8.54948 126.789 7.72656 126.789 6.83594C126.789 6.8151 126.786 6.76823 126.781 6.69531C126.781 6.61719 126.781 6.53646 126.781 6.45312C126.781 6.36458 126.779 6.28385 126.773 6.21094C126.773 6.13802 126.773 6.08854 126.773 6.0625C126.773 5.89062 126.794 5.72135 126.836 5.55469C126.878 5.38802 126.935 5.23958 127.008 5.10938C127.086 4.97396 127.18 4.86458 127.289 4.78125C127.398 4.69792 127.521 4.65625 127.656 4.65625C127.714 4.65625 127.771 4.6875 127.828 4.75C127.885 4.80729 127.938 4.88802 127.984 4.99219C128.031 5.09115 128.068 5.21094 128.094 5.35156C128.125 5.49219 128.141 5.64323 128.141 5.80469C128.141 6.07552 128.125 6.38542 128.094 6.73438C128.062 7.08333 128.023 7.4375 127.977 7.79688C127.935 8.15104 127.891 8.48958 127.844 8.8125C127.797 9.13542 127.76 9.40625 127.734 9.625C127.938 9.16667 128.172 8.72917 128.438 8.3125C128.708 7.89583 128.99 7.51042 129.281 7.15625C129.573 6.80208 129.87 6.48438 130.172 6.20312C130.479 5.91667 130.773 5.67188 131.055 5.46875C131.336 5.26562 131.599 5.11198 131.844 5.00781C132.089 4.89844 132.297 4.84375 132.469 4.84375C132.703 4.84375 132.922 4.89062 133.125 4.98438C133.333 5.07292 133.513 5.19271 133.664 5.34375C133.82 5.48958 133.94 5.65885 134.023 5.85156C134.112 6.03906 134.156 6.23177 134.156 6.42969ZM132.875 7.15625C132.875 6.92708 132.849 6.74219 132.797 6.60156C132.745 6.46094 132.682 6.35417 132.609 6.28125C132.536 6.20312 132.458 6.15104 132.375 6.125C132.297 6.09896 132.232 6.08594 132.18 6.08594C131.971 6.08594 131.732 6.17969 131.461 6.36719C131.19 6.54948 130.909 6.79167 130.617 7.09375C130.326 7.39062 130.034 7.72917 129.742 8.10938C129.451 8.48958 129.18 8.8724 128.93 9.25781C128.867 9.35677 128.784 9.48958 128.68 9.65625C128.581 9.82292 128.484 9.9974 128.391 10.1797C128.297 10.3568 128.216 10.526 128.148 10.6875C128.081 10.849 128.047 10.9714 128.047 11.0547C128.047 11.1016 128.068 11.1615 128.109 11.2344C128.151 11.3073 128.211 11.3802 128.289 11.4531C128.372 11.5208 128.474 11.5807 128.594 11.6328C128.719 11.6849 128.862 11.7109 129.023 11.7109C129.242 11.7109 129.49 11.6458 129.766 11.5156C130.042 11.3802 130.32 11.2005 130.602 10.9766C130.888 10.7474 131.167 10.4818 131.438 10.1797C131.714 9.8776 131.956 9.5599 132.164 9.22656C132.378 8.88802 132.549 8.54167 132.68 8.1875C132.81 7.83333 132.875 7.48958 132.875 7.15625ZM145.711 7.53125C145.711 7.56771 145.688 7.64062 145.641 7.75C145.599 7.85938 145.544 7.97396 145.477 8.09375C144.888 8.85938 144.299 9.58594 143.711 10.2734C143.128 10.9557 142.555 11.5547 141.992 12.0703C141.43 12.5807 140.883 12.9844 140.352 13.2812C139.826 13.5781 139.326 13.7214 138.852 13.7109C138.414 13.7109 138.036 13.638 137.719 13.4922C137.406 13.3464 137.148 13.1406 136.945 12.875C136.742 12.6094 136.591 12.2917 136.492 11.9219C136.393 11.5469 136.344 11.1328 136.344 10.6797C136.344 10.3151 136.375 9.93229 136.438 9.53125C136.5 9.13021 136.599 8.73177 136.734 8.33594C136.865 7.9401 137.031 7.55469 137.234 7.17969C137.438 6.79948 137.682 6.44792 137.969 6.125C138.083 5.99479 138.214 5.86979 138.359 5.75C138.505 5.625 138.659 5.51302 138.82 5.41406C138.987 5.3151 139.156 5.23438 139.328 5.17188C139.505 5.10938 139.68 5.07292 139.852 5.0625C140.034 5.05729 140.203 5.09115 140.359 5.16406C140.516 5.23177 140.651 5.32552 140.766 5.44531C140.88 5.5651 140.971 5.70573 141.039 5.86719C141.107 6.02865 141.143 6.19531 141.148 6.36719C141.169 6.78906 141.047 7.22917 140.781 7.6875C140.521 8.14062 140.104 8.63542 139.531 9.17188C139.427 9.27083 139.297 9.39062 139.141 9.53125C138.984 9.67188 138.815 9.82031 138.633 9.97656C138.456 10.1276 138.271 10.2812 138.078 10.4375C137.891 10.5885 137.708 10.7266 137.531 10.8516C137.531 11.0651 137.56 11.2734 137.617 11.4766C137.674 11.6797 137.763 11.8646 137.883 12.0312C138.008 12.1927 138.164 12.3229 138.352 12.4219C138.544 12.5208 138.776 12.5703 139.047 12.5703C139.328 12.5703 139.622 12.5052 139.93 12.375C140.237 12.2396 140.552 12.0573 140.875 11.8281C141.203 11.5938 141.534 11.3203 141.867 11.0078C142.206 10.6901 142.547 10.3516 142.891 9.99219C143.234 9.6276 143.578 9.2474 143.922 8.85156C144.271 8.45573 144.615 8.0599 144.953 7.66406C144.974 7.64323 145.003 7.61458 145.039 7.57812C145.076 7.54167 145.115 7.50521 145.156 7.46875C145.203 7.42708 145.25 7.39323 145.297 7.36719C145.349 7.33594 145.398 7.32031 145.445 7.32031C145.461 7.32031 145.482 7.32812 145.508 7.34375C145.539 7.35417 145.57 7.36979 145.602 7.39062C145.633 7.40625 145.659 7.42708 145.68 7.45312C145.701 7.47917 145.711 7.50521 145.711 7.53125ZM139.984 6.76562C139.974 6.60417 139.938 6.47396 139.875 6.375C139.818 6.27604 139.729 6.22917 139.609 6.23438C139.333 6.25 139.057 6.40365 138.781 6.69531C138.505 6.98698 138.25 7.42448 138.016 8.00781C137.969 8.1276 137.922 8.26302 137.875 8.41406C137.828 8.5599 137.784 8.70833 137.742 8.85938C137.706 9.01042 137.669 9.16146 137.633 9.3125C137.602 9.45833 137.576 9.58854 137.555 9.70312C137.826 9.5 138.068 9.28906 138.281 9.07031C138.495 8.85156 138.695 8.64844 138.883 8.46094C139.029 8.3151 139.169 8.16927 139.305 8.02344C139.44 7.8724 139.557 7.72656 139.656 7.58594C139.76 7.4401 139.841 7.29948 139.898 7.16406C139.961 7.02344 139.99 6.89062 139.984 6.76562ZM156.344 7.84375C156.344 7.89062 156.315 7.96615 156.258 8.07031C156.206 8.17448 156.133 8.29688 156.039 8.4375C155.945 8.57812 155.836 8.73177 155.711 8.89844C155.586 9.0651 155.453 9.23698 155.312 9.41406C154.745 10.1276 154.214 10.7292 153.719 11.2188C153.224 11.7031 152.763 12.0938 152.336 12.3906C151.909 12.6875 151.513 12.901 151.148 13.0312C150.784 13.1615 150.445 13.2266 150.133 13.2266C149.867 13.2266 149.612 13.1875 149.367 13.1094C149.122 13.0312 148.896 12.9089 148.688 12.7422C148.484 12.5755 148.307 12.362 148.156 12.1016C148.005 11.8411 147.891 11.5286 147.812 11.1641C147.766 10.9453 147.708 10.7656 147.641 10.625C147.573 10.4792 147.503 10.3646 147.43 10.2812C147.357 10.1927 147.281 10.1302 147.203 10.0938C147.13 10.0573 147.06 10.0391 146.992 10.0391C146.841 10.0391 146.695 10.0859 146.555 10.1797C146.419 10.2734 146.302 10.401 146.203 10.5625C146.161 10.6302 146.12 10.7396 146.078 10.8906C146.042 11.0417 146 11.2161 145.953 11.4141C145.911 11.612 145.865 11.8229 145.812 12.0469C145.766 12.2708 145.714 12.487 145.656 12.6953C145.609 12.8776 145.547 13.0182 145.469 13.1172C145.391 13.2161 145.307 13.2891 145.219 13.3359C145.135 13.3828 145.052 13.4115 144.969 13.4219C144.885 13.4323 144.81 13.4375 144.742 13.4375C144.664 13.4375 144.596 13.4167 144.539 13.375C144.487 13.3385 144.443 13.2891 144.406 13.2266C144.37 13.1693 144.341 13.1042 144.32 13.0312C144.305 12.9583 144.297 12.8854 144.297 12.8125C144.297 12.7031 144.315 12.5781 144.352 12.4375C144.393 12.2917 144.445 12.112 144.508 11.8984C144.57 11.6797 144.643 11.4141 144.727 11.1016C144.81 10.7839 144.896 10.3958 144.984 9.9375C145.036 9.66146 145.083 9.35677 145.125 9.02344C145.167 8.6849 145.201 8.33854 145.227 7.98438C145.253 7.625 145.271 7.26823 145.281 6.91406C145.297 6.5599 145.305 6.22656 145.305 5.91406C145.305 5.8151 145.326 5.72135 145.367 5.63281C145.414 5.54427 145.471 5.46615 145.539 5.39844C145.607 5.33073 145.68 5.27865 145.758 5.24219C145.836 5.20052 145.909 5.17969 145.977 5.17969C146.065 5.17969 146.151 5.20052 146.234 5.24219C146.318 5.27865 146.391 5.34375 146.453 5.4375C146.516 5.52604 146.565 5.64583 146.602 5.79688C146.643 5.94792 146.664 6.13542 146.664 6.35938C146.664 6.64062 146.656 6.90365 146.641 7.14844C146.625 7.39323 146.604 7.6276 146.578 7.85156C146.552 8.07552 146.521 8.29688 146.484 8.51562C146.453 8.73438 146.417 8.95833 146.375 9.1875C146.719 9.15104 147.034 9.07552 147.32 8.96094C147.607 8.84635 147.891 8.6901 148.172 8.49219C148.365 8.35156 148.56 8.1849 148.758 7.99219C148.956 7.79427 149.141 7.58854 149.312 7.375C149.49 7.16146 149.648 6.95052 149.789 6.74219C149.93 6.53385 150.039 6.34635 150.117 6.17969C150.169 6.07552 150.224 5.97135 150.281 5.86719C150.339 5.75781 150.401 5.66146 150.469 5.57812C150.542 5.48958 150.62 5.41927 150.703 5.36719C150.792 5.3099 150.891 5.28125 151 5.28125C151.089 5.28125 151.185 5.29688 151.289 5.32812C151.393 5.35938 151.49 5.40625 151.578 5.46875C151.672 5.52604 151.747 5.59635 151.805 5.67969C151.867 5.75781 151.898 5.84635 151.898 5.94531C151.898 6.03385 151.865 6.14323 151.797 6.27344C151.734 6.39844 151.633 6.4974 151.492 6.57031C151.352 6.64323 151.19 6.79427 151.008 7.02344C150.831 7.2526 150.617 7.54688 150.367 7.90625C150.148 8.21875 149.898 8.5026 149.617 8.75781C149.341 9.01302 148.984 9.26302 148.547 9.50781C148.646 9.59635 148.729 9.72396 148.797 9.89062C148.865 10.0521 148.93 10.2292 148.992 10.4219C149.06 10.6146 149.13 10.8099 149.203 11.0078C149.281 11.2057 149.372 11.3854 149.477 11.5469C149.586 11.7083 149.719 11.8411 149.875 11.9453C150.031 12.0495 150.224 12.1016 150.453 12.1016C150.688 12.1016 150.927 12.0599 151.172 11.9766C151.422 11.888 151.674 11.7656 151.93 11.6094C152.19 11.4531 152.451 11.2656 152.711 11.0469C152.971 10.8281 153.232 10.5859 153.492 10.3203C153.685 10.1224 153.888 9.90625 154.102 9.67188C154.315 9.43229 154.518 9.20312 154.711 8.98438C154.909 8.76042 155.086 8.55469 155.242 8.36719C155.398 8.17969 155.513 8.03906 155.586 7.94531C155.716 7.76823 155.823 7.65104 155.906 7.59375C155.99 7.53646 156.068 7.50781 156.141 7.50781C156.219 7.50781 156.271 7.54688 156.297 7.625C156.328 7.69792 156.344 7.77083 156.344 7.84375ZM167.219 7.07812C167.219 7.15625 167.19 7.2474 167.133 7.35156C167.081 7.45052 167.013 7.55208 166.93 7.65625C166.846 7.76042 166.755 7.86458 166.656 7.96875C166.562 8.06771 166.477 8.15365 166.398 8.22656C166.128 8.47135 165.805 8.73438 165.43 9.01562C165.06 9.29688 164.643 9.58333 164.18 9.875C163.721 10.1615 163.221 10.4505 162.68 10.7422C162.143 11.0339 161.573 11.3151 160.969 11.5859C160.917 11.612 160.828 11.6641 160.703 11.7422C160.583 11.8203 160.443 11.9141 160.281 12.0234C160.12 12.1328 159.948 12.2474 159.766 12.3672C159.583 12.4818 159.409 12.5885 159.242 12.6875C159.081 12.7865 158.935 12.8698 158.805 12.9375C158.68 13 158.589 13.0312 158.531 13.0312C158.427 13.0312 158.323 13.0182 158.219 12.9922C158.115 12.9609 158.018 12.9219 157.93 12.875C157.846 12.8281 157.779 12.776 157.727 12.7188C157.674 12.6562 157.648 12.5938 157.648 12.5312C157.648 12.3802 157.695 12.2474 157.789 12.1328C157.883 12.0182 158.013 11.9167 158.18 11.8281C158.393 11.7188 158.57 11.625 158.711 11.5469C158.852 11.4688 158.974 11.3958 159.078 11.3281C159.188 11.2604 159.286 11.1875 159.375 11.1094C159.469 11.0312 159.57 10.9375 159.68 10.8281C159.799 10.7031 159.927 10.5495 160.062 10.3672C160.198 10.1849 160.331 9.98438 160.461 9.76562C160.591 9.54688 160.714 9.31771 160.828 9.07812C160.948 8.83854 161.052 8.60156 161.141 8.36719C161.234 8.13281 161.307 7.90625 161.359 7.6875C161.411 7.46875 161.438 7.27083 161.438 7.09375C161.438 6.98958 161.424 6.88542 161.398 6.78125C161.378 6.67188 161.344 6.57292 161.297 6.48438C161.255 6.39583 161.198 6.32292 161.125 6.26562C161.057 6.20833 160.977 6.17969 160.883 6.17969C160.737 6.17969 160.586 6.21875 160.43 6.29688C160.273 6.36979 160.12 6.46354 159.969 6.57812C159.823 6.6875 159.682 6.80729 159.547 6.9375C159.417 7.0625 159.302 7.17708 159.203 7.28125C158.911 7.58854 158.648 7.89323 158.414 8.19531C158.18 8.4974 157.966 8.79948 157.773 9.10156C157.581 9.39844 157.404 9.69531 157.242 9.99219C157.081 10.2891 156.93 10.5833 156.789 10.875C156.763 11.1146 156.737 11.3828 156.711 11.6797C156.685 11.9714 156.656 12.2943 156.625 12.6484C156.594 13.0026 156.57 13.3333 156.555 13.6406C156.539 13.9531 156.523 14.2474 156.508 14.5234C156.492 14.7995 156.474 15.0625 156.453 15.3125C156.432 15.5625 156.398 15.8021 156.352 16.0312C156.315 16.1302 156.276 16.2292 156.234 16.3281C156.193 16.4323 156.141 16.526 156.078 16.6094C156.021 16.6979 155.951 16.7682 155.867 16.8203C155.789 16.8776 155.69 16.9062 155.57 16.9062C155.513 16.9062 155.448 16.8906 155.375 16.8594C155.302 16.8281 155.232 16.7839 155.164 16.7266C155.102 16.6745 155.047 16.6146 155 16.5469C154.958 16.4792 154.938 16.4062 154.938 16.3281C154.938 16.1562 154.951 15.9427 154.977 15.6875C155.003 15.4375 155.031 15.1849 155.062 14.9297C155.099 14.6745 155.133 14.4427 155.164 14.2344C155.201 14.026 155.224 13.8802 155.234 13.7969C155.307 13.2604 155.367 12.6823 155.414 12.0625C155.461 11.4375 155.503 10.7578 155.539 10.0234C155.549 9.8099 155.557 9.49479 155.562 9.07812C155.573 8.65104 155.581 8.28385 155.586 7.97656C155.596 7.66406 155.609 7.40365 155.625 7.19531C155.661 6.69531 155.74 6.32292 155.859 6.07812C155.979 5.82812 156.154 5.70312 156.383 5.70312C156.56 5.70312 156.716 5.78125 156.852 5.9375C156.987 6.09896 157.055 6.26562 157.055 6.4375C157.055 6.61979 157.034 6.82031 156.992 7.03906C156.956 7.25781 156.914 7.48177 156.867 7.71094C156.826 7.9401 156.784 8.16667 156.742 8.39062C156.706 8.60938 156.688 8.80729 156.688 8.98438C156.688 9.13542 156.703 9.21094 156.734 9.21094C157.099 8.55469 157.477 7.95573 157.867 7.41406C158.258 6.8724 158.628 6.4375 158.977 6.10938C159.133 5.96875 159.299 5.82812 159.477 5.6875C159.654 5.54688 159.836 5.41927 160.023 5.30469C160.211 5.1901 160.398 5.09896 160.586 5.03125C160.779 4.95833 160.966 4.92188 161.148 4.92188C161.341 4.91667 161.529 4.95833 161.711 5.04688C161.893 5.13021 162.055 5.24219 162.195 5.38281C162.336 5.52344 162.448 5.68229 162.531 5.85938C162.615 6.03646 162.656 6.21094 162.656 6.38281C162.656 6.55469 162.638 6.75521 162.602 6.98438C162.57 7.20833 162.521 7.44792 162.453 7.70312C162.385 7.95312 162.305 8.20833 162.211 8.46875C162.117 8.72917 162.013 8.97917 161.898 9.21875C161.789 9.45833 161.669 9.67969 161.539 9.88281C161.414 10.0807 161.284 10.2474 161.148 10.3828C162.143 9.96094 163.044 9.49479 163.852 8.98438C164.664 8.47396 165.411 7.92708 166.094 7.34375C166.339 7.13542 166.536 6.96094 166.688 6.82031C166.839 6.67969 166.958 6.60938 167.047 6.60938C167.083 6.60938 167.112 6.6276 167.133 6.66406C167.154 6.69531 167.169 6.73698 167.18 6.78906C167.195 6.83594 167.206 6.88802 167.211 6.94531C167.216 6.9974 167.219 7.04167 167.219 7.07812ZM170.008 6.78125C170.008 6.72917 169.987 6.67188 169.945 6.60938C169.909 6.54167 169.859 6.47917 169.797 6.42188C169.74 6.35938 169.674 6.30729 169.602 6.26562C169.529 6.22396 169.461 6.20312 169.398 6.20312C169.237 6.20312 169.086 6.22917 168.945 6.28125C168.81 6.33333 168.682 6.40104 168.562 6.48438C168.443 6.5625 168.331 6.65365 168.227 6.75781C168.128 6.86198 168.039 6.96615 167.961 7.07031C167.773 7.3099 167.581 7.60417 167.383 7.95312C167.19 8.29688 167.013 8.65885 166.852 9.03906C166.695 9.41927 166.565 9.79427 166.461 10.1641C166.362 10.5339 166.312 10.862 166.312 11.1484C166.312 11.2943 166.378 11.4193 166.508 11.5234C166.638 11.6276 166.812 11.6797 167.031 11.6797C167.156 11.6797 167.305 11.625 167.477 11.5156C167.654 11.401 167.836 11.2526 168.023 11.0703C168.216 10.8828 168.404 10.6719 168.586 10.4375C168.773 10.2031 168.938 9.96094 169.078 9.71094C169.344 9.24219 169.565 8.77083 169.742 8.29688C169.919 7.81771 170.008 7.3125 170.008 6.78125ZM177 7.98438C176.984 8.03125 176.922 8.13802 176.812 8.30469C176.703 8.46615 176.549 8.66667 176.352 8.90625C176.154 9.14583 175.914 9.41146 175.633 9.70312C175.357 9.98958 175.047 10.2786 174.703 10.5703C174.297 10.9089 173.935 11.1901 173.617 11.4141C173.305 11.6328 173.021 11.8073 172.766 11.9375C172.516 12.0625 172.289 12.151 172.086 12.2031C171.888 12.25 171.703 12.2734 171.531 12.2734C171.302 12.2734 171.094 12.237 170.906 12.1641C170.724 12.0859 170.565 11.9635 170.43 11.7969C170.294 11.6302 170.18 11.4167 170.086 11.1562C169.992 10.8906 169.919 10.5703 169.867 10.1953H169.789C169.57 10.5286 169.331 10.8594 169.07 11.1875C168.815 11.5104 168.547 11.8021 168.266 12.0625C167.99 12.3177 167.703 12.526 167.406 12.6875C167.115 12.849 166.826 12.9297 166.539 12.9297C166.388 12.9297 166.229 12.9036 166.062 12.8516C165.896 12.7943 165.742 12.7057 165.602 12.5859C165.461 12.4661 165.344 12.3151 165.25 12.1328C165.156 11.9453 165.109 11.7214 165.109 11.4609C165.109 11.2318 165.138 10.9714 165.195 10.6797C165.253 10.3828 165.331 10.0755 165.43 9.75781C165.529 9.4349 165.641 9.11198 165.766 8.78906C165.896 8.46094 166.031 8.15104 166.172 7.85938C166.318 7.56771 166.464 7.30469 166.609 7.07031C166.755 6.83594 166.896 6.64583 167.031 6.5C167.188 6.33333 167.37 6.16406 167.578 5.99219C167.792 5.82031 168.026 5.66406 168.281 5.52344C168.536 5.38281 168.81 5.26823 169.102 5.17969C169.393 5.08594 169.701 5.03906 170.023 5.03906C170.284 5.03906 170.479 5.125 170.609 5.29688C170.74 5.46354 170.831 5.71875 170.883 6.0625C170.888 6.09375 170.906 6.13021 170.938 6.17188C170.974 6.21354 171.01 6.26042 171.047 6.3125C171.089 6.36458 171.125 6.41927 171.156 6.47656C171.188 6.52865 171.203 6.58333 171.203 6.64062C171.203 6.72396 171.185 6.82812 171.148 6.95312C171.112 7.07292 171.07 7.21094 171.023 7.36719C170.982 7.51823 170.943 7.6849 170.906 7.86719C170.87 8.04427 170.852 8.23177 170.852 8.42969C170.852 8.70052 170.854 8.98958 170.859 9.29688C170.865 9.60417 170.893 9.88802 170.945 10.1484C171.003 10.4036 171.094 10.6172 171.219 10.7891C171.349 10.9609 171.536 11.0469 171.781 11.0469C172.031 11.0469 172.37 10.9297 172.797 10.6953C173.224 10.4609 173.698 10.1328 174.219 9.71094C174.552 9.4401 174.867 9.16927 175.164 8.89844C175.461 8.6276 175.727 8.38542 175.961 8.17188C176.195 7.95833 176.396 7.78385 176.562 7.64844C176.729 7.51302 176.849 7.44531 176.922 7.44531C177.01 7.44531 177.065 7.46094 177.086 7.49219C177.107 7.51823 177.117 7.56771 177.117 7.64062C177.117 7.65104 177.112 7.67448 177.102 7.71094C177.091 7.74219 177.081 7.77604 177.07 7.8125C177.06 7.84896 177.047 7.88281 177.031 7.91406C177.016 7.94531 177.005 7.96875 177 7.98438ZM185.984 7.15625C185.984 7.25 185.958 7.35938 185.906 7.48438C185.859 7.60417 185.807 7.70573 185.75 7.78906C185.573 8.05469 185.339 8.35938 185.047 8.70312C184.755 9.04167 184.438 9.38542 184.094 9.73438C183.755 10.0781 183.409 10.4089 183.055 10.7266C182.706 11.0443 182.383 11.3099 182.086 11.5234C181.695 11.8099 181.323 12.0495 180.969 12.2422C180.62 12.4349 180.281 12.5911 179.953 12.7109C179.625 12.8255 179.299 12.9089 178.977 12.9609C178.659 13.0078 178.333 13.0312 178 13.0312C177.651 13.0312 177.339 12.9661 177.062 12.8359C176.786 12.7005 176.552 12.5182 176.359 12.2891C176.172 12.0599 176.029 11.7943 175.93 11.4922C175.831 11.1849 175.781 10.862 175.781 10.5234C175.781 10.1693 175.826 9.79688 175.914 9.40625C176.003 9.01562 176.125 8.6224 176.281 8.22656C176.443 7.83073 176.635 7.44531 176.859 7.07031C177.083 6.6901 177.331 6.33594 177.602 6.00781C177.711 5.8776 177.841 5.73958 177.992 5.59375C178.148 5.44271 178.312 5.30469 178.484 5.17969C178.661 5.05469 178.844 4.95312 179.031 4.875C179.224 4.79167 179.411 4.75 179.594 4.75C179.719 4.75 179.839 4.78906 179.953 4.86719C180.068 4.9401 180.174 5.03646 180.273 5.15625C180.372 5.27604 180.464 5.41146 180.547 5.5625C180.63 5.70833 180.701 5.85938 180.758 6.01562C180.815 6.16667 180.859 6.3125 180.891 6.45312C180.922 6.59375 180.938 6.71354 180.938 6.8125C180.938 6.96354 180.891 7.15885 180.797 7.39844C180.703 7.63802 180.591 7.75781 180.461 7.75781C180.273 7.75781 180.117 7.63021 179.992 7.375C179.945 7.27604 179.904 7.16146 179.867 7.03125C179.836 6.90104 179.797 6.77344 179.75 6.64844C179.708 6.52344 179.651 6.40885 179.578 6.30469C179.505 6.19531 179.404 6.11458 179.273 6.0625C179.143 6.09375 179.01 6.16146 178.875 6.26562C178.745 6.36979 178.615 6.4974 178.484 6.64844C178.359 6.79948 178.234 6.97135 178.109 7.16406C177.99 7.35156 177.875 7.54688 177.766 7.75C177.661 7.9375 177.56 8.15365 177.461 8.39844C177.362 8.63802 177.273 8.88802 177.195 9.14844C177.117 9.40365 177.055 9.65885 177.008 9.91406C176.961 10.1693 176.938 10.4036 176.938 10.6172C176.938 10.7682 176.974 10.9219 177.047 11.0781C177.12 11.2292 177.214 11.3672 177.328 11.4922C177.448 11.6172 177.581 11.7188 177.727 11.7969C177.878 11.875 178.031 11.9141 178.188 11.9141C178.724 11.9141 179.268 11.8021 179.82 11.5781C180.378 11.3542 180.938 11.0469 181.5 10.6562C182.068 10.2656 182.641 9.80729 183.219 9.28125C183.797 8.75 184.375 8.17969 184.953 7.57031C185.13 7.38802 185.289 7.22917 185.43 7.09375C185.57 6.95312 185.703 6.88281 185.828 6.88281C185.865 6.88281 185.898 6.91146 185.93 6.96875C185.966 7.02083 185.984 7.08333 185.984 7.15625ZM189.68 9.0625C189.529 9.16146 189.318 9.26042 189.047 9.35938C188.781 9.45833 188.487 9.54948 188.164 9.63281C187.841 9.71615 187.505 9.78646 187.156 9.84375C186.807 9.90104 186.477 9.9401 186.164 9.96094C186.143 10.0182 186.125 10.1172 186.109 10.2578C186.094 10.3932 186.081 10.5547 186.07 10.7422C186.06 10.9245 186.049 11.1198 186.039 11.3281C186.034 11.5365 186.029 11.737 186.023 11.9297C186.018 12.1172 186.013 12.2865 186.008 12.4375C186.008 12.5885 186.008 12.6979 186.008 12.7656C186.008 12.8438 185.984 12.9219 185.938 13C185.896 13.0833 185.841 13.1562 185.773 13.2188C185.706 13.2812 185.63 13.3333 185.547 13.375C185.464 13.4167 185.38 13.4375 185.297 13.4375C185.188 13.4375 185.094 13.4167 185.016 13.375C184.938 13.3385 184.87 13.2943 184.812 13.2422C184.76 13.1901 184.721 13.138 184.695 13.0859C184.669 13.0339 184.656 12.9948 184.656 12.9688C184.646 12.8594 184.648 12.7161 184.664 12.5391C184.685 12.3568 184.711 12.1589 184.742 11.9453C184.773 11.7318 184.807 11.5078 184.844 11.2734C184.885 11.0339 184.922 10.7995 184.953 10.5703C184.99 10.3307 185.018 10.0651 185.039 9.77344C185.065 9.47656 185.086 9.17188 185.102 8.85938C185.117 8.54688 185.128 8.23698 185.133 7.92969C185.143 7.61719 185.148 7.32292 185.148 7.04688C185.154 6.77083 185.156 6.52344 185.156 6.30469C185.156 6.08073 185.156 5.90104 185.156 5.76562C185.156 5.52083 185.208 5.3125 185.312 5.14062C185.417 4.96875 185.591 4.88281 185.836 4.88281C185.904 4.88281 185.977 4.90365 186.055 4.94531C186.138 4.98698 186.214 5.03906 186.281 5.10156C186.349 5.15885 186.406 5.22396 186.453 5.29688C186.5 5.36458 186.523 5.42969 186.523 5.49219C186.523 5.7526 186.508 6.02604 186.477 6.3125C186.451 6.59896 186.419 6.8776 186.383 7.14844C186.346 7.41406 186.312 7.66146 186.281 7.89062C186.255 8.11458 186.242 8.29688 186.242 8.4375C186.242 8.58333 186.323 8.6901 186.484 8.75781C186.646 8.82552 186.849 8.85938 187.094 8.85938C187.286 8.85938 187.5 8.84375 187.734 8.8125C187.969 8.77604 188.195 8.72917 188.414 8.67188C188.633 8.61458 188.833 8.54427 189.016 8.46094C189.203 8.3776 189.349 8.28385 189.453 8.17969C189.542 8.09115 189.622 7.97917 189.695 7.84375C189.773 7.70833 189.828 7.57031 189.859 7.42969C189.901 7.25781 189.935 7.0599 189.961 6.83594C189.987 6.61198 190.021 6.38542 190.062 6.15625C190.12 5.80729 190.234 5.52865 190.406 5.32031C190.583 5.11198 190.789 5.00781 191.023 5.00781C191.227 5.00781 191.383 5.07292 191.492 5.20312C191.602 5.33333 191.656 5.48698 191.656 5.66406C191.656 5.72135 191.633 5.83333 191.586 6C191.544 6.16146 191.49 6.34635 191.422 6.55469C191.359 6.76302 191.292 6.97396 191.219 7.1875C191.151 7.40104 191.091 7.58333 191.039 7.73438C191.003 7.84375 190.964 8.00521 190.922 8.21875C190.88 8.42708 190.841 8.65625 190.805 8.90625C190.773 9.15104 190.745 9.39583 190.719 9.64062C190.698 9.88542 190.688 10.0938 190.688 10.2656C190.688 10.7969 190.75 11.1745 190.875 11.3984C191.005 11.6224 191.201 11.7344 191.461 11.7344C191.648 11.7344 191.852 11.6979 192.07 11.625C192.294 11.5521 192.542 11.4297 192.812 11.2578C193.089 11.0807 193.393 10.849 193.727 10.5625C194.06 10.276 194.438 9.92188 194.859 9.5C195.062 9.29688 195.26 9.09115 195.453 8.88281C195.646 8.67448 195.826 8.47656 195.992 8.28906C196.164 8.10156 196.318 7.92969 196.453 7.77344C196.589 7.61198 196.701 7.47917 196.789 7.375C196.846 7.30729 196.909 7.23698 196.977 7.16406C197.049 7.09115 197.117 7.05469 197.18 7.05469C197.268 7.05469 197.344 7.07031 197.406 7.10156C197.474 7.1276 197.508 7.19271 197.508 7.29688C197.508 7.40625 197.451 7.55208 197.336 7.73438C197.221 7.91667 197.081 8.1224 196.914 8.35156C196.862 8.42448 196.779 8.53125 196.664 8.67188C196.549 8.8125 196.414 8.97396 196.258 9.15625C196.107 9.33854 195.94 9.53385 195.758 9.74219C195.576 9.94531 195.391 10.1458 195.203 10.3438C195.021 10.5417 194.841 10.7318 194.664 10.9141C194.492 11.0911 194.333 11.2448 194.188 11.375C193.661 11.8438 193.141 12.2188 192.625 12.5C192.115 12.7812 191.594 12.9219 191.062 12.9219C190.594 12.9219 190.227 12.7396 189.961 12.375C189.695 12.0104 189.562 11.487 189.562 10.8047C189.562 10.6589 189.565 10.5052 189.57 10.3438C189.581 10.1823 189.591 10.026 189.602 9.875C189.612 9.71875 189.622 9.57031 189.633 9.42969C189.648 9.28906 189.664 9.16667 189.68 9.0625ZM202.719 7.78125C202.719 7.94792 202.711 8.10677 202.695 8.25781C202.68 8.40885 202.656 8.55469 202.625 8.69531C202.594 8.83594 202.552 8.97917 202.5 9.125C202.448 9.26562 202.385 9.41146 202.312 9.5625C202.24 9.72396 202.107 9.91667 201.914 10.1406C201.721 10.3646 201.49 10.5964 201.219 10.8359C200.953 11.0755 200.659 11.3125 200.336 11.5469C200.018 11.7812 199.695 11.9922 199.367 12.1797C199.039 12.3672 198.716 12.5182 198.398 12.6328C198.086 12.7474 197.802 12.8047 197.547 12.8047C197.198 12.8047 196.893 12.7474 196.633 12.6328C196.372 12.513 196.156 12.3594 195.984 12.1719C195.812 11.9792 195.682 11.7604 195.594 11.5156C195.51 11.2708 195.469 11.0234 195.469 10.7734C195.469 10.6068 195.49 10.4167 195.531 10.2031C195.573 9.98958 195.628 9.76823 195.695 9.53906C195.763 9.3099 195.844 9.07552 195.938 8.83594C196.031 8.59635 196.13 8.36719 196.234 8.14844C196.339 7.92969 196.445 7.72656 196.555 7.53906C196.664 7.35156 196.771 7.19271 196.875 7.0625C197.057 6.83333 197.276 6.60938 197.531 6.39062C197.792 6.17188 198.076 5.97917 198.383 5.8125C198.69 5.64062 199.018 5.5026 199.367 5.39844C199.721 5.29427 200.086 5.24219 200.461 5.24219C200.742 5.24219 201.018 5.3125 201.289 5.45312C201.56 5.58854 201.799 5.77344 202.008 6.00781C202.221 6.24219 202.393 6.51302 202.523 6.82031C202.654 7.1276 202.719 7.44792 202.719 7.78125ZM201.5 8.00781C201.5 7.49219 201.352 7.08854 201.055 6.79688C200.763 6.50521 200.341 6.35938 199.789 6.35938C199.602 6.35938 199.411 6.40885 199.219 6.50781C199.026 6.60677 198.841 6.72917 198.664 6.875C198.487 7.02083 198.323 7.17708 198.172 7.34375C198.026 7.50521 197.904 7.65104 197.805 7.78125C197.706 7.91667 197.596 8.10156 197.477 8.33594C197.357 8.5651 197.242 8.8125 197.133 9.07812C197.029 9.33854 196.94 9.60156 196.867 9.86719C196.799 10.1276 196.766 10.3568 196.766 10.5547C196.766 10.6745 196.789 10.7969 196.836 10.9219C196.883 11.0417 196.948 11.151 197.031 11.25C197.12 11.3438 197.224 11.4219 197.344 11.4844C197.464 11.5469 197.596 11.5781 197.742 11.5781C197.898 11.5781 198.099 11.5312 198.344 11.4375C198.594 11.3438 198.857 11.2161 199.133 11.0547C199.414 10.888 199.695 10.6927 199.977 10.4688C200.258 10.2396 200.51 9.99219 200.734 9.72656C200.964 9.46094 201.148 9.18229 201.289 8.89062C201.43 8.59896 201.5 8.30469 201.5 8.00781ZM213.148 10.0547C213.148 10.0911 213.117 10.1562 213.055 10.25C212.992 10.3385 212.927 10.4427 212.859 10.5625C212.635 10.8177 212.396 11.0755 212.141 11.3359C211.885 11.5964 211.617 11.849 211.336 12.0938C211.06 12.3333 210.771 12.5599 210.469 12.7734C210.172 12.9818 209.867 13.1641 209.555 13.3203C209.242 13.4766 208.927 13.599 208.609 13.6875C208.297 13.776 207.984 13.8177 207.672 13.8125C207.234 13.8125 206.859 13.7422 206.547 13.6016C206.234 13.4609 205.977 13.2604 205.773 13C205.57 12.7448 205.422 12.4349 205.328 12.0703C205.229 11.7005 205.18 11.2891 205.18 10.8359C205.18 10.4609 205.208 10.0755 205.266 9.67969C205.318 9.27865 205.406 8.8776 205.531 8.47656C205.661 8.07031 205.831 7.67188 206.039 7.28125C206.253 6.88542 206.513 6.50521 206.82 6.14062C207.117 5.79688 207.422 5.54427 207.734 5.38281C208.047 5.22135 208.352 5.14062 208.648 5.14062C208.846 5.14062 209.023 5.17188 209.18 5.23438C209.341 5.29167 209.477 5.3724 209.586 5.47656C209.701 5.58073 209.789 5.70573 209.852 5.85156C209.914 5.99219 209.948 6.14844 209.953 6.32031C209.964 6.5651 209.938 6.80208 209.875 7.03125C209.818 7.26042 209.724 7.48958 209.594 7.71875C209.464 7.94271 209.297 8.17448 209.094 8.41406C208.891 8.64844 208.651 8.89323 208.375 9.14844C208.271 9.2474 208.141 9.36979 207.984 9.51562C207.828 9.65625 207.659 9.80469 207.477 9.96094C207.299 10.1172 207.115 10.2734 206.922 10.4297C206.729 10.5859 206.544 10.7266 206.367 10.8516C206.367 11.0651 206.393 11.2812 206.445 11.5C206.503 11.7135 206.589 11.9089 206.703 12.0859C206.823 12.2578 206.977 12.401 207.164 12.5156C207.352 12.625 207.581 12.6797 207.852 12.6797C208.227 12.6797 208.604 12.6146 208.984 12.4844C209.365 12.349 209.742 12.1641 210.117 11.9297C210.492 11.6953 210.865 11.4167 211.234 11.0938C211.604 10.7708 211.971 10.4193 212.336 10.0391C212.357 10.0182 212.385 9.99479 212.422 9.96875C212.458 9.9375 212.5 9.90885 212.547 9.88281C212.594 9.85156 212.641 9.82552 212.688 9.80469C212.74 9.78385 212.789 9.77344 212.836 9.77344C212.852 9.77344 212.875 9.78385 212.906 9.80469C212.943 9.82552 212.979 9.85156 213.016 9.88281C213.052 9.90885 213.083 9.9375 213.109 9.96875C213.135 10 213.148 10.0286 213.148 10.0547ZM208.805 6.71875C208.794 6.55729 208.753 6.43229 208.68 6.34375C208.607 6.25521 208.51 6.21094 208.391 6.21094C208.182 6.21094 207.943 6.34896 207.672 6.625C207.406 6.89583 207.159 7.29167 206.93 7.8125C206.826 8.05208 206.719 8.33594 206.609 8.66406C206.5 8.99219 206.427 9.33854 206.391 9.70312C206.661 9.5 206.909 9.28646 207.133 9.0625C207.362 8.83854 207.57 8.63281 207.758 8.44531C207.867 8.33594 207.984 8.20573 208.109 8.05469C208.234 7.89844 208.349 7.73958 208.453 7.57812C208.562 7.41667 208.648 7.26042 208.711 7.10938C208.779 6.95833 208.81 6.82812 208.805 6.71875ZM216.5 1.89844C216.5 2.01302 216.461 2.24479 216.383 2.59375C216.341 2.77083 216.299 2.95573 216.258 3.14844C216.216 3.33594 216.169 3.53125 216.117 3.73438C215.956 4.45833 215.797 5.16927 215.641 5.86719C215.484 6.5599 215.362 7.2526 215.273 7.94531C215.263 8.07031 215.258 8.1849 215.258 8.28906C215.258 8.39323 215.253 8.49219 215.242 8.58594C215.237 8.67969 215.221 8.77083 215.195 8.85938C215.174 8.94271 215.141 9.02604 215.094 9.10938C215.031 9.10938 214.953 9.10417 214.859 9.09375C214.771 9.08333 214.667 9.06771 214.547 9.04688C214.312 9 214.159 8.94792 214.086 8.89062C214.081 8.84896 214.076 8.79427 214.07 8.72656C214.07 8.65365 214.07 8.57292 214.07 8.48438C214.065 8.21875 214.081 7.9349 214.117 7.63281C214.159 7.33073 214.211 7.02344 214.273 6.71094C214.336 6.39323 214.404 6.07292 214.477 5.75C214.549 5.42708 214.615 5.10938 214.672 4.79688C214.734 4.47917 214.784 4.17188 214.82 3.875C214.862 3.57292 214.88 3.28646 214.875 3.01562C214.875 2.89062 214.898 2.70312 214.945 2.45312C214.992 2.19792 215.042 2.02344 215.094 1.92969C215.13 1.8724 215.177 1.8125 215.234 1.75C215.297 1.6875 215.372 1.625 215.461 1.5625C215.638 1.43229 215.784 1.36719 215.898 1.36719C216.029 1.36719 216.161 1.42188 216.297 1.53125C216.432 1.63542 216.5 1.75781 216.5 1.89844ZM215.094 11.4297C215.094 11.5182 215.057 11.7526 214.984 12.1328C214.964 12.2786 214.836 12.4349 214.602 12.6016C214.378 12.763 214.19 12.8438 214.039 12.8438C213.654 12.8438 213.461 12.5911 213.461 12.0859C213.461 11.888 213.555 11.651 213.742 11.375C213.935 11.1042 214.12 10.9688 214.297 10.9688C214.354 10.9635 214.43 10.9766 214.523 11.0078C214.617 11.0391 214.706 11.0807 214.789 11.1328C214.878 11.1797 214.951 11.2318 215.008 11.2891C215.07 11.3464 215.099 11.3932 215.094 11.4297Z" fill="#E1DECE"/>
</svg>
