<svg width="217" height="18" fill="none" xmlns="http://www.w3.org/2000/svg"><path d="M14.46 2.406a.488.488 0 01-.124.227 1.302 1.302 0 01-.156.133 1 1 0 00-.172.164.888.888 0 00-.133.312c-.088.297-.182.659-.281 1.086-.094.422-.188.875-.281 1.36a86.95 86.95 0 00-.274 1.484 52.696 52.696 0 00-.375 2.64 8.585 8.585 0 00-.055.82c0 .136.013.274.04.415.03.135.065.273.101.414.037.14.068.286.094.437a2.312 2.312 0 01-.156 1.407c-.016.03-.05.057-.102.078a.687.687 0 01-.18.047 3.529 3.529 0 01-.469.031c-.296 0-.505-.122-.625-.367-.12-.24-.18-.57-.18-.992 0-.474.035-.985.102-1.532.068-.547.154-1.122.258-1.726.104-.61.219-1.24.344-1.89.13-.657.255-1.329.375-2.016-.219.27-.45.552-.695.843-.245.292-.493.578-.743.86-.25.28-.494.552-.734.812-.234.26-.453.498-.656.711-.203.214-.386.396-.547.547a4.26 4.26 0 01-.36.32c-.16.13-.296.266-.406.406-.11.141-.203.282-.28.422a7.463 7.463 0 00-.212.391 2.37 2.37 0 01-.195.328.877.877 0 01-.235.227.553.553 0 01-.32.086h-.18a5.551 5.551 0 01-.265-.024 1.493 1.493 0 01-.242-.062c-.073-.032-.115-.073-.125-.125a12.23 12.23 0 00-.274-1.047 22.346 22.346 0 00-.398-1.235 44.63 44.63 0 00-.461-1.296 77.856 77.856 0 00-.828-2.188c-.11-.281-.188-.487-.235-.617a90.25 90.25 0 00-.492 1.914 52.238 52.238 0 00-.453 2.008 34.229 34.229 0 00-.336 1.898 11.627 11.627 0 00-.125 1.578v.157c0 .104-.029.236-.086.398-.052.162-.117.32-.195.477a2.669 2.669 0 01-.242.39c-.079.115-.144.172-.196.172a.944.944 0 01-.258-.023 1.291 1.291 0 01-.289-.086.551.551 0 01-.156-.117 1.755 1.755 0 01-.172-.204 1.437 1.437 0 01-.132-.25.675.675 0 01-.055-.257c0-.047.008-.092.023-.133.167-.422.313-.899.438-1.43.125-.531.245-1.088.36-1.672.119-.588.244-1.187.374-1.797.136-.61.294-1.2.477-1.773a9.3 9.3 0 00.226-.758 19.724 19.724 0 00.399-1.96c.015-.084.034-.196.054-.337.021-.14.05-.278.086-.414.042-.135.097-.252.164-.351a.342.342 0 01.29-.149 1 1 0 01.304.07c.13.047.263.107.399.18.135.068.257.143.367.227a.7.7 0 01.218.242c.027.052.055.125.086.219.037.093.07.195.102.304.031.104.057.211.078.32.026.105.04.196.04.274 0 .052.025.182.077.39a23.805 23.805 0 00.524 1.743c.12.36.245.721.375 1.086.13.364.263.716.398 1.054.14.339.276.633.406.883.042.078.1.117.172.117.037 0 .07-.007.102-.023a.255.255 0 00.078-.062c.39-.422.81-.852 1.258-1.29.453-.442.9-.893 1.344-1.351.442-.464.867-.94 1.273-1.43.406-.49.763-1 1.07-1.531.068-.135.125-.294.172-.477.052-.187.138-.385.258-.593a2.88 2.88 0 01.469-.61c.15-.146.289-.218.414-.218.052 0 .133.039.242.117.11.073.219.166.328.281.11.115.203.24.281.375a.748.748 0 01.125.39.44.44 0 01-.023.141zm13.767 7.649c0 .125-.03.25-.086.375a1.18 1.18 0 01-.211.32c-.776.838-1.482 1.474-2.117 1.906-.636.427-1.211.64-1.727.64-.219 0-.424-.038-.617-.116a1.286 1.286 0 01-.492-.367 1.765 1.765 0 01-.329-.649 3.407 3.407 0 01-.117-.953c0-.162.01-.346.032-.555.02-.208.044-.424.07-.648.031-.224.065-.445.101-.664.037-.224.068-.427.094-.61l.078-.476a2.22 2.22 0 00.032-.274c0-.046-.01-.075-.032-.086-.015-.01-.044-.015-.086-.015-.02 0-.06.013-.117.039L22.508 8l-.242.102a3.13 3.13 0 01-.258.093 9.657 9.657 0 01-.703.18c-.12.02-.235.042-.344.063a3.534 3.534 0 01-.266.03c.177.131.326.324.446.579.125.25.187.526.187.828 0 .333-.05.654-.148.96a3.721 3.721 0 01-.39.868 3.93 3.93 0 01-.595.742 3.88 3.88 0 01-.718.57 3.486 3.486 0 01-.797.376 2.65 2.65 0 01-.813.132 1.2 1.2 0 01-.555-.14 1.404 1.404 0 01-.468-.414 2.343 2.343 0 01-.328-.688 3.273 3.273 0 01-.125-.945c0-.313.026-.638.078-.977.057-.338.13-.703.218-1.093.089-.396.193-.831.313-1.305s.247-1.005.383-1.594a9.25 9.25 0 01.047-.234 25.49 25.49 0 00.156-.617c.031-.105.057-.185.078-.243a.492.492 0 01.125-.187c.063-.063.13-.117.203-.164a1.17 1.17 0 01.219-.125.55.55 0 01.195-.047c.047 0 .1.016.157.047a.66.66 0 01.171.125.766.766 0 01.133.18.44.44 0 01.055.21c0 .141-.037.32-.11.54-.072.218-.153.445-.242.68-.083.228-.161.45-.234.663a1.71 1.71 0 00-.102.492c0 .032.006.063.016.094.01.026.026.04.047.04.219 0 .492-.011.82-.032a21.877 21.877 0 001.945-.21 4.56 4.56 0 00.711-.157c.329-.104.615-.234.86-.39.25-.157.435-.334.555-.532a2.84 2.84 0 00.265-.586c.068-.213.125-.411.172-.594a.368.368 0 01.063-.117.737.737 0 01.132-.117.907.907 0 01.172-.094.583.583 0 01.211-.039 1.005 1.005 0 01.414.117.642.642 0 01.172.133c.052.047.078.096.078.149a.942.942 0 01-.047.273 3.97 3.97 0 01-.117.36l-.164.492a9.007 9.007 0 00-.187.656c-.073.281-.149.601-.227.96a25.564 25.564 0 00-.367 2.071 6.893 6.893 0 00-.055.766c0 .432.073.74.219.922a.718.718 0 00.578.273c.38 0 .813-.175 1.297-.523.49-.355 1.05-.842 1.68-1.461.099-.1.192-.185.28-.258a.419.419 0 01.266-.11c.037 0 .076.03.118.086a.354.354 0 01.086.196zM18.039 8.508c-.031.12-.065.263-.102.43l-.117.523a46.649 46.649 0 00-.21 1.125c-.027.177-.05.341-.07.492a3.531 3.531 0 00-.024.367c0 .354.057.623.172.805.12.182.286.273.5.273.24 0 .484-.067.734-.203a2.867 2.867 0 001.203-1.28c.13-.277.195-.553.195-.83 0-.265-.03-.496-.093-.694a1.61 1.61 0 00-.243-.493 1.025 1.025 0 00-.336-.304.724.724 0 00-.359-.102c-.12 0-.242.01-.367.031a5.028 5.028 0 01-.32.032.323.323 0 01-.172-.04.47.47 0 01-.102-.1 2.178 2.178 0 00-.07-.095c-.021-.03-.044-.047-.07-.047a.26.26 0 00-.102.032c-.02.01-.037.036-.047.078zm28.828 2.648c-.354.266-.745.526-1.172.781-.427.25-.877.49-1.351.72a17.9 17.9 0 01-3.008 1.1c-.51.141-1.018.248-1.523.321-.5.078-.982.117-1.446.117-.442 0-.83-.047-1.164-.14a3.065 3.065 0 01-.867-.367 2.51 2.51 0 01-.617-.547 2.9 2.9 0 01-.39-.672 3.358 3.358 0 01-.212-.742 4.647 4.647 0 01-.062-.75c0-.355.07-.76.21-1.22.146-.463.344-.952.594-1.468s.547-1.042.891-1.578a18.24 18.24 0 011.117-1.57c.401-.51.823-.99 1.266-1.438.442-.453.888-.849 1.336-1.187.448-.339.89-.605 1.328-.797.443-.198.862-.297 1.258-.297.479 0 .872.083 1.18.25a2.118 2.118 0 011.1 1.312c.069.25.102.464.102.641 0 .042-.01.122-.03.242a3.56 3.56 0 01-.087.422 5.039 5.039 0 01-.164.5c-.062.172-.14.33-.234.477a1.26 1.26 0 01-.32.359.642.642 0 01-.407.14c-.036 0-.086-.02-.148-.062a1.241 1.241 0 01-.188-.156 1.334 1.334 0 01-.164-.219.54.54 0 01-.062-.242.41.41 0 01.07-.203 3.37 3.37 0 00.149-.305c.057-.125.109-.27.156-.437a2.3 2.3 0 00.07-.602c0-.208-.099-.375-.297-.5-.192-.13-.45-.195-.773-.195-.271 0-.573.08-.906.242a5.98 5.98 0 00-1.032.664c-.354.276-.716.602-1.086.977-.37.375-.726.778-1.07 1.21-.339.428-.659.87-.96 1.329a13.2 13.2 0 00-.79 1.359 9.1 9.1 0 00-.523 1.281 3.74 3.74 0 00-.196 1.117c0 .448.084.797.25 1.047.172.25.386.438.64.563.256.12.532.193.83.219a7.913 7.913 0 002.444-.133 13.914 13.914 0 001.586-.43 16.086 16.086 0 002.602-1.133 8.2 8.2 0 00.789-.476c.214-.146.398-.271.555-.375.161-.104.312-.185.453-.242.146-.058.31-.086.492-.086.047 0 .08.026.102.078.02.047.03.11.03.187 0 .073-.01.156-.03.25-.016.089-.04.177-.07.266a1.616 1.616 0 01-.11.234.495.495 0 01-.14.164zM58.492 7.47a.89.89 0 01-.133.453 1.776 1.776 0 01-.328.422 3.04 3.04 0 01-.453.351 3.648 3.648 0 01-1.25.508 3.163 3.163 0 01-.703.078c-.276 0-.518-.026-.727-.078a4.18 4.18 0 01-.53-.18 3.203 3.203 0 01-.352-.171c-.084-.058-.141-.086-.172-.086-.068 0-.112.018-.133.054a.328.328 0 00-.04.094c-.015.125-.03.266-.046.422a3.474 3.474 0 01-.281 1.055 3.037 3.037 0 01-.39.625c-.12.161-.272.322-.454.484-.177.162-.372.32-.586.477a8.39 8.39 0 01-.68.43 6.105 6.105 0 01-1.437.585c-.23.057-.445.086-.649.086-.349 0-.638-.06-.867-.18a1.452 1.452 0 01-.547-.484 2.117 2.117 0 01-.28-.71 4.588 4.588 0 01.023-1.806c.073-.317.166-.63.28-.937.12-.307.253-.607.4-.899.15-.296.301-.583.452-.859.391-.713.834-1.258 1.328-1.633.5-.38 1.027-.57 1.579-.57.28 0 .562.063.843.188.282.125.513.304.696.539.052.062.11.169.172.32.067.15.13.305.187.46.063.157.117.3.164.43.052.13.089.209.11.235.114.146.247.289.398.43a3.088 3.088 0 001.11.632c.218.063.447.094.687.094.312 0 .64-.075.984-.226a3.44 3.44 0 00.953-.618c.089-.078.167-.143.235-.195a.316.316 0 01.203-.086c.026 0 .052.01.078.031a.34.34 0 01.07.079.33.33 0 01.063.085.18.18 0 01.023.07zm-6.125.437c0-.208-.015-.362-.047-.46a.7.7 0 00-.125-.25 1.996 1.996 0 00-.18-.188 1.152 1.152 0 01-.21-.297 1.614 1.614 0 00-.211-.32c-.058-.068-.16-.102-.305-.102-.364 0-.714.182-1.047.547-.166.182-.325.39-.476.625-.151.23-.292.484-.422.766a9.602 9.602 0 00-.305.718 9.854 9.854 0 00-.46 1.57 3.904 3.904 0 00-.071.72c0 .093.02.184.062.273a.668.668 0 00.188.234.987.987 0 00.297.164c.12.042.258.063.414.063.114 0 .258-.034.43-.102a4.51 4.51 0 00.538-.25 5.26 5.26 0 00.508-.312c.162-.115.287-.216.375-.305a5.18 5.18 0 00.586-.727c.14-.218.245-.44.313-.664.067-.229.11-.476.125-.742.015-.27.023-.591.023-.96zm15.438-.484a.46.46 0 01-.078.21c-.053.09-.12.186-.204.29a4.682 4.682 0 01-.273.328 9.524 9.524 0 01-.313.328c-.244.245-.52.492-.828.742-.307.25-.635.498-.984.742a27.607 27.607 0 01-2.227 1.39c0 .1-.028.254-.085.462a6.038 6.038 0 01-.665 1.508 5.073 5.073 0 01-.57.812 7.44 7.44 0 01-.664.688 5.324 5.324 0 01-.781.594 3.983 3.983 0 01-.875.421 2.81 2.81 0 01-.953.165c-.433 0-.758-.107-.977-.32-.213-.214-.32-.511-.32-.891 0-.188.026-.365.078-.532.052-.166.122-.325.21-.476.09-.151.194-.294.313-.43.12-.135.248-.263.383-.383a6.63 6.63 0 01.797-.601c.276-.182.563-.354.86-.516.296-.161.601-.318.913-.469.318-.156.639-.322.961-.5a1.01 1.01 0 00.133-.086c.042-.03.063-.088.063-.171a1.37 1.37 0 00-.094-.493 1.292 1.292 0 00-.281-.445 1.307 1.307 0 00-.453-.312 1.508 1.508 0 00-.633-.125 2.898 2.898 0 00-.906.148 9.51 9.51 0 00-.25.094l-.29.094a3.138 3.138 0 01-.273.078.919.919 0 01-.398.015.876.876 0 01-.196-.07.604.604 0 01-.164-.14.363.363 0 01-.062-.22c0-.057.01-.12.031-.187a.694.694 0 01.117-.195.762.762 0 01.203-.18 1.06 1.06 0 01.328-.117c.193-.037.396-.096.61-.18.213-.083.422-.182.625-.297.208-.114.406-.244.594-.39a3.26 3.26 0 00.492-.47 2.24 2.24 0 00.343-.538 1.41 1.41 0 00.126-.578c0-.37-.076-.63-.227-.782a.717.717 0 00-.547-.234c-.297 0-.57.07-.82.211-.25.135-.516.336-.797.602a8.557 8.557 0 00-.242.234.338.338 0 01-.25.094.319.319 0 01-.188-.055.535.535 0 01-.133-.133.69.69 0 01-.102-.344c0-.13.048-.265.141-.406.1-.14.211-.263.336-.367a5.54 5.54 0 01.461-.336c.167-.11.347-.206.54-.289a3.49 3.49 0 01.624-.195 3.13 3.13 0 01.711-.078c.282 0 .526.052.735.156.213.104.39.242.53.414.142.172.246.37.313.594.068.218.102.445.102.68 0 .437-.135.867-.406 1.288-.271.422-.693.836-1.266 1.243.333 0 .651.062.953.187.308.12.56.305.758.555.11.135.211.305.305.508.093.203.143.4.148.593a40.91 40.91 0 001.852-1.171c.531-.36 1.018-.724 1.46-1.094.193-.162.363-.31.508-.446.151-.14.282-.26.391-.359.115-.099.214-.174.297-.226a.448.448 0 01.234-.086c.026 0 .05.015.07.046.027.032.048.07.063.118a.711.711 0 01.063.28zm-7.125 6.32a4.86 4.86 0 00.601-.89c.167-.318.294-.62.383-.907-.76.339-1.385.649-1.875.93s-.875.57-1.156.867c-.058.063-.12.128-.188.195a2.767 2.767 0 00-.18.235 1.48 1.48 0 00-.132.273 1.012 1.012 0 00-.055.336v.11a.25.25 0 00.04.109c.02.037.049.068.085.094a.342.342 0 00.18.039c.219 0 .432-.042.64-.125.214-.078.417-.182.61-.313.198-.13.383-.278.554-.445a7.31 7.31 0 00.493-.508zm10.078-9.008c-.11-.864-.346-1.515-.711-1.953-.36-.442-.802-.664-1.328-.664-.156 0-.32.024-.492.07a3.55 3.55 0 00-.508.188 5.251 5.251 0 00-.508.266c-.167.093-.328.19-.484.289a1.48 1.48 0 01-.32.164.793.793 0 01-.22.031.296.296 0 01-.203-.086c-.062-.057-.093-.148-.093-.273 0-.063.015-.133.046-.211a1.94 1.94 0 01.133-.25 1.759 1.759 0 01.398-.438 5.11 5.11 0 011.25-.695c.444-.172.86-.258 1.25-.258.5 0 .954.122 1.36.367.406.24.75.584 1.031 1.032.287.442.506.981.657 1.617.156.63.234 1.336.234 2.117 0 .25-.013.518-.04.805a13.104 13.104 0 01-.21 1.61 6.73 6.73 0 01-.766 2.07 5.56 5.56 0 01-.914 1.218 4.18 4.18 0 01-1.148.82 3.042 3.042 0 01-1.336.305 2.04 2.04 0 01-.922-.203c-.27-.14-.5-.336-.687-.586a2.9 2.9 0 01-.422-.914 4.496 4.496 0 01-.149-1.195c0-.355.052-.711.156-1.07.11-.365.266-.72.47-1.063.202-.35.45-.683.741-1a6.37 6.37 0 011.016-.875c.38-.271.797-.51 1.25-.719a7.874 7.874 0 011.469-.516zm-2.672 7c.208 0 .432-.065.672-.195.24-.135.474-.33.703-.586.23-.26.445-.58.648-.96a6.026 6.026 0 00.625-1.86c.047-.24.086-.5.118-.781.03-.282.052-.563.062-.844a3.647 3.647 0 00-.039-.742 6.71 6.71 0 00-1.32.546c-.453.245-.87.55-1.25.915-.38.364-.693.786-.938 1.265A3.404 3.404 0 0067 10.078c0 .578.091 1 .273 1.266.188.26.459.39.813.39zm10.39-4.64c0-.39-.06-.672-.18-.844-.114-.172-.247-.258-.398-.258-.13 0-.263.026-.398.078-.13.047-.255.11-.375.188a2.222 2.222 0 00-.57.531 12.13 12.13 0 00-.399.57 38.57 38.57 0 00-.414.672c-.135.235-.265.474-.39.719s-.237.484-.336.719c-.094.229-.17.45-.227.664a2.144 2.144 0 00-.086.562c0 .245.047.443.14.594.094.146.272.219.532.219.088 0 .219-.055.39-.164a5.01 5.01 0 00.547-.43 8.35 8.35 0 00.579-.555 4.56 4.56 0 00.46-.578c.13-.192.261-.403.391-.633a7.53 7.53 0 00.367-.703c.11-.24.198-.474.266-.703a2.35 2.35 0 00.102-.648zm4.82 2.922c0 .12-.04.263-.124.43a3.785 3.785 0 01-.375.6 5.515 5.515 0 01-.484.571 3.854 3.854 0 01-.57.485c-.204.14-.417.252-.641.335a1.98 1.98 0 01-.696.126 1.65 1.65 0 01-.828-.204 1.984 1.984 0 01-.61-.554 3.087 3.087 0 01-.398-.828 5.16 5.16 0 01-.203-1.016 7.698 7.698 0 01-.82.992 9.154 9.154 0 01-.977.89 6.04 6.04 0 01-.992.641c-.323.162-.61.243-.86.243-.166 0-.327-.042-.484-.125a1.459 1.459 0 01-.406-.336 1.692 1.692 0 01-.375-1.063c0-.203.016-.416.047-.64.037-.225.094-.464.172-.72.083-.26.187-.54.312-.843.13-.302.29-.633.477-.992a6.87 6.87 0 01.742-1.149c.287-.364.578-.682.875-.953a4.96 4.96 0 01.844-.648c.27-.162.49-.242.656-.242.047 0 .1.01.156.03.063.022.125.045.188.071.068.021.13.042.187.063a.668.668 0 00.157.023.354.354 0 00.125-.023l.125-.063c.041-.026.083-.05.125-.07a.278.278 0 01.125-.031c.062 0 .13.02.203.062a.982.982 0 01.21.164 1.061 1.061 0 01.29.461c.02.094.047.164.078.211l.101.117a.491.491 0 01.125.36c0 .052-.018.161-.054.328-.037.166-.078.362-.125.586-.042.218-.081.448-.117.687-.037.24-.055.459-.055.656 0 .558.029 1.016.086 1.375.062.36.146.644.25.852.104.208.229.354.375.438a.93.93 0 00.469.124c.14 0 .283-.025.43-.078a2.27 2.27 0 00.429-.226c.146-.094.286-.203.422-.328a5.87 5.87 0 00.398-.39c.172-.188.32-.34.446-.454.125-.12.226-.18.304-.18a.27.27 0 01.188.07.215.215 0 01.078.165zm6.868.039c0 .036-.031.101-.094.195a3.706 3.706 0 00-.195.313c-.224.255-.463.512-.719.773-.255.26-.523.513-.804.758-.276.24-.566.466-.868.68a7.09 7.09 0 01-.914.546 5.278 5.278 0 01-.945.367c-.313.089-.625.13-.938.126-.437 0-.812-.07-1.124-.211a2.01 2.01 0 01-.774-.602 2.45 2.45 0 01-.445-.93 4.771 4.771 0 01-.149-1.234c0-.375.029-.76.086-1.156.052-.401.14-.802.266-1.203a6.72 6.72 0 011.289-2.336c.297-.344.601-.597.914-.758.313-.162.617-.242.914-.242.198 0 .375.03.531.093a1.126 1.126 0 01.672.618c.063.14.096.296.102.468a2.34 2.34 0 01-.078.711c-.058.23-.151.459-.282.688-.13.224-.296.455-.5.695-.203.234-.442.48-.718.734L85 9.516c-.156.14-.326.289-.508.445-.177.156-.362.312-.555.469-.192.156-.377.297-.554.422 0 .213.026.43.078.648.057.213.143.409.258.586.12.172.273.315.46.43.188.109.417.164.688.164A3.48 3.48 0 0086 12.484c.38-.135.758-.32 1.133-.554a8.78 8.78 0 001.117-.836c.37-.323.737-.675 1.102-1.055a.722.722 0 01.085-.07.754.754 0 01.126-.086.948.948 0 01.14-.078.4.4 0 01.149-.032c.015 0 .039.01.07.032a.71.71 0 01.11.078.495.495 0 01.093.086c.026.031.04.06.04.086zM85.82 6.719a.643.643 0 00-.125-.375.356.356 0 00-.289-.133c-.208 0-.448.138-.719.414-.265.27-.513.667-.742 1.188-.104.24-.21.523-.32.851a4.78 4.78 0 00-.219 1.04 6.9 6.9 0 00.742-.642c.23-.223.438-.43.625-.617.11-.11.227-.24.352-.39a5.78 5.78 0 00.344-.477c.11-.161.195-.318.258-.469a.881.881 0 00.093-.39zm20.469 3.265a.905.905 0 01-.125.47c-.078.14-.154.254-.226.343a12.88 12.88 0 01-.876.937 8.65 8.65 0 01-.843.711 4.049 4.049 0 01-.781.446 1.734 1.734 0 01-.672.156c-.589 0-1.019-.2-1.289-.602-.266-.4-.399-.955-.399-1.664a10.17 10.17 0 01.102-1.406c.031-.26.067-.518.109-.773.042-.26.089-.5.141-.72a11.42 11.42 0 01-.219.415 9.227 9.227 0 01-.57.93c-.12.171-.256.359-.407.562a40.65 40.65 0 01-.664.844 7.12 7.12 0 01-.765.812 4.342 4.342 0 01-.86.61 2 2 0 01-.953.242 1.37 1.37 0 01-.484-.102 1.626 1.626 0 01-.492-.336 1.858 1.858 0 01-.383-.593 2.379 2.379 0 01-.149-.891c0-.167.01-.38.032-.64.02-.266.046-.55.078-.852a33.46 33.46 0 01.273-1.828 1.647 1.647 0 00-.242.343 7.628 7.628 0 00-.266.54 24.48 24.48 0 00-.296.671c-.1.24-.206.485-.32.735-.11.25-.225.497-.345.742-.114.24-.231.463-.351.672-.417.703-.88 1.208-1.39 1.515a3.223 3.223 0 01-1.673.454 1.82 1.82 0 01-.664-.125 1.692 1.692 0 01-.57-.391 1.97 1.97 0 01-.39-.633 2.322 2.322 0 01-.157-.883 1.978 1.978 0 01.055-.367.992.992 0 01.062-.187.733.733 0 01.07-.157.887.887 0 01.22-.195c.088-.057.22-.086.398-.086.265 0 .414.31.445.93.005.083.026.182.063.297.036.11.09.213.164.312.078.1.174.182.289.25a.8.8 0 00.414.102c.187 0 .385-.047.594-.14.208-.1.416-.248.625-.446.213-.198.421-.448.625-.75.203-.302.395-.662.578-1.078.145-.339.294-.67.445-.992.156-.329.302-.633.438-.915.14-.28.268-.53.382-.75.115-.218.206-.388.274-.507a.879.879 0 01.078-.125 1.59 1.59 0 01.125-.172c.047-.063.094-.123.14-.18a1.41 1.41 0 01.126-.148.534.534 0 01.124-.07 4.602 4.602 0 01.446-.18.584.584 0 01.14-.04h.016c.042 0 .094.006.156.016a.45.45 0 01.18.055.406.406 0 01.219.383 3.657 3.657 0 01-.117.93 11.017 11.017 0 00-.18.969c-.031.254-.06.512-.086.773-.02.26-.04.51-.055.75a8.898 8.898 0 00-.023.562c0 .48.055.849.164 1.11.115.255.268.382.46.382.136 0 .277-.031.423-.094a2.57 2.57 0 00.406-.234 3.79 3.79 0 00.547-.469c.297-.312.58-.64.851-.984s.524-.688.758-1.031a17.8 17.8 0 00.641-1.024c.193-.333.359-.648.5-.945a1.926 1.926 0 01.312-.422c.068-.062.138-.114.211-.156a.508.508 0 01.242-.063c.037 0 .092.016.164.047.079.032.157.073.235.125a.806.806 0 01.203.172c.062.063.094.128.094.195 0 .162-.026.336-.078.524-.052.187-.107.404-.164.648-.047.198-.092.42-.133.664-.042.245-.081.503-.117.774a12.85 12.85 0 00-.118 1.64c0 .495.068.87.204 1.125.14.256.359.383.656.383.156 0 .325-.041.508-.125.187-.083.382-.2.586-.351.208-.157.424-.341.648-.555.224-.213.456-.453.695-.719.12-.13.229-.229.328-.297.105-.067.177-.101.219-.101.057 0 .107.02.149.062.041.037.062.091.062.164zm7.984-6.187a2.357 2.357 0 01-.265-.047.766.766 0 01-.242-.102.628.628 0 01-.172-.18.559.559 0 01-.063-.28c0-.235.06-.425.18-.57a.656.656 0 01.484-.235c.256-.01.485-.018.688-.024.203-.01.393-.018.57-.023l.516-.016a16.678 16.678 0 011.117-.03c.213-.006.456-.009.726-.009a26.034 26.034 0 00.711-.031l.602-.031.617-.031c.198-.01.375-.019.531-.024l.344-.023c.115 0 .25-.013.406-.04.157-.025.318-.054.485-.085.166-.037.331-.068.492-.094.167-.026.312-.04.438-.04a.69.69 0 01.171.016.35.35 0 01.102.04l.094.03a.532.532 0 00.148.016c.12 0 .227-.01.32-.03a1.48 1.48 0 01.305-.032c.177 0 .326.044.445.133.125.083.188.224.188.422a.866.866 0 01-.25.625.822.822 0 01-.25.171.722.722 0 01-.266.07.533.533 0 00-.367.157.795.795 0 00-.195.336c-.094.307-.18.67-.258 1.086-.078.411-.151.86-.219 1.344-.062.479-.12.984-.172 1.515a88.819 88.819 0 00-.125 1.61c-.031.541-.057 1.08-.078 1.617a54.377 54.377 0 00-.023 1.531v.281a.317.317 0 01-.07.188.865.865 0 01-.352.297.448.448 0 01-.156.062c-.224 0-.394-.075-.508-.226a1.39 1.39 0 01-.25-.524 3.086 3.086 0 01-.078-.625 14.278 14.278 0 01.023-1.383c.021-.338.05-.703.086-1.093.037-.396.078-.805.125-1.227.047-.427.094-.844.141-1.25l.148-1.18c.052-.375.097-.708.133-1l.102-.718.046-.336c.021-.125-.005-.214-.078-.266-.067-.057-.216-.091-.445-.102a22.022 22.022 0 00-.594-.007 22.26 22.26 0 00-.586-.008 19.961 19.961 0 00-.539-.008h-.429c-.183 0-.396.003-.641.008a8.38 8.38 0 00-.727.047c-.239.02-.461.057-.664.11-.198.046-.341.114-.429.202-.037.037-.078.123-.125.258-.042.13-.084.305-.125.524a17.35 17.35 0 00-.235 1.75c-.026.265-.065.56-.117.882a57.614 57.614 0 01-.336 2.016 57.658 57.658 0 00-.211 1.375l-.07.547a22.34 22.34 0 00-.055.601 6.98 6.98 0 00-.023.516c0 .078.005.162.015.25.011.083.016.164.016.242 0 .089-.01.175-.031.258a.522.522 0 01-.094.219.448.448 0 01-.203.156.891.891 0 01-.344.07.822.822 0 01-.437-.101.677.677 0 01-.243-.242.955.955 0 01-.101-.329 2.545 2.545 0 01-.024-.335c0-.068.003-.165.008-.29.011-.13.021-.265.031-.406l.047-.414c.016-.135.032-.24.047-.312.021-.1.045-.227.071-.383l.101-.516c.037-.182.07-.37.102-.562.036-.198.067-.383.093-.555.063-.406.131-.813.204-1.219.072-.411.14-.817.203-1.218.062-.402.114-.797.156-1.188.042-.39.062-.768.062-1.133 0-.14-.026-.245-.078-.312-.047-.073-.146-.118-.297-.133zm19.883 2.633c0 .562-.065 1.086-.195 1.57s-.318.943-.563 1.375a6.764 6.764 0 01-.906 1.227c-.359.385-.765.768-1.219 1.148a5.48 5.48 0 01-.585.414 5.234 5.234 0 01-1.383.617 2.582 2.582 0 01-.664.094c-.151 0-.282-.02-.391-.063a1.084 1.084 0 01-.289-.171 2.228 2.228 0 01-.242-.25 9.014 9.014 0 00-.235-.305c-.135.526-.25.987-.343 1.383-.089.4-.164.77-.227 1.11-.062.343-.117.676-.164 1-.047.327-.096.684-.148 1.07-.011.083-.037.18-.079.288a1.88 1.88 0 01-.132.32 1.016 1.016 0 01-.18.25c-.063.074-.128.11-.195.11a.673.673 0 01-.266-.07 1.266 1.266 0 01-.281-.164 1.432 1.432 0 01-.227-.195c-.062-.068-.094-.125-.094-.172 0-.183.021-.365.063-.547a7.85 7.85 0 00.117-.524c.162-.823.328-1.593.5-2.312a48.77 48.77 0 00.477-2.14c.14-.71.255-1.438.343-2.188a20.07 20.07 0 00.141-2.47 3 3 0 00-.008-.14v-.242a3 3 0 00-.008-.242v-.149a2.071 2.071 0 01.235-.953c.078-.135.172-.244.281-.328a.59.59 0 01.367-.125c.058 0 .115.032.172.094a.8.8 0 01.156.242c.047.1.084.219.11.36.031.14.047.291.047.453 0 .27-.016.58-.047.93-.032.348-.071.702-.117 1.062a38.78 38.78 0 01-.133 1.016 32.48 32.48 0 00-.11.812c.204-.458.438-.896.704-1.313.27-.416.552-.802.843-1.156a9.942 9.942 0 011.774-1.687 4.13 4.13 0 01.789-.461c.245-.11.453-.164.625-.164.234 0 .453.047.656.14.208.089.388.209.539.36.156.146.276.315.359.508.089.187.133.38.133.578zm-1.281.726c0-.229-.026-.414-.078-.554a.88.88 0 00-.188-.32.548.548 0 00-.234-.157.64.64 0 00-.195-.04c-.209 0-.448.095-.719.282a5.356 5.356 0 00-.844.727c-.291.297-.583.635-.875 1.015a18.078 18.078 0 00-1.062 1.547 9.306 9.306 0 00-.289.524 6.314 6.314 0 00-.243.508c-.067.161-.101.283-.101.367 0 .047.021.107.062.18a.964.964 0 00.18.218 1.107 1.107 0 00.734.258c.219 0 .467-.065.743-.195.276-.136.554-.316.836-.54.286-.229.565-.494.836-.796.276-.302.518-.62.726-.953a5.53 5.53 0 00.516-1.04c.13-.354.195-.697.195-1.03zm12.836.375a.72.72 0 01-.07.219 2.65 2.65 0 01-.164.344 54.156 54.156 0 01-1.766 2.18 20.438 20.438 0 01-1.719 1.796 9.03 9.03 0 01-1.64 1.211c-.526.297-1.026.44-1.5.43-.438 0-.816-.073-1.133-.219a2.044 2.044 0 01-.774-.617 2.7 2.7 0 01-.453-.953 4.863 4.863 0 01-.148-1.242 7.405 7.405 0 01.39-2.344 7.12 7.12 0 01.5-1.156c.204-.38.448-.732.735-1.055.114-.13.245-.255.39-.375a3.017 3.017 0 01.969-.578 1.92 1.92 0 01.524-.11c.182-.005.351.03.507.102.157.068.292.162.407.281.114.12.205.26.273.422.068.162.104.328.109.5.021.422-.101.862-.367 1.32-.26.454-.677.948-1.25 1.485a21.11 21.11 0 01-.39.36 28.085 28.085 0 01-1.063.906c-.187.15-.37.289-.547.414 0 .213.029.421.086.625.057.203.146.388.266.554.125.162.281.292.469.39.192.1.424.15.695.15.281 0 .575-.066.883-.196.307-.135.622-.318.945-.547a9.7 9.7 0 00.992-.82 26.569 26.569 0 002.055-2.156 99.17 99.17 0 001.031-1.188l.086-.086c.037-.036.076-.073.117-.11a.795.795 0 01.141-.1.288.288 0 01.148-.048c.016 0 .037.008.063.024.031.01.062.026.094.047a.234.234 0 01.078.062.124.124 0 01.031.078zm-5.727-.765a.815.815 0 00-.109-.391.271.271 0 00-.266-.14c-.276.015-.552.169-.828.46-.276.292-.531.73-.765 1.313a11.462 11.462 0 00-.274.852l-.109.453c-.031.145-.057.276-.078.39.271-.203.513-.414.726-.633.214-.218.414-.422.602-.61.146-.145.286-.29.422-.437a4.86 4.86 0 00.351-.437c.104-.146.185-.287.242-.422a.873.873 0 00.086-.398zm16.36 1.078a.57.57 0 01-.086.226 3.475 3.475 0 01-.219.367 9.888 9.888 0 01-.328.461c-.125.167-.258.339-.399.516a20.427 20.427 0 01-1.593 1.805 11.06 11.06 0 01-1.383 1.172c-.427.296-.823.51-1.188.64-.364.13-.703.196-1.015.196-.266 0-.521-.04-.766-.118a2.099 2.099 0 01-.679-.367 2.313 2.313 0 01-.532-.64 3.224 3.224 0 01-.344-.938 2.43 2.43 0 00-.171-.539 1.464 1.464 0 00-.211-.344.67.67 0 00-.227-.187.47.47 0 00-.211-.055.775.775 0 00-.437.14 1.245 1.245 0 00-.352.383 1.353 1.353 0 00-.125.329l-.125.523a27.66 27.66 0 01-.141.633 9.68 9.68 0 01-.156.648 1.143 1.143 0 01-.187.422.809.809 0 01-.25.219.687.687 0 01-.25.086 1.93 1.93 0 01-.227.015.335.335 0 01-.203-.062.469.469 0 01-.133-.148.76.76 0 01-.086-.196 1.083 1.083 0 01-.023-.219c0-.109.018-.234.055-.374a61.959 61.959 0 00.375-1.336c.083-.318.169-.706.257-1.165.052-.276.099-.58.141-.914.042-.338.076-.684.102-1.039.026-.359.044-.716.054-1.07a22.2 22.2 0 00.024-1c0-.099.021-.193.062-.281a.968.968 0 01.172-.235.777.777 0 01.219-.156.468.468 0 01.219-.062c.088 0 .174.02.257.062a.51.51 0 01.219.196c.063.088.112.208.149.359.041.15.062.338.062.562a12.925 12.925 0 01-.18 2.157c-.031.218-.067.442-.109.671.344-.036.659-.111.945-.226.287-.115.571-.27.852-.469.193-.14.388-.307.586-.5.198-.198.383-.403.554-.617a7.89 7.89 0 00.477-.633c.141-.208.25-.396.328-.562.052-.104.107-.209.164-.313.058-.11.12-.206.188-.289a.984.984 0 01.234-.21.537.537 0 01.297-.087c.089 0 .185.016.289.047a.988.988 0 01.289.14.742.742 0 01.227.212.416.416 0 01.093.265.743.743 0 01-.101.328.675.675 0 01-.305.297c-.14.073-.302.224-.484.453-.177.23-.391.524-.641.883a5.102 5.102 0 01-.75.852 5.628 5.628 0 01-1.07.75c.099.088.182.216.25.383.068.161.133.338.195.53.068.194.138.389.211.587.078.198.169.377.274.539.109.161.242.294.398.398.156.104.349.157.578.157.235 0 .474-.042.719-.125.25-.089.502-.211.758-.368a6.04 6.04 0 00.781-.562c.26-.219.521-.461.781-.727a28.1 28.1 0 00.61-.648l.609-.688a27.348 27.348 0 00.875-1.039c.13-.177.237-.294.32-.351a.423.423 0 01.235-.086c.078 0 .13.039.156.117a.556.556 0 01.047.219zm10.875-.766a.59.59 0 01-.086.274c-.052.099-.12.2-.203.304a5.649 5.649 0 01-.532.57c-.27.245-.593.508-.968.79a17.9 17.9 0 01-1.25.859 27.365 27.365 0 01-3.211 1.71 3.853 3.853 0 00-.266.157c-.12.078-.26.172-.422.281-.161.11-.333.224-.515.344-.183.115-.357.221-.524.32a7.149 7.149 0 01-.437.25c-.125.063-.216.094-.274.094-.104 0-.208-.013-.312-.039a1.587 1.587 0 01-.289-.117.793.793 0 01-.203-.156.29.29 0 01-.079-.188.61.61 0 01.141-.398 1.26 1.26 0 01.391-.305c.213-.11.39-.203.531-.281.141-.078.263-.151.367-.219.11-.068.208-.14.297-.219.094-.078.195-.171.305-.28a5.11 5.11 0 00.382-.462c.136-.182.269-.383.399-.601.13-.22.253-.448.367-.688.12-.24.224-.476.313-.71.093-.235.166-.462.218-.68.052-.22.079-.417.079-.594 0-.104-.014-.209-.04-.313a1.021 1.021 0 00-.101-.297.599.599 0 00-.172-.218.362.362 0 00-.242-.086 1.01 1.01 0 00-.453.117c-.157.073-.31.167-.461.281-.146.11-.287.23-.422.36a12 12 0 00-1.774 2.164 13.63 13.63 0 00-.531.89 21.29 21.29 0 00-.453.883c-.026.24-.052.508-.078.805l-.086.968c-.031.355-.055.685-.07.993l-.047.882c-.016.277-.034.54-.055.79a6.35 6.35 0 01-.101.718 7.266 7.266 0 01-.118.297 1.181 1.181 0 01-.156.281.67.67 0 01-.211.211.489.489 0 01-.492.04.918.918 0 01-.375-.313.407.407 0 01-.062-.219c0-.172.013-.385.039-.64.026-.25.054-.503.085-.758l.102-.696c.037-.208.06-.354.07-.437.073-.537.133-1.115.18-1.735a78.15 78.15 0 00.125-2.039c.01-.213.018-.528.023-.945.011-.427.019-.794.024-1.101.01-.313.023-.573.039-.782.036-.5.115-.872.234-1.117.12-.25.295-.375.524-.375.177 0 .333.078.469.234a.774.774 0 01.203.5c0 .183-.021.383-.063.602a17.33 17.33 0 01-.125.672c-.041.23-.083.456-.125.68a3.688 3.688 0 00-.054.593c0 .151.015.227.046.227.365-.656.743-1.255 1.133-1.797a9.186 9.186 0 011.11-1.305c.156-.14.322-.28.5-.421a5.33 5.33 0 01.546-.383c.188-.115.375-.206.563-.274.193-.073.38-.11.562-.11.193-.004.381.037.563.126a1.67 1.67 0 01.82.813c.084.176.125.35.125.523 0 .172-.018.372-.054.601a6.209 6.209 0 01-.149.72c-.068.25-.148.504-.242.765-.094.26-.198.51-.313.75a5.34 5.34 0 01-.359.664 2.85 2.85 0 01-.391.5 18.785 18.785 0 004.946-3.04c.245-.208.442-.382.594-.523.151-.14.27-.21.359-.21.036 0 .065.018.086.054a.356.356 0 01.047.125.716.716 0 01.031.156c.005.052.008.097.008.133zm2.789-.297a.315.315 0 00-.063-.172.713.713 0 00-.148-.187.817.817 0 00-.195-.156.416.416 0 00-.204-.063c-.161 0-.312.026-.453.078a2.17 2.17 0 00-.718.477 3.513 3.513 0 00-.266.312c-.188.24-.38.534-.578.883a10.114 10.114 0 00-.922 2.211c-.099.37-.149.698-.149.984 0 .146.066.271.196.375.13.105.304.157.523.157.125 0 .274-.055.446-.164.177-.115.359-.263.546-.446.193-.187.381-.398.563-.633.187-.234.352-.476.492-.726a9.85 9.85 0 00.664-1.414 4.34 4.34 0 00.266-1.516zM177 7.984a2.047 2.047 0 01-.188.32 8.407 8.407 0 01-.46.602c-.198.24-.438.505-.719.797a12.4 12.4 0 01-.93.867c-.406.339-.768.62-1.086.844a7.28 7.28 0 01-.851.524 3.54 3.54 0 01-.68.265c-.198.047-.383.07-.555.07-.229 0-.437-.036-.625-.109a1.239 1.239 0 01-.476-.367 2.173 2.173 0 01-.344-.64 4.946 4.946 0 01-.219-.962h-.078a13.51 13.51 0 01-.719.992 7.67 7.67 0 01-.804.876 4.288 4.288 0 01-.86.624 1.77 1.77 0 01-.867.243c-.151 0-.31-.026-.477-.078a1.414 1.414 0 01-.46-.266 1.467 1.467 0 01-.352-.453 1.484 1.484 0 01-.141-.672c0-.23.029-.49.086-.781.058-.297.136-.604.235-.922.099-.323.211-.646.336-.969.13-.328.265-.638.406-.93.146-.291.292-.554.437-.789.146-.234.287-.424.422-.57a4.89 4.89 0 011.25-.977 4.25 4.25 0 01.821-.343 2.99 2.99 0 01.921-.14c.261 0 .456.085.586.257.131.167.222.422.274.766a.256.256 0 00.055.109c.036.042.072.088.109.14.042.053.078.107.109.165a.308.308 0 01.047.164c0 .083-.018.187-.055.312l-.125.414c-.041.151-.08.318-.117.5a2.82 2.82 0 00-.054.563c0 .27.002.56.007.867.006.307.034.591.086.851.058.256.149.47.274.641.13.172.317.258.562.258.25 0 .589-.117 1.016-.352a9.864 9.864 0 001.422-.984c.333-.27.648-.542.945-.813l.797-.726c.234-.214.435-.388.601-.524.167-.135.287-.203.36-.203.088 0 .143.016.164.047.021.026.031.076.031.149 0 .01-.005.033-.015.07-.011.031-.021.065-.032.101a.53.53 0 01-.039.102.67.67 0 00-.031.07zm8.984-.828a.875.875 0 01-.078.328 1.53 1.53 0 01-.156.305c-.177.266-.411.57-.703.914a21.11 21.11 0 01-.953 1.031c-.339.344-.685.675-1.039.993-.349.317-.672.583-.969.796a9.982 9.982 0 01-1.117.72 7.273 7.273 0 01-1.016.468 5.73 5.73 0 01-.976.25c-.318.047-.644.07-.977.07a2.18 2.18 0 01-.938-.195 2.14 2.14 0 01-.703-.547 2.457 2.457 0 01-.429-.797 3.14 3.14 0 01-.149-.969c0-.354.045-.726.133-1.117a8.16 8.16 0 01.367-1.18c.162-.395.354-.78.578-1.156.224-.38.472-.734.743-1.062a5.418 5.418 0 01.882-.828 2.86 2.86 0 01.547-.305c.193-.083.38-.125.563-.125.125 0 .245.04.359.117.115.073.221.17.32.29.099.119.191.254.274.405a3.338 3.338 0 01.344.89c.031.142.047.262.047.36 0 .152-.047.347-.141.586-.094.24-.206.36-.336.36-.188 0-.344-.128-.469-.383a2.219 2.219 0 01-.125-.344 3.178 3.178 0 00-.117-.383 1.336 1.336 0 00-.172-.343.64.64 0 00-.305-.242 1.07 1.07 0 00-.398.203c-.13.104-.26.231-.391.382-.125.151-.25.323-.375.516a9.303 9.303 0 00-.343.586 7.893 7.893 0 00-.758 2.164c-.047.255-.07.49-.07.703 0 .151.036.305.109.461.073.151.167.29.281.414.12.125.253.227.399.305a.991.991 0 00.461.117c.536 0 1.08-.112 1.632-.336a8.5 8.5 0 001.68-.922c.568-.39 1.141-.849 1.719-1.375a35.567 35.567 0 001.734-1.71 17.8 17.8 0 01.477-.477c.14-.14.273-.211.398-.211.037 0 .07.028.102.086a.322.322 0 01.054.187zm3.696 1.907a3.164 3.164 0 01-.633.296c-.266.1-.56.19-.883.274a11.473 11.473 0 01-2 .328 1.455 1.455 0 00-.055.297 9.578 9.578 0 00-.039.484c-.01.182-.021.378-.031.586a85.163 85.163 0 01-.031 1.11v.328a.46.46 0 01-.07.234.76.76 0 01-.165.219.968.968 0 01-.226.156.59.59 0 01-.531 0 .612.612 0 01-.321-.29.3.3 0 01-.039-.116c-.01-.11-.008-.253.008-.43.021-.182.047-.38.078-.594.031-.213.065-.437.102-.672.041-.24.078-.473.109-.703.037-.24.065-.505.086-.797a25.321 25.321 0 00.094-1.843c.01-.313.015-.607.015-.883.006-.276.008-.524.008-.742v-.54c0-.244.052-.452.156-.624.105-.172.279-.258.524-.258.068 0 .141.02.219.062a.964.964 0 01.226.157.87.87 0 01.172.195c.047.068.07.133.07.195 0 .26-.015.534-.046.82-.026.287-.058.566-.094.836l-.102.743a4.945 4.945 0 00-.039.546c0 .146.081.253.242.32.162.069.365.102.61.102.192 0 .406-.015.64-.046.235-.037.461-.084.68-.141.219-.057.419-.128.602-.211a1.44 1.44 0 00.437-.281c.089-.089.169-.2.242-.336.078-.136.133-.274.164-.414.042-.172.076-.37.102-.594.026-.224.06-.45.101-.68.058-.349.172-.627.344-.836.177-.208.383-.312.617-.312.204 0 .36.065.469.195a.69.69 0 01.164.461c0 .057-.023.17-.07.336a9.538 9.538 0 01-.164.555c-.063.208-.13.419-.203.633-.068.213-.128.395-.18.546-.036.11-.075.271-.117.485a12.54 12.54 0 00-.117.687c-.032.245-.06.49-.086.735a7.464 7.464 0 00-.031.625c0 .53.062.909.187 1.132.13.224.326.336.586.336.187 0 .391-.036.609-.109.224-.073.472-.195.742-.367.277-.177.581-.409.915-.695.333-.287.711-.641 1.132-1.063.203-.203.401-.409.594-.617.193-.209.373-.406.539-.594a23.546 23.546 0 00.797-.914c.057-.068.12-.138.188-.21.072-.074.14-.11.203-.11a.5.5 0 01.226.047c.068.026.102.09.102.195 0 .11-.057.255-.172.437-.115.183-.255.388-.422.618a6.86 6.86 0 01-.25.32c-.115.14-.25.302-.406.484a29.6 29.6 0 01-.5.586 28.65 28.65 0 01-.555.602 28.98 28.98 0 01-.539.57 9.83 9.83 0 01-.476.461 8.486 8.486 0 01-1.563 1.125 3.202 3.202 0 01-1.563.422c-.468 0-.835-.182-1.101-.547-.266-.365-.399-.888-.399-1.57 0-.146.003-.3.008-.461l.032-.469c.01-.156.02-.305.031-.445.015-.14.031-.263.047-.367zm13.039-1.282c0 .167-.008.326-.024.477a3.57 3.57 0 01-.195.867c-.052.14-.115.286-.188.438a2.526 2.526 0 01-.398.578 7.277 7.277 0 01-.695.695c-.266.24-.56.476-.883.71a9.983 9.983 0 01-.969.634 6.178 6.178 0 01-.969.453 2.494 2.494 0 01-.851.172c-.349 0-.654-.058-.914-.172a1.997 1.997 0 01-.649-.461 1.984 1.984 0 01-.39-.656 2.272 2.272 0 01-.125-.743c0-.166.021-.356.062-.57a7.6 7.6 0 01.407-1.367c.093-.24.192-.469.296-.688.105-.218.211-.421.321-.609.109-.187.216-.346.32-.476a4.945 4.945 0 011.508-1.25c.307-.172.635-.31.984-.415a3.857 3.857 0 011.094-.156c.281 0 .557.07.828.211.271.136.51.32.719.555.213.234.385.505.515.812.131.308.196.628.196.961zm-1.219.227c0-.516-.148-.92-.445-1.211-.292-.292-.714-.438-1.266-.438-.187 0-.378.05-.57.149a3.089 3.089 0 00-.555.367 4.667 4.667 0 00-.492.469 6.794 6.794 0 00-.367.437 4.13 4.13 0 00-.328.555 7.452 7.452 0 00-.61 1.531 2.76 2.76 0 00-.101.688c0 .12.023.242.07.367.047.12.112.229.195.328.089.094.193.172.313.234a.84.84 0 00.398.094c.156 0 .357-.047.602-.14a5.24 5.24 0 00.789-.383c.281-.167.562-.362.844-.586.281-.23.533-.477.757-.742a3.83 3.83 0 00.555-.836 2.01 2.01 0 00.211-.883zm11.648 2.047c0 .036-.031.101-.093.195a3.649 3.649 0 00-.196.313c-.224.255-.463.512-.718.773-.256.26-.524.513-.805.758-.276.24-.565.466-.867.68-.297.208-.602.39-.914.546a5.29 5.29 0 01-.946.367 3.25 3.25 0 01-.937.126c-.438 0-.813-.07-1.125-.211a2.015 2.015 0 01-.774-.602 2.457 2.457 0 01-.445-.93 4.772 4.772 0 01-.148-1.234c0-.375.028-.76.086-1.156a7.11 7.11 0 01.265-1.203 6.765 6.765 0 011.289-2.336c.297-.344.602-.597.914-.758.313-.162.618-.242.914-.242.198 0 .375.03.532.093a1.125 1.125 0 01.672.618c.062.14.096.296.101.468a2.28 2.28 0 01-.078.711 2.72 2.72 0 01-.281.688c-.13.224-.297.455-.5.695a9.21 9.21 0 01-.719.734c-.104.1-.234.222-.391.368-.156.14-.325.289-.507.445-.178.156-.362.312-.555.469a10.68 10.68 0 01-.555.422c0 .213.026.43.078.648.058.213.144.409.258.586.12.172.274.315.461.43.188.109.417.164.688.164.375 0 .752-.065 1.132-.196.381-.135.758-.32 1.133-.554a8.723 8.723 0 001.117-.836c.37-.323.737-.675 1.102-1.055a.663.663 0 01.086-.07.73.73 0 01.125-.086.951.951 0 01.141-.078.397.397 0 01.148-.032c.016 0 .039.01.07.032.037.02.073.047.11.078a.505.505 0 01.093.086c.026.031.039.06.039.086zm-4.343-3.336a.646.646 0 00-.125-.375.357.357 0 00-.289-.133c-.209 0-.448.138-.719.414-.266.27-.513.667-.742 1.188-.104.24-.211.523-.321.851a4.774 4.774 0 00-.218 1.04c.27-.204.518-.418.742-.642.229-.223.437-.43.625-.617.109-.11.226-.24.351-.39a5.78 5.78 0 00.344-.477c.109-.161.195-.318.258-.469a.88.88 0 00.094-.39zm7.695-4.82c0 .114-.039.346-.117.695a24.42 24.42 0 00-.125.554c-.042.188-.089.383-.141.586l-.476 2.133a22.185 22.185 0 00-.368 2.078c-.01.125-.015.24-.015.344 0 .104-.005.203-.016.297a1.193 1.193 0 01-.047.273 1.01 1.01 0 01-.101.25c-.063 0-.141-.005-.235-.015a5.952 5.952 0 01-.312-.047c-.235-.047-.388-.1-.461-.156a5.825 5.825 0 01-.016-.164v-.243c-.005-.265.011-.55.047-.851.042-.302.094-.61.156-.922.063-.318.131-.638.204-.961.072-.323.138-.64.195-.953.062-.318.112-.625.148-.922.042-.302.06-.589.055-.86 0-.124.023-.312.07-.562.047-.255.097-.43.149-.523.036-.058.083-.117.14-.18.063-.063.138-.125.227-.188.177-.13.323-.195.437-.195.131 0 .263.055.399.164.135.104.203.227.203.367zm-1.406 9.53c0 .09-.037.324-.11.704-.02.146-.148.302-.382.469-.224.161-.412.242-.563.242-.385 0-.578-.253-.578-.758 0-.198.094-.435.281-.711.193-.27.378-.406.555-.406a.582.582 0 01.226.039c.094.031.183.073.266.125a.894.894 0 01.219.156c.062.057.091.104.086.14z" fill="#E1DECE"/></svg>