<svg width="141" height="34" viewBox="0 0 141 34" fill="none" xmlns="http://www.w3.org/2000/svg">
<path d="M5.49805 15H2.5293L2.54883 13.4668H5.49805C6.51367 13.4668 7.36003 13.2552 8.03711 12.832C8.71419 12.4023 9.22201 11.8034 9.56055 11.0352C9.9056 10.2604 10.0781 9.35547 10.0781 8.32031V7.45117C10.0781 6.63737 9.98047 5.91471 9.78516 5.2832C9.58984 4.64518 9.30339 4.10807 8.92578 3.67188C8.54818 3.22917 8.08594 2.89388 7.53906 2.66602C6.9987 2.43815 6.37695 2.32422 5.67383 2.32422H2.4707V0.78125H5.67383C6.60482 0.78125 7.45443 0.9375 8.22266 1.25C8.99089 1.55599 9.65169 2.00195 10.2051 2.58789C10.765 3.16732 11.1947 3.87044 11.4941 4.69727C11.7936 5.51758 11.9434 6.44206 11.9434 7.4707V8.32031C11.9434 9.34896 11.7936 10.2767 11.4941 11.1035C11.1947 11.9238 10.7617 12.6237 10.1953 13.2031C9.63542 13.7826 8.95833 14.2285 8.16406 14.541C7.3763 14.847 6.48763 15 5.49805 15ZM3.53516 0.78125V15H1.65039V0.78125H3.53516ZM23.8086 13.4668V15H16.2793V13.4668H23.8086ZM16.6602 0.78125V15H14.7754V0.78125H16.6602ZM22.8125 6.89453V8.42773H16.2793V6.89453H22.8125ZM23.7109 0.78125V2.32422H16.2793V0.78125H23.7109ZM34.7656 13.4668V15H27.6562V13.4668H34.7656ZM28.0273 0.78125V15H26.1426V0.78125H28.0273ZM44.5312 0.78125H46.4062V10.4004C46.4062 11.4681 46.1686 12.3568 45.6934 13.0664C45.2181 13.776 44.5866 14.3099 43.7988 14.668C43.0176 15.0195 42.168 15.1953 41.25 15.1953C40.2865 15.1953 39.4141 15.0195 38.6328 14.668C37.8581 14.3099 37.2428 13.776 36.7871 13.0664C36.3379 12.3568 36.1133 11.4681 36.1133 10.4004V0.78125H37.9785V10.4004C37.9785 11.1426 38.1152 11.7546 38.3887 12.2363C38.6621 12.7181 39.043 13.0762 39.5312 13.3105C40.026 13.5449 40.599 13.6621 41.25 13.6621C41.9076 13.6621 42.4805 13.5449 42.9688 13.3105C43.4635 13.0762 43.8477 12.7181 44.1211 12.2363C44.3945 11.7546 44.5312 11.1426 44.5312 10.4004V0.78125ZM50.5859 0.78125L54.0039 6.23047L57.4219 0.78125H59.6191L55.127 7.82227L59.7266 15H57.5098L54.0039 9.44336L50.498 15H48.2812L52.8809 7.82227L48.3887 0.78125H50.5859ZM70.9375 13.4668V15H63.4082V13.4668H70.9375ZM63.7891 0.78125V15H61.9043V0.78125H63.7891ZM69.9414 6.89453V8.42773H63.4082V6.89453H69.9414ZM70.8398 0.78125V2.32422H63.4082V0.78125H70.8398ZM87.5195 6.89453V8.42773H79.8242V6.89453H87.5195ZM80.1172 0.78125V15H78.2324V0.78125H80.1172ZM89.1602 0.78125V15H87.2852V0.78125H89.1602ZM103.457 7.44141V8.33984C103.457 9.40755 103.324 10.3646 103.057 11.2109C102.79 12.0573 102.406 12.7767 101.904 13.3691C101.403 13.9616 100.801 14.4141 100.098 14.7266C99.401 15.0391 98.6198 15.1953 97.7539 15.1953C96.9141 15.1953 96.1426 15.0391 95.4395 14.7266C94.7428 14.4141 94.1374 13.9616 93.623 13.3691C93.1152 12.7767 92.7214 12.0573 92.4414 11.2109C92.1615 10.3646 92.0215 9.40755 92.0215 8.33984V7.44141C92.0215 6.3737 92.1582 5.41992 92.4316 4.58008C92.7116 3.73372 93.1055 3.01432 93.6133 2.42188C94.1211 1.82292 94.7233 1.36719 95.4199 1.05469C96.123 0.742188 96.8945 0.585938 97.7344 0.585938C98.6003 0.585938 99.3815 0.742188 100.078 1.05469C100.781 1.36719 101.383 1.82292 101.885 2.42188C102.393 3.01432 102.78 3.73372 103.047 4.58008C103.32 5.41992 103.457 6.3737 103.457 7.44141ZM101.592 8.33984V7.42188C101.592 6.57552 101.504 5.82682 101.328 5.17578C101.159 4.52474 100.908 3.97786 100.576 3.53516C100.244 3.09245 99.8372 2.75716 99.3555 2.5293C98.8802 2.30143 98.3398 2.1875 97.7344 2.1875C97.1484 2.1875 96.6178 2.30143 96.1426 2.5293C95.6738 2.75716 95.2702 3.09245 94.9316 3.53516C94.5996 3.97786 94.3424 4.52474 94.1602 5.17578C93.9779 5.82682 93.8867 6.57552 93.8867 7.42188V8.33984C93.8867 9.19271 93.9779 9.94792 94.1602 10.6055C94.3424 11.2565 94.6029 11.8066 94.9414 12.2559C95.2865 12.6986 95.6934 13.0339 96.1621 13.2617C96.6374 13.4896 97.168 13.6035 97.7539 13.6035C98.3659 13.6035 98.9095 13.4896 99.3848 13.2617C99.86 13.0339 100.26 12.6986 100.586 12.2559C100.918 11.8066 101.169 11.2565 101.338 10.6055C101.507 9.94792 101.592 9.19271 101.592 8.33984ZM114.414 0.78125H116.289V10.4004C116.289 11.4681 116.051 12.3568 115.576 13.0664C115.101 13.776 114.469 14.3099 113.682 14.668C112.9 15.0195 112.051 15.1953 111.133 15.1953C110.169 15.1953 109.297 15.0195 108.516 14.668C107.741 14.3099 107.126 13.776 106.67 13.0664C106.221 12.3568 105.996 11.4681 105.996 10.4004V0.78125H107.861V10.4004C107.861 11.1426 107.998 11.7546 108.271 12.2363C108.545 12.7181 108.926 13.0762 109.414 13.3105C109.909 13.5449 110.482 13.6621 111.133 13.6621C111.79 13.6621 112.363 13.5449 112.852 13.3105C113.346 13.0762 113.73 12.7181 114.004 12.2363C114.277 11.7546 114.414 11.1426 114.414 10.4004V0.78125ZM126.826 11.4062C126.826 11.0742 126.774 10.7812 126.67 10.5273C126.572 10.2669 126.396 10.0326 126.143 9.82422C125.895 9.61589 125.55 9.41732 125.107 9.22852C124.671 9.03971 124.118 8.84766 123.447 8.65234C122.744 8.44401 122.109 8.21289 121.543 7.95898C120.977 7.69857 120.492 7.40234 120.088 7.07031C119.684 6.73828 119.375 6.35742 119.16 5.92773C118.945 5.49805 118.838 5.00651 118.838 4.45312C118.838 3.89974 118.952 3.38867 119.18 2.91992C119.408 2.45117 119.733 2.04427 120.156 1.69922C120.586 1.34766 121.097 1.07422 121.689 0.878906C122.282 0.683594 122.943 0.585938 123.672 0.585938C124.74 0.585938 125.645 0.791016 126.387 1.20117C127.135 1.60482 127.705 2.13542 128.096 2.79297C128.486 3.44401 128.682 4.14062 128.682 4.88281H126.807C126.807 4.34896 126.693 3.87695 126.465 3.4668C126.237 3.05013 125.892 2.72461 125.43 2.49023C124.967 2.24935 124.382 2.12891 123.672 2.12891C123.001 2.12891 122.448 2.22982 122.012 2.43164C121.576 2.63346 121.25 2.9069 121.035 3.25195C120.827 3.59701 120.723 3.99089 120.723 4.43359C120.723 4.73307 120.785 5.00651 120.908 5.25391C121.038 5.49479 121.237 5.7194 121.504 5.92773C121.777 6.13607 122.122 6.32812 122.539 6.50391C122.962 6.67969 123.467 6.84896 124.053 7.01172C124.86 7.23958 125.557 7.49349 126.143 7.77344C126.729 8.05339 127.21 8.36914 127.588 8.7207C127.972 9.06576 128.255 9.45964 128.438 9.90234C128.626 10.3385 128.721 10.8333 128.721 11.3867C128.721 11.9661 128.604 12.4902 128.369 12.959C128.135 13.4277 127.799 13.8281 127.363 14.1602C126.927 14.4922 126.403 14.7493 125.791 14.9316C125.186 15.1074 124.508 15.1953 123.76 15.1953C123.102 15.1953 122.454 15.1042 121.816 14.9219C121.185 14.7396 120.609 14.4661 120.088 14.1016C119.574 13.737 119.16 13.2878 118.848 12.7539C118.542 12.2135 118.389 11.5885 118.389 10.8789H120.264C120.264 11.3672 120.358 11.7871 120.547 12.1387C120.736 12.4837 120.993 12.7702 121.318 12.998C121.65 13.2259 122.025 13.3952 122.441 13.5059C122.865 13.61 123.304 13.6621 123.76 13.6621C124.417 13.6621 124.974 13.571 125.43 13.3887C125.885 13.2064 126.23 12.946 126.465 12.6074C126.706 12.2689 126.826 11.8685 126.826 11.4062ZM140.156 13.4668V15H132.627V13.4668H140.156ZM133.008 0.78125V15H131.123V0.78125H133.008ZM139.16 6.89453V8.42773H132.627V6.89453H139.16ZM140.059 0.78125V2.32422H132.627V0.78125H140.059ZM5.62598 29.5645V20.5H6.89746V31H5.73535L5.62598 29.5645ZM0.649414 27.3838V27.2402C0.649414 26.6751 0.717773 26.1624 0.854492 25.7021C0.995768 25.2373 1.19401 24.8385 1.44922 24.5059C1.70898 24.1732 2.0166 23.918 2.37207 23.7402C2.7321 23.5579 3.13314 23.4668 3.5752 23.4668C4.04004 23.4668 4.44564 23.5488 4.79199 23.7129C5.1429 23.8724 5.43913 24.1071 5.68066 24.417C5.92676 24.7223 6.12044 25.0915 6.26172 25.5244C6.40299 25.9574 6.50098 26.4473 6.55566 26.9941V27.623C6.50553 28.1654 6.40755 28.653 6.26172 29.0859C6.12044 29.5189 5.92676 29.888 5.68066 30.1934C5.43913 30.4987 5.1429 30.7334 4.79199 30.8975C4.44108 31.057 4.03092 31.1367 3.56152 31.1367C3.12858 31.1367 2.7321 31.0433 2.37207 30.8564C2.0166 30.6696 1.70898 30.4076 1.44922 30.0703C1.19401 29.7331 0.995768 29.3366 0.854492 28.8809C0.717773 28.4206 0.649414 27.9215 0.649414 27.3838ZM1.9209 27.2402V27.3838C1.9209 27.7529 1.95736 28.0993 2.03027 28.4229C2.10775 28.7464 2.22624 29.0312 2.38574 29.2773C2.54525 29.5234 2.74805 29.7171 2.99414 29.8584C3.24023 29.9951 3.53418 30.0635 3.87598 30.0635C4.29525 30.0635 4.63932 29.9746 4.9082 29.7969C5.18164 29.6191 5.40039 29.3844 5.56445 29.0928C5.72852 28.8011 5.85612 28.4844 5.94727 28.1426V26.4951C5.89258 26.2445 5.81283 26.0029 5.70801 25.7705C5.60775 25.5335 5.47559 25.3239 5.31152 25.1416C5.15202 24.9548 4.95378 24.8066 4.7168 24.6973C4.48438 24.5879 4.20866 24.5332 3.88965 24.5332C3.54329 24.5332 3.24479 24.6061 2.99414 24.752C2.74805 24.8932 2.54525 25.0892 2.38574 25.3398C2.22624 25.5859 2.10775 25.873 2.03027 26.2012C1.95736 26.5247 1.9209 26.8711 1.9209 27.2402ZM11.9355 31.1367C11.4206 31.1367 10.9535 31.0501 10.5342 30.877C10.1195 30.6992 9.76172 30.4508 9.46094 30.1318C9.16471 29.8128 8.93685 29.4346 8.77734 28.9971C8.61784 28.5596 8.53809 28.0811 8.53809 27.5615V27.2744C8.53809 26.6729 8.62695 26.1374 8.80469 25.668C8.98242 25.194 9.22396 24.793 9.5293 24.4648C9.83464 24.1367 10.181 23.8883 10.5684 23.7197C10.9557 23.5511 11.3568 23.4668 11.7715 23.4668C12.3001 23.4668 12.7559 23.5579 13.1387 23.7402C13.526 23.9225 13.8428 24.1777 14.0889 24.5059C14.335 24.8294 14.5173 25.2122 14.6357 25.6543C14.7542 26.0918 14.8135 26.5703 14.8135 27.0898V27.6572H9.29004V26.625H13.5488V26.5293C13.5306 26.2012 13.4622 25.8822 13.3438 25.5723C13.2298 25.2624 13.0475 25.0072 12.7969 24.8066C12.5462 24.6061 12.2044 24.5059 11.7715 24.5059C11.4844 24.5059 11.2201 24.5674 10.9785 24.6904C10.737 24.8089 10.5296 24.9867 10.3564 25.2236C10.1833 25.4606 10.0488 25.75 9.95312 26.0918C9.85742 26.4336 9.80957 26.8278 9.80957 27.2744V27.5615C9.80957 27.9124 9.85742 28.2428 9.95312 28.5527C10.0534 28.8581 10.1969 29.127 10.3838 29.3594C10.5752 29.5918 10.8053 29.7741 11.0742 29.9062C11.3477 30.0384 11.6576 30.1045 12.0039 30.1045C12.4505 30.1045 12.8288 30.0133 13.1387 29.8311C13.4486 29.6488 13.7197 29.4049 13.9521 29.0996L14.7178 29.708C14.5583 29.9495 14.3555 30.1797 14.1094 30.3984C13.8633 30.6172 13.5602 30.7949 13.2002 30.9316C12.8447 31.0684 12.4232 31.1367 11.9355 31.1367ZM20.5967 29.0381C20.5967 28.8558 20.5557 28.6872 20.4736 28.5322C20.3962 28.3727 20.2344 28.2292 19.9883 28.1016C19.7467 27.9694 19.3822 27.8555 18.8945 27.7598C18.4844 27.6732 18.113 27.5706 17.7803 27.4521C17.4521 27.3337 17.1719 27.1901 16.9395 27.0215C16.7116 26.8529 16.5361 26.6546 16.4131 26.4268C16.29 26.1989 16.2285 25.9323 16.2285 25.627C16.2285 25.3353 16.2923 25.0596 16.4199 24.7998C16.5521 24.54 16.7367 24.3099 16.9736 24.1094C17.2152 23.9089 17.5046 23.7516 17.8418 23.6377C18.179 23.5238 18.555 23.4668 18.9697 23.4668C19.5622 23.4668 20.068 23.5716 20.4873 23.7812C20.9066 23.9909 21.2279 24.2712 21.4512 24.6221C21.6745 24.9684 21.7861 25.3535 21.7861 25.7773H20.5215C20.5215 25.5723 20.46 25.374 20.3369 25.1826C20.2184 24.9867 20.043 24.8249 19.8105 24.6973C19.5827 24.5697 19.3024 24.5059 18.9697 24.5059C18.6188 24.5059 18.334 24.5605 18.1152 24.6699C17.901 24.7747 17.7438 24.9092 17.6436 25.0732C17.5479 25.2373 17.5 25.4105 17.5 25.5928C17.5 25.7295 17.5228 25.8525 17.5684 25.9619C17.6185 26.0667 17.7051 26.1647 17.8281 26.2559C17.9512 26.3424 18.1243 26.4245 18.3477 26.502C18.571 26.5794 18.8558 26.6569 19.2021 26.7344C19.8083 26.8711 20.3073 27.0352 20.6992 27.2266C21.0911 27.418 21.3828 27.6527 21.5742 27.9307C21.7656 28.2087 21.8613 28.5459 21.8613 28.9424C21.8613 29.266 21.793 29.5622 21.6562 29.8311C21.5241 30.0999 21.3304 30.3324 21.0752 30.5283C20.8245 30.7197 20.5238 30.8701 20.1729 30.9795C19.8265 31.0843 19.4368 31.1367 19.0039 31.1367C18.3522 31.1367 17.8008 31.0205 17.3496 30.7881C16.8984 30.5557 16.5566 30.2549 16.3242 29.8857C16.0918 29.5166 15.9756 29.127 15.9756 28.7168H17.2471C17.2653 29.0632 17.3656 29.3389 17.5479 29.5439C17.7301 29.7445 17.9535 29.888 18.2178 29.9746C18.4821 30.0566 18.7441 30.0977 19.0039 30.0977C19.3503 30.0977 19.6396 30.0521 19.8721 29.9609C20.109 29.8698 20.2891 29.7445 20.4121 29.585C20.5352 29.4255 20.5967 29.2432 20.5967 29.0381ZM24.8965 23.6035V31H23.625V23.6035H24.8965ZM23.5293 21.6416C23.5293 21.4365 23.5908 21.2633 23.7139 21.1221C23.8415 20.9808 24.0283 20.9102 24.2744 20.9102C24.516 20.9102 24.7005 20.9808 24.8281 21.1221C24.9603 21.2633 25.0264 21.4365 25.0264 21.6416C25.0264 21.8376 24.9603 22.0062 24.8281 22.1475C24.7005 22.2842 24.516 22.3525 24.2744 22.3525C24.0283 22.3525 23.8415 22.2842 23.7139 22.1475C23.5908 22.0062 23.5293 21.8376 23.5293 21.6416ZM31.7188 23.6035H32.8672V30.8428C32.8672 31.4945 32.735 32.0505 32.4707 32.5107C32.2064 32.971 31.8372 33.3197 31.3633 33.5566C30.8939 33.7982 30.3516 33.9189 29.7363 33.9189C29.4811 33.9189 29.1803 33.8779 28.834 33.7959C28.4922 33.7184 28.1549 33.584 27.8223 33.3926C27.4941 33.2057 27.2184 32.9528 26.9951 32.6338L27.6582 31.8818C27.9681 32.2555 28.2917 32.5153 28.6289 32.6611C28.9707 32.807 29.3079 32.8799 29.6406 32.8799C30.0417 32.8799 30.388 32.8047 30.6797 32.6543C30.9714 32.5039 31.1969 32.2806 31.3564 31.9844C31.5205 31.6927 31.6025 31.3327 31.6025 30.9043V25.2305L31.7188 23.6035ZM26.626 27.3838V27.2402C26.626 26.6751 26.6921 26.1624 26.8242 25.7021C26.9609 25.2373 27.1546 24.8385 27.4053 24.5059C27.6605 24.1732 27.9681 23.918 28.3281 23.7402C28.6882 23.5579 29.0938 23.4668 29.5449 23.4668C30.0098 23.4668 30.4154 23.5488 30.7617 23.7129C31.1126 23.8724 31.4089 24.1071 31.6504 24.417C31.8965 24.7223 32.0902 25.0915 32.2314 25.5244C32.3727 25.9574 32.4707 26.4473 32.5254 26.9941V27.623C32.4753 28.1654 32.3773 28.653 32.2314 29.0859C32.0902 29.5189 31.8965 29.888 31.6504 30.1934C31.4089 30.4987 31.1126 30.7334 30.7617 30.8975C30.4108 31.057 30.0007 31.1367 29.5312 31.1367C29.0892 31.1367 28.6882 31.0433 28.3281 30.8564C27.9727 30.6696 27.6673 30.4076 27.4121 30.0703C27.1569 29.7331 26.9609 29.3366 26.8242 28.8809C26.6921 28.4206 26.626 27.9215 26.626 27.3838ZM27.8906 27.2402V27.3838C27.8906 27.7529 27.9271 28.0993 28 28.4229C28.0775 28.7464 28.1937 29.0312 28.3486 29.2773C28.5081 29.5234 28.7109 29.7171 28.957 29.8584C29.2031 29.9951 29.4971 30.0635 29.8389 30.0635C30.2581 30.0635 30.6045 29.9746 30.8779 29.7969C31.1514 29.6191 31.3678 29.3844 31.5273 29.0928C31.6914 28.8011 31.819 28.4844 31.9102 28.1426V26.4951C31.86 26.2445 31.7826 26.0029 31.6777 25.7705C31.5775 25.5335 31.4453 25.3239 31.2812 25.1416C31.1217 24.9548 30.9235 24.8066 30.6865 24.6973C30.4495 24.5879 30.1715 24.5332 29.8525 24.5332C29.5062 24.5332 29.2077 24.6061 28.957 24.752C28.7109 24.8932 28.5081 25.0892 28.3486 25.3398C28.1937 25.5859 28.0775 25.873 28 26.2012C27.9271 26.5247 27.8906 26.8711 27.8906 27.2402ZM36.0527 25.1826V31H34.7881V23.6035H35.9844L36.0527 25.1826ZM35.752 27.0215L35.2256 27.001C35.2301 26.4951 35.3053 26.028 35.4512 25.5996C35.597 25.1667 35.8021 24.7907 36.0664 24.4717C36.3307 24.1527 36.6452 23.9066 37.0098 23.7334C37.3789 23.5557 37.7868 23.4668 38.2334 23.4668C38.598 23.4668 38.9261 23.5169 39.2178 23.6172C39.5094 23.7129 39.7578 23.8678 39.9629 24.082C40.1725 24.2962 40.332 24.5742 40.4414 24.916C40.5508 25.2533 40.6055 25.6657 40.6055 26.1533V31H39.334V26.1396C39.334 25.7523 39.277 25.4424 39.1631 25.21C39.0492 24.973 38.8828 24.8021 38.6641 24.6973C38.4453 24.5879 38.1764 24.5332 37.8574 24.5332C37.543 24.5332 37.2559 24.5993 36.9961 24.7314C36.7409 24.8636 36.5199 25.0459 36.333 25.2783C36.1507 25.5107 36.0072 25.7773 35.9023 26.0781C35.8021 26.3743 35.752 26.6888 35.752 27.0215ZM50.3057 29.0381C50.3057 28.8558 50.2646 28.6872 50.1826 28.5322C50.1051 28.3727 49.9434 28.2292 49.6973 28.1016C49.4557 27.9694 49.0911 27.8555 48.6035 27.7598C48.1934 27.6732 47.8219 27.5706 47.4893 27.4521C47.1611 27.3337 46.8809 27.1901 46.6484 27.0215C46.4206 26.8529 46.2451 26.6546 46.1221 26.4268C45.999 26.1989 45.9375 25.9323 45.9375 25.627C45.9375 25.3353 46.0013 25.0596 46.1289 24.7998C46.2611 24.54 46.4456 24.3099 46.6826 24.1094C46.9242 23.9089 47.2135 23.7516 47.5508 23.6377C47.888 23.5238 48.264 23.4668 48.6787 23.4668C49.2712 23.4668 49.777 23.5716 50.1963 23.7812C50.6156 23.9909 50.9368 24.2712 51.1602 24.6221C51.3835 24.9684 51.4951 25.3535 51.4951 25.7773H50.2305C50.2305 25.5723 50.1689 25.374 50.0459 25.1826C49.9274 24.9867 49.752 24.8249 49.5195 24.6973C49.2917 24.5697 49.0114 24.5059 48.6787 24.5059C48.3278 24.5059 48.043 24.5605 47.8242 24.6699C47.61 24.7747 47.4528 24.9092 47.3525 25.0732C47.2568 25.2373 47.209 25.4105 47.209 25.5928C47.209 25.7295 47.2318 25.8525 47.2773 25.9619C47.3275 26.0667 47.4141 26.1647 47.5371 26.2559C47.6602 26.3424 47.8333 26.4245 48.0566 26.502C48.2799 26.5794 48.5648 26.6569 48.9111 26.7344C49.5173 26.8711 50.0163 27.0352 50.4082 27.2266C50.8001 27.418 51.0918 27.6527 51.2832 27.9307C51.4746 28.2087 51.5703 28.5459 51.5703 28.9424C51.5703 29.266 51.502 29.5622 51.3652 29.8311C51.2331 30.0999 51.0394 30.3324 50.7842 30.5283C50.5335 30.7197 50.2327 30.8701 49.8818 30.9795C49.5355 31.0843 49.1458 31.1367 48.7129 31.1367C48.0612 31.1367 47.5098 31.0205 47.0586 30.7881C46.6074 30.5557 46.2656 30.2549 46.0332 29.8857C45.8008 29.5166 45.6846 29.127 45.6846 28.7168H46.9561C46.9743 29.0632 47.0745 29.3389 47.2568 29.5439C47.4391 29.7445 47.6624 29.888 47.9268 29.9746C48.1911 30.0566 48.4531 30.0977 48.7129 30.0977C49.0592 30.0977 49.3486 30.0521 49.5811 29.9609C49.818 29.8698 49.998 29.7445 50.1211 29.585C50.2441 29.4255 50.3057 29.2432 50.3057 29.0381ZM56.3281 23.6035V24.5742H52.3291V23.6035H56.3281ZM53.6826 21.8057H54.9473V29.168C54.9473 29.4186 54.986 29.6077 55.0635 29.7354C55.141 29.863 55.2412 29.9473 55.3643 29.9883C55.4873 30.0293 55.6195 30.0498 55.7607 30.0498C55.8656 30.0498 55.9749 30.0407 56.0889 30.0225C56.2074 29.9997 56.2962 29.9814 56.3555 29.9678L56.3623 31C56.262 31.0319 56.1299 31.0615 55.9658 31.0889C55.8063 31.1208 55.6126 31.1367 55.3848 31.1367C55.0749 31.1367 54.79 31.0752 54.5303 30.9521C54.2705 30.8291 54.0632 30.624 53.9082 30.3369C53.7578 30.0452 53.6826 29.6533 53.6826 29.1611V21.8057ZM62.3369 29.291V23.6035H63.6084V31H62.3984L62.3369 29.291ZM62.5762 27.7324L63.1025 27.7188C63.1025 28.2109 63.0501 28.6667 62.9453 29.0859C62.8451 29.5007 62.681 29.8607 62.4531 30.166C62.2253 30.4714 61.9268 30.7106 61.5576 30.8838C61.1885 31.0524 60.7396 31.1367 60.2109 31.1367C59.8509 31.1367 59.5205 31.0843 59.2197 30.9795C58.9235 30.8747 58.6683 30.7129 58.4541 30.4941C58.2399 30.2754 58.0736 29.9906 57.9551 29.6396C57.8411 29.2887 57.7842 28.8672 57.7842 28.375V23.6035H59.0488V28.3887C59.0488 28.7214 59.0853 28.9971 59.1582 29.2158C59.2357 29.43 59.3382 29.6009 59.4658 29.7285C59.598 29.8516 59.7438 29.9382 59.9033 29.9883C60.0674 30.0384 60.236 30.0635 60.4092 30.0635C60.9469 30.0635 61.373 29.9609 61.6875 29.7559C62.002 29.5462 62.2275 29.266 62.3643 28.915C62.5055 28.5596 62.5762 28.1654 62.5762 27.7324ZM70.1982 29.5645V20.5H71.4697V31H70.3076L70.1982 29.5645ZM65.2217 27.3838V27.2402C65.2217 26.6751 65.29 26.1624 65.4268 25.7021C65.568 25.2373 65.7663 24.8385 66.0215 24.5059C66.2812 24.1732 66.5889 23.918 66.9443 23.7402C67.3044 23.5579 67.7054 23.4668 68.1475 23.4668C68.6123 23.4668 69.0179 23.5488 69.3643 23.7129C69.7152 23.8724 70.0114 24.1071 70.2529 24.417C70.499 24.7223 70.6927 25.0915 70.834 25.5244C70.9753 25.9574 71.0732 26.4473 71.1279 26.9941V27.623C71.0778 28.1654 70.9798 28.653 70.834 29.0859C70.6927 29.5189 70.499 29.888 70.2529 30.1934C70.0114 30.4987 69.7152 30.7334 69.3643 30.8975C69.0133 31.057 68.6032 31.1367 68.1338 31.1367C67.7008 31.1367 67.3044 31.0433 66.9443 30.8564C66.5889 30.6696 66.2812 30.4076 66.0215 30.0703C65.7663 29.7331 65.568 29.3366 65.4268 28.8809C65.29 28.4206 65.2217 27.9215 65.2217 27.3838ZM66.4932 27.2402V27.3838C66.4932 27.7529 66.5296 28.0993 66.6025 28.4229C66.68 28.7464 66.7985 29.0312 66.958 29.2773C67.1175 29.5234 67.3203 29.7171 67.5664 29.8584C67.8125 29.9951 68.1064 30.0635 68.4482 30.0635C68.8675 30.0635 69.2116 29.9746 69.4805 29.7969C69.7539 29.6191 69.9727 29.3844 70.1367 29.0928C70.3008 28.8011 70.4284 28.4844 70.5195 28.1426V26.4951C70.4648 26.2445 70.3851 26.0029 70.2803 25.7705C70.18 25.5335 70.0479 25.3239 69.8838 25.1416C69.7243 24.9548 69.526 24.8066 69.2891 24.6973C69.0566 24.5879 68.7809 24.5332 68.4619 24.5332C68.1156 24.5332 67.8171 24.6061 67.5664 24.752C67.3203 24.8932 67.1175 25.0892 66.958 25.3398C66.7985 25.5859 66.68 25.873 66.6025 26.2012C66.5296 26.5247 66.4932 26.8711 66.4932 27.2402ZM74.8125 23.6035V31H73.541V23.6035H74.8125ZM73.4453 21.6416C73.4453 21.4365 73.5068 21.2633 73.6299 21.1221C73.7575 20.9808 73.9443 20.9102 74.1904 20.9102C74.432 20.9102 74.6165 20.9808 74.7441 21.1221C74.8763 21.2633 74.9424 21.4365 74.9424 21.6416C74.9424 21.8376 74.8763 22.0062 74.7441 22.1475C74.6165 22.2842 74.432 22.3525 74.1904 22.3525C73.9443 22.3525 73.7575 22.2842 73.6299 22.1475C73.5068 22.0062 73.4453 21.8376 73.4453 21.6416ZM76.5078 27.3838V27.2266C76.5078 26.6934 76.5853 26.1989 76.7402 25.7432C76.8952 25.2829 77.1185 24.8841 77.4102 24.5469C77.7018 24.2051 78.055 23.9408 78.4697 23.7539C78.8844 23.5625 79.3493 23.4668 79.8643 23.4668C80.3838 23.4668 80.8509 23.5625 81.2656 23.7539C81.6849 23.9408 82.0404 24.2051 82.332 24.5469C82.6283 24.8841 82.8538 25.2829 83.0088 25.7432C83.1637 26.1989 83.2412 26.6934 83.2412 27.2266V27.3838C83.2412 27.917 83.1637 28.4115 83.0088 28.8672C82.8538 29.3229 82.6283 29.7217 82.332 30.0635C82.0404 30.4007 81.6872 30.665 81.2725 30.8564C80.8623 31.0433 80.3975 31.1367 79.8779 31.1367C79.3584 31.1367 78.8913 31.0433 78.4766 30.8564C78.0618 30.665 77.7064 30.4007 77.4102 30.0635C77.1185 29.7217 76.8952 29.3229 76.7402 28.8672C76.5853 28.4115 76.5078 27.917 76.5078 27.3838ZM77.7725 27.2266V27.3838C77.7725 27.7529 77.8158 28.1016 77.9023 28.4297C77.9889 28.7533 78.1188 29.0404 78.292 29.291C78.4697 29.5417 78.6908 29.7399 78.9551 29.8857C79.2194 30.027 79.527 30.0977 79.8779 30.0977C80.2243 30.0977 80.5273 30.027 80.7871 29.8857C81.0514 29.7399 81.2702 29.5417 81.4434 29.291C81.6165 29.0404 81.7464 28.7533 81.833 28.4297C81.9242 28.1016 81.9697 27.7529 81.9697 27.3838V27.2266C81.9697 26.862 81.9242 26.5179 81.833 26.1943C81.7464 25.8662 81.6143 25.5768 81.4365 25.3262C81.2633 25.071 81.0446 24.8704 80.7803 24.7246C80.5205 24.5788 80.2152 24.5059 79.8643 24.5059C79.5179 24.5059 79.2126 24.5788 78.9482 24.7246C78.6885 24.8704 78.4697 25.071 78.292 25.3262C78.1188 25.5768 77.9889 25.8662 77.9023 26.1943C77.8158 26.5179 77.7725 26.862 77.7725 27.2266Z" fill="url(#paint0_linear_222_18)"/>
<defs>
<linearGradient id="paint0_linear_222_18" x1="59.859" y1="-3.00001" x2="83.378" y2="30.0573" gradientUnits="userSpaceOnUse">
<stop stop-color="#E0DEDE"/>
<stop offset="0.983598" stop-color="#A2A0A0"/>
</linearGradient>
</defs>
</svg>
