<?xml version="1.0" encoding="utf-8"?><svg viewBox="0 0 512 512" xmlns="http://www.w3.org/2000/svg" xmlns:xlink="http://www.w3.org/1999/xlink"><style>:root>svg{display:none}:root>svg:target{display:block}</style><svg viewBox="0 0 10 15" id="icon-arrow" xmlns="http://www.w3.org/2000/svg"><path d="M9.434 2.05V.617A.148.148 0 009.194.5L.83 7.032a.591.591 0 000 .934l8.364 6.533c.099.076.24.007.24-.117v-1.434a.3.3 0 00-.114-.234L2.64 7.5l6.68-5.216a.3.3 0 00.114-.233z"/></svg><svg viewBox="0 0 19 11" id="icon-arrow-down" xmlns="http://www.w3.org/2000/svg"><path d="M9.5 10.25L0 .75h19l-9.5 9.5z"/></svg><svg viewBox="0 0 10 15" id="icon-chevron" xmlns="http://www.w3.org/2000/svg"><path d="M9.434 2.05V.616a.148.148 0 00-.24-.117L.83 7.032a.591.591 0 000 .934l8.364 6.533c.099.076.24.007.24-.117v-1.434a.3.3 0 00-.114-.234L2.64 7.5l6.68-5.216a.3.3 0 00.114-.234z"/></svg><svg viewBox="0 0 17 32" id="icon-facebook" xmlns="http://www.w3.org/2000/svg"><path d="M13.65 5.313h2.901V.225C16.051.156 14.33 0 12.325 0 8.142 0 5.277 2.65 5.277 7.519V12H.66v5.688h4.616V32h5.659V17.69h4.429L16.068 12h-5.133V8.083c0-1.644.44-2.77 2.715-2.77z"/></svg><svg viewBox="0 0 33 32" id="icon-instagram" xmlns="http://www.w3.org/2000/svg"><g clip-path="url(#eclip0_20_42)"><path d="M16.449 7.784c-4.506 0-8.154 3.677-8.154 8.21 0 4.538 3.652 8.211 8.154 8.211 4.505 0 8.153-3.677 8.153-8.21 0-4.538-3.651-8.211-8.153-8.211zm0 13.54c-2.925 0-5.293-2.385-5.293-5.33 0-2.943 2.369-5.329 5.293-5.329 2.923 0 5.292 2.386 5.292 5.33.001 2.944-2.367 5.329-5.292 5.329z"/><path d="M22.995.101c-2.924-.137-10.165-.13-13.091 0-2.572.122-4.84.747-6.669 2.588C.18 5.767.57 9.913.57 15.995c0 6.224-.344 10.274 2.665 13.305 3.068 3.088 7.246 2.684 13.214 2.684 6.122 0 8.235.004 10.4-.84 2.944-1.15 5.166-3.8 5.383-8.559.138-2.945.13-10.236 0-13.182C31.97 3.785 28.976.379 22.995.1zm4.628 27.163C25.619 29.28 22.84 29.1 16.41 29.1c-6.62 0-9.275.099-11.212-1.857-2.231-2.236-1.827-5.827-1.827-11.27C3.37 8.606 2.62 3.3 9.96 2.922c1.688-.06 2.184-.08 6.43-.08l.06.04c7.056 0 12.592-.744 12.925 6.648.075 1.686.092 2.193.092 6.462 0 6.59.124 9.279-1.845 11.27z"/><path d="M24.925 9.379a1.912 1.912 0 001.906-1.92c0-1.059-.853-1.918-1.905-1.918A1.912 1.912 0 0023.02 7.46c0 1.06.853 1.919 1.905 1.919z"/></g><defs><clipPath id="eclip0_20_42"><path transform="translate(.554)" d="M0 0h31.778v32H0z"/></clipPath></defs></svg><svg viewBox="0 0 15 15" id="icon-phone" xmlns="http://www.w3.org/2000/svg"><path d="M14.22 11.57L11 8.642a.792.792 0 00-1.101.034l-1.895 1.949c-.456-.088-1.372-.373-2.316-1.315-.944-.944-1.23-1.863-1.314-2.316L6.32 5.1a.792.792 0 00.034-1.102L3.43.781a.792.792 0 00-1.1-.069L.61 2.186a.792.792 0 00-.23.513C.37 2.897.144 7.585 3.78 11.222c3.171 3.171 7.144 3.403 8.238 3.403.16 0 .258-.005.284-.006a.786.786 0 00.513-.23l1.472-1.72a.79.79 0 00-.067-1.1z"/><path d="M14.22 11.57L11 8.642a.792.792 0 00-1.101.034l-1.895 1.949c-.456-.088-1.372-.373-2.316-1.315-.944-.944-1.23-1.863-1.314-2.316L6.32 5.1a.792.792 0 00.034-1.102L3.43.781a.792.792 0 00-1.1-.069L.61 2.186a.792.792 0 00-.23.513C.37 2.897.144 7.585 3.78 11.222c3.171 3.171 7.144 3.403 8.238 3.403.16 0 .258-.005.284-.006a.786.786 0 00.513-.23l1.472-1.72a.79.79 0 00-.067-1.1z"/><defs><linearGradient id="fpaint0_linear_222_17" x1="4.963" y1=".522" x2="9.869" y2="2.021" gradientUnits="userSpaceOnUse"><stop stop-color="#E0DEDE"/><stop offset=".984" stop-color="#A2A0A0"/></linearGradient></defs></svg><svg viewBox="0 0 511.998 511.998" id="icon-pinterest" xmlns="http://www.w3.org/2000/svg"><path d="M405.017 52.467C369.774 18.634 321.001 0 267.684 0 186.24 0 136.148 33.385 108.468 61.39c-34.114 34.513-53.675 80.34-53.675 125.732 0 56.993 23.839 100.737 63.76 117.011 2.68 1.098 5.377 1.651 8.021 1.651 8.422 0 15.095-5.511 17.407-14.35 1.348-5.071 4.47-17.582 5.828-23.013 2.906-10.725.558-15.884-5.78-23.353-11.546-13.662-16.923-29.817-16.923-50.842 0-62.451 46.502-128.823 132.689-128.823 68.386 0 110.866 38.868 110.866 101.434 0 39.482-8.504 76.046-23.951 102.961-10.734 18.702-29.609 40.995-58.585 40.995-12.53 0-23.786-5.147-30.888-14.121-6.709-8.483-8.921-19.441-6.222-30.862 3.048-12.904 7.205-26.364 11.228-39.376 7.337-23.766 14.273-46.213 14.273-64.122 0-30.632-18.832-51.215-46.857-51.215-35.616 0-63.519 36.174-63.519 82.354 0 22.648 6.019 39.588 8.744 46.092-4.487 19.01-31.153 132.03-36.211 153.342-2.925 12.441-20.543 110.705 8.618 118.54 32.764 8.803 62.051-86.899 65.032-97.713 2.416-8.795 10.869-42.052 16.049-62.495 15.817 15.235 41.284 25.535 66.064 25.535 46.715 0 88.727-21.022 118.298-59.189 28.679-37.02 44.474-88.618 44.474-145.282-.002-44.298-19.026-87.97-52.191-119.814z"/></svg><svg viewBox="0 0 83 83" id="icon-play" xmlns="http://www.w3.org/2000/svg"><path d="M41.5.813C19.031.813.812 19.03.812 41.5c0 22.469 18.22 40.688 40.688 40.688 22.469 0 40.688-18.22 40.688-40.688C82.188 19.031 63.968.812 41.5.812zm13.087 41.314L34.752 56.558a.729.729 0 01-1.153-.59V27.123a.727.727 0 011.153-.59l19.835 14.422a.717.717 0 010 1.172z"/></svg><svg viewBox="0 0 24 24" id="icon-vk" xmlns="http://www.w3.org/2000/svg"><path class="ist0" d="M13.162 18.994c.609 0 .858-.406.851-.915-.031-1.917.714-2.949 2.059-1.604 1.488 1.488 1.796 2.519 3.603 2.519h3.2c.808 0 1.126-.26 1.126-.668 0-.863-1.421-2.386-2.625-3.504-1.686-1.565-1.765-1.602-.313-3.486C22.864 8.997 25.22 6 23.136 6h-3.981c-.772 0-.828.435-1.103 1.083-.995 2.347-2.886 5.387-3.604 4.922-.751-.485-.407-2.406-.35-5.261.015-.754.011-1.271-1.141-1.539A8.07 8.07 0 0011.148 5c-2.273 0-3.841.953-2.95 1.119 1.571.293 1.42 3.692 1.054 5.16-.638 2.556-3.036-2.024-4.035-4.305C4.976 6.426 4.902 6 4.042 6H.787C.295 6 0 6.16 0 6.516c0 .602 2.96 6.72 5.786 9.77 2.756 2.975 5.48 2.708 7.376 2.708z"/></svg></svg>