<svg width="10" height="15" viewBox="0 0 10 15" fill="none" xmlns="http://www.w3.org/2000/svg">
<path d="M9.43362 2.0503V0.616023C9.43362 0.491706 9.29075 0.423054 9.19426 0.499128L0.829812 7.03223C0.758744 7.0875 0.701239 7.15827 0.661682 7.23914C0.622125 7.32002 0.601562 7.40886 0.601562 7.49888C0.601562 7.58891 0.622125 7.67775 0.661682 7.75863C0.701239 7.8395 0.758744 7.91027 0.829812 7.96553L9.19426 14.4986C9.2926 14.5747 9.43362 14.5061 9.43362 14.3817V12.9475C9.43362 12.8565 9.39094 12.7693 9.32044 12.7137L2.64075 7.49981L9.32044 2.28409C9.39094 2.22843 9.43362 2.14122 9.43362 2.0503Z" fill="#171717"/>
</svg>
